<?xml version="1.0" standalone="no"?>
<!DOCTYPE svg PUBLIC "-//W3C//DTD SVG 1.1//EN" "http://www.w3.org/Graphics/SVG/1.1/DTD/svg11.dtd" >
<svg>
<metadata>
Created by FontForge 20090914 at Mon Aug  1 09:54:32 2022
 By www-data
Copyright &#194;&#169; 2016 by Martin V?cha. All rights reserved. |DCNT
</metadata>
<defs>
<font id="Matter-Light" horiz-adv-x="530" >
  <font-face 
    font-family="Matter Light"
    font-weight="300"
    font-stretch="normal"
    units-per-em="1000"
    panose-1="0 0 4 0 0 0 0 0 0 0"
    ascent="810"
    descent="-190"
    x-height="504"
    cap-height="700"
    bbox="-379 -211.998 1466 1076"
    underline-thickness="50"
    underline-position="-150"
    unicode-range="U+000D-U+F8FF"
  />
<missing-glyph horiz-adv-x="1088" 
d="M44 309c0 134 47 249.669 141 347.002s207.667 148.666 341 153.999v-1000c-66 2 -128.667 16.667 -188 44s-110.5 63.166 -153.5 107.499s-77.167 96.833 -102.5 157.5s-38 124 -38 190zM562 806.002c41.333 -14 76.5 -69.001 105.5 -165.001s43.5 -206.667 43.5 -332
s-14.5 -235.666 -43.5 -330.999s-64.167 -150.333 -105.5 -165v993zM886 309.001c0 -112 -23.167 -212.5 -69.5 -301.5s-105.833 -148.5 -178.5 -178.5c34 44 60.833 108.833 80.5 194.5s29.5 180.834 29.5 285.501s-9.83301 200 -29.5 286s-46.5 151.333 -80.5 196
c72.667 -30.667 132.167 -90.834 178.5 -180.501s69.5 -190.167 69.5 -301.5zM1044 309.001c0 -100.667 -27.833 -192.831 -83.5 -276.498s-129.167 -144.5 -220.5 -182.5c56 48.667 100.5 113.667 133.5 195s49.5 169.333 49.5 264c0 94 -16.5 182 -49.5 264
s-77.5 147.333 -133.5 196c91.333 -38.667 164.833 -99.834 220.5 -183.501s83.5 -175.834 83.5 -276.501z" />
    <glyph glyph-name=".notdef" horiz-adv-x="1088" 
d="M44 309c0 134 47 249.669 141 347.002s207.667 148.666 341 153.999v-1000c-66 2 -128.667 16.667 -188 44s-110.5 63.166 -153.5 107.499s-77.167 96.833 -102.5 157.5s-38 124 -38 190zM562 806.002c41.333 -14 76.5 -69.001 105.5 -165.001s43.5 -206.667 43.5 -332
s-14.5 -235.666 -43.5 -330.999s-64.167 -150.333 -105.5 -165v993zM886 309.001c0 -112 -23.167 -212.5 -69.5 -301.5s-105.833 -148.5 -178.5 -178.5c34 44 60.833 108.833 80.5 194.5s29.5 180.834 29.5 285.501s-9.83301 200 -29.5 286s-46.5 151.333 -80.5 196
c72.667 -30.667 132.167 -90.834 178.5 -180.501s69.5 -190.167 69.5 -301.5zM1044 309.001c0 -100.667 -27.833 -192.831 -83.5 -276.498s-129.167 -144.5 -220.5 -182.5c56 48.667 100.5 113.667 133.5 195s49.5 169.333 49.5 264c0 94 -16.5 182 -49.5 264
s-77.5 147.333 -133.5 196c91.333 -38.667 164.833 -99.834 220.5 -183.501s83.5 -175.834 83.5 -276.501z" />
    <glyph glyph-name="CR" unicode="&#xd;" horiz-adv-x="242" 
 />
    <glyph glyph-name="space" unicode=" " horiz-adv-x="242" 
 />
    <glyph glyph-name="exclam" unicode="!" horiz-adv-x="239" 
d="M98 184l-22 516h87l-22 -516h-43zM80 89h79v-89h-79v89z" />
    <glyph glyph-name="quotedbl" unicode="&#x22;" horiz-adv-x="314" 
d="M61 535l-15 173h82l-15 -173h-52zM201 535l-15 173h82l-15 -173h-52z" />
    <glyph glyph-name="numbersign" unicode="#" horiz-adv-x="671" 
d="M641 432h-141l-36 -164h133v-54h-145l-48 -214h-58l48 214h-177l-48 -214h-58l48 214h-129v54h141l36 164h-133v54h145l48 214h58l-48 -214h177l48 214h58l-48 -214h129v-54zM406 268l36 164h-177l-36 -164h177z" />
    <glyph glyph-name="dollar" unicode="$" horiz-adv-x="583" 
d="M543 184c0 -53.333 -19.3311 -97.1738 -57.998 -131.507s-91 -54.166 -157 -59.499v-109l-67 1v109c-58.667 6.66699 -108.667 28.667 -150 66s-68.333 85.333 -81 144l68 23c8 -52 30 -93.833 66 -125.5s79.667 -47.5 131 -47.5c54 0 97.167 11.833 129.5 35.5
s48.5 55.167 48.5 94.5c0 28 -7.5 51.667 -22.5 71s-34.667 34.5 -59 45.5s-51.166 20.667 -80.499 29s-58.666 17.333 -87.999 27s-56.166 20.834 -80.499 33.501s-44 30.834 -59 54.501s-22.5 52.167 -22.5 85.5c0 49.333 18.167 89.833 54.5 121.5
s84.833 50.167 145.5 55.5v93h67v-94c54.667 -6 100.167 -24.167 136.5 -54.5s57.833 -68.5 64.5 -114.5l-61 -22c-7.33301 40.667 -26.5 72.667 -57.5 96s-70.5 35 -118.5 35c-50.667 0 -90.5 -10.333 -119.5 -31s-43.5 -49 -43.5 -85c0 -24 7.66699 -44.167 23 -60.5
s35.166 -29 59.499 -38s51.166 -17.167 80.499 -24.5s58.666 -16.166 87.999 -26.499s56.166 -22.666 80.499 -36.999s44.166 -35.166 59.499 -62.499s23 -59.666 23 -96.999z" />
    <glyph glyph-name="percent" unicode="%" horiz-adv-x="831" 
d="M201 356c-47.333 0 -86.5 17 -117.5 51s-46.5 75.667 -46.5 125s15.5 91 46.5 125s70.167 51 117.5 51s86.333 -17 117 -51s46 -75.667 46 -125s-15.333 -91 -46 -125s-69.667 -51 -117 -51zM150 0l468 700h61l-468 -700h-61zM201 408c30.667 0 55.5 11.333 74.5 34
s28.5 52.667 28.5 90s-9.5 67.333 -28.5 90s-43.833 34 -74.5 34c-31.333 0 -56.5 -11.333 -75.5 -34s-28.5 -52.667 -28.5 -90s9.5 -67.333 28.5 -90s44.167 -34 75.5 -34zM631 -8c-47.333 0 -86.5 17 -117.5 51s-46.5 75.667 -46.5 125s15.5 91 46.5 125
s70.167 51 117.5 51s86.333 -17 117 -51s46 -75.667 46 -125s-15.333 -91 -46 -125s-69.667 -51 -117 -51zM631 44c30.667 0 55.5 11.333 74.5 34s28.5 52.667 28.5 90s-9.5 67.333 -28.5 90s-43.833 34 -74.5 34c-31.333 0 -56.5 -11.333 -75.5 -34
s-28.5 -52.667 -28.5 -90s9.5 -67.333 28.5 -90s44.167 -34 75.5 -34z" />
    <glyph glyph-name="ampersand" unicode="&#x26;" horiz-adv-x="649" 
d="M634 0l-83 -0.00195312l-77 87c-59.333 -63.333 -126.666 -95 -201.999 -95c-66.667 0 -120.334 18 -161.001 54s-61 85.667 -61 149c0 48.667 13.833 87.334 41.5 116.001s65.834 54.667 114.501 78c-31.333 36.667 -52.833 66.334 -64.5 89.001s-17.5 46.667 -17.5 72
c0 47.333 15.333 85.5 46 114.5s70.667 43.5 120 43.5s89.166 -14.5 119.499 -43.5s45.5 -67.167 45.5 -114.5c0 -44 -12.833 -79 -38.5 -105s-62.167 -50.667 -109.5 -74l164 -186l95 110l49 -44l-99 -117zM189 549.998c0 -17.333 5.83203 -35.332 17.499 -53.999
s31.834 -45 60.501 -79c40 19.333 70.5 38.666 91.5 57.999s31.5 44.333 31.5 75c0 28.667 -9.33301 52 -28 70s-42.667 27 -72 27s-53.5 -9 -72.5 -27s-28.5 -41.333 -28.5 -70zM271.999 53.999c55.333 0 107.667 27.6689 157 83.002l-182 206
c-40.667 -20.667 -72 -41.834 -94 -63.501s-33 -49.834 -33 -84.501c0 -42 14.333 -76 43 -102s65 -39 109 -39z" />
    <glyph glyph-name="quotesingle" unicode="'" horiz-adv-x="174" 
d="M61 535l-15 173h82l-15 -173h-52z" />
    <glyph glyph-name="parenleft" unicode="(" horiz-adv-x="261" 
d="M192 -166c-48 63.333 -85.333 135.499 -112 216.499s-40 161.833 -40 242.5s13.333 161.334 40 242.001s64 152.667 112 216l44 -33c-88.667 -136 -133 -277.667 -133 -425c0 -146 44.333 -287.667 133 -425z" />
    <glyph glyph-name="parenright" unicode=")" horiz-adv-x="261" 
d="M69 -166l-44 34.001c88.667 137.333 133 279 133 425c0 147.333 -44.333 289 -133 425l44 33c48 -63.333 85.333 -135.333 112 -216s40 -161.334 40 -242.001s-13.333 -161.5 -40 -242.5s-64 -153.167 -112 -216.5z" />
    <glyph glyph-name="asterisk" unicode="*" horiz-adv-x="491" 
d="M450 530l-163 -49l104 -135l-42 -32l-103 140l-104 -140l-42 32l104 135l-163 49l16 51l163 -50l-1 169h53l-1 -169l163 50z" />
    <glyph glyph-name="plus" unicode="+" horiz-adv-x="551" 
d="M516 366v-57h-212v-211h-56v212h-213v57h212v211h56v-212h213z" />
    <glyph glyph-name="comma" unicode="," horiz-adv-x="233" 
d="M30 -96l54 185h95l-102 -185h-47z" />
    <glyph glyph-name="hyphen" unicode="-" horiz-adv-x="340" 
d="M30 260v56h280v-56h-280z" />
    <glyph glyph-name="period" unicode="." horiz-adv-x="225" 
d="M73 89h79v-89h-79v89z" />
    <glyph glyph-name="slash" unicode="/" horiz-adv-x="398" 
d="M10 -1l314 701h64l-315 -701h-63z" />
    <glyph glyph-name="zero" unicode="0" horiz-adv-x="606" 
d="M303 -8c-84.667 0 -149 32.167 -193 96.5s-66 151.5 -66 261.5s22 197.167 66 261.5s108.333 96.5 193 96.5s149 -32.167 193 -96.5s66 -151.5 66 -261.5s-22 -197.167 -66 -261.5s-108.333 -96.5 -193 -96.5zM303 54c60 0 106.5 26.667 139.5 80s49.5 125.333 49.5 216
s-16.5 162.667 -49.5 216s-79.5 80 -139.5 80c-60.667 0 -107.334 -26.667 -140.001 -80s-49 -125.333 -49 -216s16.333 -162.667 49 -216s79.334 -80 140.001 -80z" />
    <glyph glyph-name="one" unicode="1" horiz-adv-x="329" 
d="M188 0v605.001c-39.333 -39.333 -95.333 -66 -168 -80v60c74.667 15.333 134 53.666 178 114.999h55v-700h-65z" />
    <glyph glyph-name="two" unicode="2" horiz-adv-x="552" 
d="M30 0l-0.000976562 62l270 237c81.333 72 122 140.333 122 205c0 43.333 -13.333 77.833 -40 103.5s-62.667 38.5 -108 38.5c-54 0 -95.333 -16.667 -124 -50s-40 -78 -34 -134l-66 5c-4.66699 73.333 13.333 131.833 54 175.5s97.334 65.5 170.001 65.5
c66 0 118.833 -18.5 158.5 -55.5s59.5 -86.5 59.5 -148.5c0 -81.333 -49.667 -165.333 -149 -252l-218 -190h367v-62h-462z" />
    <glyph glyph-name="three" unicode="3" horiz-adv-x="561" 
d="M269 -8c-67.333 0 -123.167 18.166 -167.5 54.499s-69.833 84.833 -76.5 145.5l65 9c4.66699 -44.667 23.334 -80.334 56.001 -107.001s73.667 -40 123 -40c53.333 0 96.166 14.833 128.499 44.5s48.5 68.834 48.5 117.501c0 50.667 -15 89.834 -45 117.501
s-72 41.5 -126 41.5c-29.333 0 -54.666 -6.66699 -75.999 -20l-32 41l237 242h-359v62h437v-62l-209 -212c71.333 8 129.666 -7.5 174.999 -46.5s68 -93.5 68 -163.5c0 -67.333 -22.5 -121.5 -67.5 -162.5s-104.833 -61.5 -179.5 -61.5z" />
    <glyph glyph-name="four" unicode="4" horiz-adv-x="601" 
d="M398 0v185h-378v62l362 453h83v-453h106v-62h-106v-185h-67zM95 247h303v380z" />
    <glyph glyph-name="five" unicode="5" horiz-adv-x="567" 
d="M284 -8c-66.667 0 -122.67 17.501 -168.003 52.501s-72.333 81.5 -81 139.5l64 11c6.66699 -42.667 26.834 -76.834 60.501 -102.501s74.834 -38.5 123.501 -38.5c51.333 0 92.5 16.167 123.5 48.5s46.5 74.833 46.5 127.5c0 54.667 -16.167 97.667 -48.5 129
s-76.5 47 -132.5 47c-73.333 0 -129.333 -30.667 -168 -92l-48 10l53 376h366v-62h-316l-33 -232c19.333 18 43 32.833 71 44.5s54.667 17.5 80 17.5c74.667 0 134.334 -21.833 179.001 -65.5s67 -101.167 67 -172.5c0 -72 -21.833 -129.667 -65.5 -173
s-101.5 -65 -173.5 -65z" />
    <glyph glyph-name="six" unicode="6" horiz-adv-x="588" 
d="M299 468c72.667 0 132.167 -22.333 178.5 -67s69.5 -101.667 69.5 -171s-23.167 -126.333 -69.5 -171s-105.833 -67 -178.5 -67c-77.333 0 -139.166 28.5 -185.499 85.5s-69.5 133.833 -69.5 230.5c0 126 28.833 224.167 86.5 294.5s135.5 105.5 233.5 105.5
c72 0 133.333 -20 184 -60l-37 -56c-41.333 36 -91.333 54 -150 54c-72.667 0 -133.334 -28 -182.001 -84s-73 -126.667 -73 -212c16 35.333 41.833 63.833 77.5 85.5s74.167 32.5 115.5 32.5zM299 54c52 0 94.667 16.667 128 50s50 75.666 50 126.999
s-16.667 93.333 -50 126s-76 49 -128 49s-94.667 -16.333 -128 -49s-50 -74.667 -50 -126s16.667 -93.666 50 -126.999s76 -50 128 -50z" />
    <glyph glyph-name="seven" unicode="7" horiz-adv-x="545" 
d="M117 0c10.667 99.333 45.333 203.832 104 313.499s131.667 217.834 219 324.501h-409v62h478v-62c-200 -251.333 -307.667 -464 -323 -638h-69z" />
    <glyph glyph-name="eight" unicode="8" horiz-adv-x="570" 
d="M287 -8c-74.667 0 -134.501 18.833 -179.501 56.5s-67.5 87.834 -67.5 150.501c0 41.333 12.333 78.166 37 110.499s57.667 54.833 99 67.5c-32.667 14.667 -58.834 35.5 -78.501 62.5s-29.5 55.833 -29.5 86.5c0 55.333 19.833 99.5 59.5 132.5
s92.834 49.5 159.501 49.5c64.667 0 116.5 -16.5 155.5 -49.5s58.5 -77.167 58.5 -132.5c0 -31.333 -9.66699 -60.5 -29 -87.5s-45.333 -47.5 -78 -61.5c41.333 -12.667 74.333 -35.167 99 -67.5s37 -69.166 37 -110.499c0 -62.667 -22.167 -112.834 -66.5 -150.501
s-103.166 -56.5 -176.499 -56.5zM286.999 402c43.333 0 77.9971 11.167 103.997 33.5s39.333 51.833 40 88.5s-12.166 66.167 -38.499 88.5s-61.5 33.5 -105.5 33.5c-45.333 0 -81.666 -11.167 -108.999 -33.5s-40.666 -51.833 -39.999 -88.5s14.5 -66.167 41.5 -88.5
s62.833 -33.5 107.5 -33.5zM285.996 54c52.667 0 94.834 13.167 126.501 39.5s47.5 61.5 47.5 105.5s-15.833 79.167 -47.5 105.5s-73.834 39.5 -126.501 39.5c-53.333 0 -96 -13.167 -128 -39.5s-48 -61.5 -48 -105.5s16 -79.167 48 -105.5s74.667 -39.5 128 -39.5z" />
    <glyph glyph-name="nine" unicode="9" horiz-adv-x="583" 
d="M284 232c-72.667 0 -132.168 22.333 -178.501 67s-69.5 101.667 -69.5 171s23.167 126.333 69.5 171s105.833 67 178.5 67c77.333 0 139.166 -28.5 185.499 -85.5s69.5 -133.833 69.5 -230.5c0 -126 -28.833 -224.167 -86.5 -294.5s-135.5 -105.5 -233.5 -105.5
c-71.333 0 -132.666 20 -183.999 60l37 56c41.333 -36 91.333 -54 150 -54c72.667 0 133.334 28 182.001 84s73 126.667 73 212c-16 -35.333 -41.833 -63.833 -77.5 -85.5s-74.167 -32.5 -115.5 -32.5zM283.999 646c-52 0 -94.667 -16.667 -128 -50
s-50 -75.666 -50 -126.999s16.667 -93.333 50 -126s76 -49 128 -49s94.667 16.333 128 49s50 74.667 50 126s-16.667 93.666 -50 126.999s-76 50 -128 50z" />
    <glyph glyph-name="colon" unicode=":" horiz-adv-x="225" 
d="M73 504h79v-89h-79v89zM73 89h79v-89h-79v89z" />
    <glyph glyph-name="semicolon" unicode=";" horiz-adv-x="253" 
d="M113 455h79v-89h-79v89zM30 -96l54 185h95l-102 -185h-47z" />
    <glyph glyph-name="less" unicode="&#x3c;" 
d="M495 67l-460 188v72l460 188v-65l-398 -159l398 -159v-65z" />
    <glyph glyph-name="equal" unicode="=" 
d="M35 402v56h460v-56h-460zM35 219v56h460v-56h-460z" />
    <glyph glyph-name="greater" unicode="&#x3e;" 
d="M35 67v65l398 159l-398 159v65l460 -188v-72z" />
    <glyph glyph-name="question" unicode="?" horiz-adv-x="503" 
d="M191 184c0 36.667 6.83398 68.498 20.501 95.498s30.167 48.667 49.5 65s38.666 31.833 57.999 46.5s35.833 32.5 49.5 53.5s20.5 45.5 20.5 73.5c0 38 -12.167 68.833 -36.5 92.5s-56.5 35.5 -96.5 35.5c-44 0 -80 -12.5 -108 -37.5s-43.333 -58.833 -46 -101.5l-64 11
c4.66699 57.333 26.834 103.333 66.501 138s90.167 52 151.5 52c60.667 0 109.667 -17.333 147 -52s56 -79.667 56 -135c0 -30 -5 -56.667 -15 -80s-22.333 -41.666 -37 -54.999s-30.834 -27.166 -48.501 -41.499l-48.5 -39.5c-14.667 -12 -27 -28.5 -37 -49.5
s-15 -44.833 -15 -71.5h-67zM185.001 88.998h79v-89h-79v89z" />
    <glyph glyph-name="at" unicode="@" horiz-adv-x="909" 
d="M577 497l57.9971 0.000976562v-287c0 -19.333 6.16699 -36 18.5 -50s26.833 -21 43.5 -21c32 0 58 17.167 78 51.5s30 79.5 30 135.5c0 88 -33 161.833 -99 221.5s-148.333 89.5 -247 89.5c-101.333 0 -185.833 -33.5 -253.5 -100.5s-101.5 -150.5 -101.5 -250.5
c0 -105.333 33.167 -190.833 99.5 -256.5s153.166 -98.5 260.499 -98.5c48 0 92.333 6.16699 133 18.5s86.334 32.166 137.001 59.499l26 -55c-103.333 -51.333 -201.666 -77 -294.999 -77c-125.333 0 -226.666 37.5 -303.999 112.5s-116 173.833 -116 296.5
c0 116.667 39.333 213.334 118 290.001s177.334 115 296.001 115c116 0 212.5 -34.667 289.5 -104s115.5 -156.333 115.5 -261c0 -73.333 -15.167 -132.5 -45.5 -177.5s-70.833 -67.5 -121.5 -67.5c-24 0 -45.667 6.16699 -65 18.5s-33.333 28.833 -42 49.5
c-13.333 -24 -33.5 -42.833 -60.5 -56.5s-57.833 -20.5 -92.5 -20.5c-61.333 0 -110.5 19.667 -147.5 59s-55.5 91.666 -55.5 156.999c0 60.667 19.167 111.5 57.5 152.5s86.833 61.833 145.5 62.5c26 0.666992 52 -5 78 -17s46.667 -28 62 -48v59zM438.997 125.001
c43.333 0.666992 78.166 15.668 104.499 45.001s39.5 68.666 39.5 117.999s-13.167 88.666 -39.5 117.999s-61.166 44 -104.499 44s-78.166 -14.667 -104.499 -44s-39.5 -68.666 -39.5 -117.999c0 -50 13.167 -89.833 39.5 -119.5s61.166 -44.167 104.499 -43.5z" />
    <glyph glyph-name="A" unicode="A" horiz-adv-x="643" 
d="M563 0l-75 191h-333l-76 -191h-69l282 700h59l282 -700h-70zM180 253h283l-141 358z" />
    <glyph glyph-name="B" unicode="B" horiz-adv-x="604" 
d="M76 0l0.000976562 700h243c66.667 0 118.5 -15.833 155.5 -47.5s55.5 -75.834 55.5 -132.501c0 -30.667 -9.33301 -58.5 -28 -83.5s-41.334 -42.833 -68.001 -53.5c84 -27.333 126 -87.666 126 -180.999c0 -62 -19.5 -111.167 -58.5 -147.5s-93.833 -54.5 -164.5 -54.5
h-261zM143.001 404h176c94 0 141 39 141 117s-46.667 117 -140 117h-177v-234zM143.001 62h179c54.667 0 96.167 12 124.5 36s42.5 58.667 42.5 104s-14.167 80 -42.5 104s-69.833 36 -124.5 36h-179v-280z" />
    <glyph glyph-name="C" unicode="C" horiz-adv-x="705" 
d="M379 -8c-44 0 -85.665 7.5 -124.998 22.5s-74.833 36.667 -106.5 65s-56.834 65.833 -75.501 112.5s-28 99.334 -28 158.001s9.33301 111.334 28 158.001s44 84.167 76 112.5s67.667 50 107 65s80.666 22.5 123.999 22.5c72.667 0 134.667 -19.333 186 -58
s85.333 -91 102 -157l-66 -15c-12 53.333 -37.333 94.666 -76 123.999s-87.334 44 -146.001 44c-79.333 0 -143.333 -26 -192 -78s-73 -124.667 -73 -218s24.333 -166 73 -218s112.667 -78 192 -78c58.667 0 106.834 14.167 144.501 42.5s63.5 69.166 77.5 122.499l66 -13
c-18 -66 -52.5 -118.167 -103.5 -156.5s-112.5 -57.5 -184.5 -57.5z" />
    <glyph glyph-name="D" unicode="D" horiz-adv-x="664" 
d="M76 0v700h198c100.667 0 183.5 -31.5 248.5 -94.5s97.5 -148.167 97.5 -255.5s-32.5 -192.5 -97.5 -255.5s-147.833 -94.5 -248.5 -94.5h-198zM143 62l133 -0.00195312c77.333 0 142.166 24.333 194.499 73s78.5 120.334 78.5 215.001s-26.167 166.334 -78.5 215.001
s-117.166 73 -194.499 73h-133v-576z" />
    <glyph glyph-name="E" unicode="E" horiz-adv-x="560" 
d="M76 0v700h427v-62h-360v-234h295v-62h-295v-280h371v-62h-438z" />
    <glyph glyph-name="F" unicode="F" horiz-adv-x="556" 
d="M76 0v700h435v-62h-368v-242h302v-62h-302v-334h-67z" />
    <glyph glyph-name="G" unicode="G" horiz-adv-x="737" 
d="M378 -8c-59.333 0 -113.666 12.832 -162.999 38.499s-90.166 66.167 -122.499 121.5s-48.5 121.333 -48.5 198s16.167 142.667 48.5 198s73.166 95.833 122.499 121.5s103.333 38.5 162 38.5c74 0 137.333 -19.5 190 -58.5s86 -90.833 100 -155.5l-66 -15
c-10.667 52.667 -35.667 93.667 -75 123s-89 44 -149 44c-78 0 -141.167 -26 -189.5 -78s-72.5 -124.667 -72.5 -218s24.167 -166 72.5 -218s111.5 -78 189.5 -78c71.333 0 128 22 170 66s63.333 101.333 64 172h-264v62h328v-354h-60v121
c-16.667 -39.333 -46.834 -70.666 -90.501 -93.999s-92.5 -35 -146.5 -35z" />
    <glyph glyph-name="H" unicode="H" horiz-adv-x="680" 
d="M537 700h67v-700h-67v341h-394v-341h-67v700h67v-297h394v297z" />
    <glyph glyph-name="I" unicode="I" horiz-adv-x="219" 
d="M76 0v700h67v-700h-67z" />
    <glyph glyph-name="J" unicode="J" horiz-adv-x="327" 
d="M25 63c15.333 -6 33.668 -9.00098 55.001 -9.00098c36 0 62.167 10 78.5 30s24.5 54.667 24.5 104v512h68v-505c0 -67.333 -15.333 -117.666 -46 -150.999s-72.334 -50 -125.001 -50c-20.667 0 -39 2.66699 -55 8v61z" />
    <glyph glyph-name="K" unicode="K" horiz-adv-x="605" 
d="M517 0l-271 376l-103 -104v-272h-67v700h67v-338l330 338h91l-272 -276l303 -424h-78z" />
    <glyph glyph-name="L" unicode="L" horiz-adv-x="517" 
d="M76 0v700h67v-638h359v-62h-426z" />
    <glyph glyph-name="M" unicode="M" horiz-adv-x="822" 
d="M76 0v700h87l248 -601l248 601h87v-700h-69v572l-235 -572h-62l-235 572v-572h-69z" />
    <glyph glyph-name="N" unicode="N" horiz-adv-x="684" 
d="M76 0v700h81l383 -595v595h68v-700h-81l-383 593v-593h-68z" />
    <glyph glyph-name="O" unicode="O" horiz-adv-x="767" 
d="M383 -8c-98.667 0 -179.834 33.667 -243.501 101s-95.5 153 -95.5 257s31.833 189.667 95.5 257s144.834 101 243.501 101s180 -33.667 244 -101s96 -153 96 -257s-32 -189.667 -96 -257s-145.333 -101 -244 -101zM383 54c78.667 0 143.334 27.833 194.001 83.5
s76 126.5 76 212.5s-25.333 156.833 -76 212.5s-115.334 83.5 -194.001 83.5c-78 0 -142.333 -27.833 -193 -83.5s-76 -126.5 -76 -212.5s25.333 -156.833 76 -212.5s115 -83.5 193 -83.5z" />
    <glyph glyph-name="P" unicode="P" horiz-adv-x="580" 
d="M76 0v700h257c66.667 0 119.834 -18 159.501 -54s59.5 -83.667 59.5 -143s-19.833 -107 -59.5 -143s-92.834 -54 -159.501 -54h-190v-306h-67zM143 368l192 -0.00195312c46 0 82 11.833 108 35.5s39 56.834 39 99.501s-13 75.834 -39 99.501s-62 35.5 -108 35.5h-192
v-270z" />
    <glyph glyph-name="Q" unicode="Q" horiz-adv-x="767" 
d="M723 350c0 -112.667 -36.667 -203 -110 -271l72 -79l-42 -35l-73 81c-54.667 -36 -117 -54 -187 -54c-98.667 0 -179.834 33.667 -243.501 101s-95.5 153 -95.5 257s31.833 189.667 95.5 257s144.834 101 243.501 101s180 -33.667 244 -101s96 -153 96 -257zM383 54
c53.333 0 101.001 13.333 143.001 40l-146 161l42 36l147 -162c56 57.333 84 131 84 221c0 86 -25.333 156.833 -76 212.5s-115.334 83.5 -194.001 83.5c-78 0 -142.333 -27.833 -193 -83.5s-76 -126.5 -76 -212.5s25.333 -156.833 76 -212.5s115 -83.5 193 -83.5z" />
    <glyph glyph-name="R" unicode="R" horiz-adv-x="621" 
d="M606 0h-75l-209 326h-3h-176v-326h-67v700h243c65.333 0 117.833 -17 157.5 -51s59.5 -79.333 59.5 -136c0 -44 -12.5 -81.667 -37.5 -113s-59.5 -53 -103.5 -65zM143 638v-250h172c47.333 0 84.333 11 111 33s40 52.667 40 92s-13.333 70 -40 92s-63.667 33 -111 33
h-172z" />
    <glyph glyph-name="S" unicode="S" horiz-adv-x="583" 
d="M295 -8c-66.667 0 -124.164 19.3262 -172.497 57.9932s-79.166 90 -92.499 154l68 23c8 -52 30 -93.833 66 -125.5s79.667 -47.5 131 -47.5c54 0 97.167 11.833 129.5 35.5s48.5 55.167 48.5 94.5c0 28 -7.5 51.667 -22.5 71s-34.667 34.5 -59 45.5
s-51.166 20.667 -80.499 29s-58.666 17.333 -87.999 27s-56.166 20.834 -80.499 33.501s-44 30.834 -59 54.501s-22.5 52.167 -22.5 85.5c0 53.333 21.167 96.333 63.5 129s98.166 49 167.499 49c63.333 0 116.666 -15.667 159.999 -47s69 -72.666 77 -123.999l-61 -22
c-7.33301 40.667 -26.5 72.667 -57.5 96s-70.5 35 -118.5 35c-50.667 0 -90.5 -10.333 -119.5 -31s-43.5 -49 -43.5 -85c0 -24 7.66699 -44.167 23 -60.5s35.166 -29 59.499 -38s51.166 -17.167 80.499 -24.5s58.666 -16.166 87.999 -26.499s56.166 -22.666 80.499 -36.999
s44.166 -35.166 59.499 -62.499s23 -59.666 23 -96.999c0 -58 -22.667 -104.5 -68 -139.5s-105.333 -52.5 -180 -52.5z" />
    <glyph glyph-name="T" unicode="T" horiz-adv-x="564" 
d="M249 0v638h-229v62h524v-62h-228v-638h-67z" />
    <glyph glyph-name="U" unicode="U" horiz-adv-x="672" 
d="M336 -8c-78.667 0 -141.667 22.167 -189 66.5s-71 103.166 -71 176.499v465h68v-471c0 -52.667 17.5 -95 52.5 -127s81.5 -48 139.5 -48c58.667 0 105.5 15.833 140.5 47.5s52.5 74.167 52.5 127.5v471h67v-465c0 -73.333 -23.667 -132.166 -71 -176.499
s-110.333 -66.5 -189 -66.5z" />
    <glyph glyph-name="V" unicode="V" horiz-adv-x="626" 
d="M278 0l-268 700h69l234 -626l235 626h69l-268 -700h-71z" />
    <glyph glyph-name="W" unicode="W" horiz-adv-x="979" 
d="M238 0l-219 700h70l184 -626l186 626h63l184 -626l185 626h69l-217 -700h-70l-182 592l-184 -592h-69z" />
    <glyph glyph-name="X" unicode="X" horiz-adv-x="588" 
d="M572 0h-70l-208 323l-208 -323h-70l243 378l-207 322h70l172 -268l173 268h70l-208 -322z" />
    <glyph glyph-name="Y" unicode="Y" horiz-adv-x="578" 
d="M255 0v294l-250 406h79l205 -341l204 341h80l-251 -406v-294h-67z" />
    <glyph glyph-name="Z" unicode="Z" horiz-adv-x="587" 
d="M25 0v62l443 576h-419v62h498v-62l-435 -576h435v-62h-522z" />
    <glyph glyph-name="bracketleft" unicode="[" horiz-adv-x="296" 
d="M76 -139v889h186v-50h-130v-789h130v-50h-186z" />
    <glyph glyph-name="backslash" unicode="\" horiz-adv-x="398" 
d="M388 -1h-63l-315 701h64z" />
    <glyph glyph-name="bracketright" unicode="]" horiz-adv-x="296" 
d="M220 -139h-186v50h130v789h-130v50h186v-889z" />
    <glyph glyph-name="asciicircum" unicode="^" horiz-adv-x="526" 
d="M39 429l200 271h48l200 -271h-71l-153 213l-153 -213h-71z" />
    <glyph glyph-name="underscore" unicode="_" horiz-adv-x="500" 
d="M25 -56v56h450v-56h-450z" />
    <glyph glyph-name="a" unicode="a" 
d="M258 512c58.667 0 106.502 -16.667 143.502 -50s55.5 -76.666 55.5 -129.999v-332h-63v92c-15.333 -30.667 -39 -55 -71 -73s-67.667 -27 -107 -27c-50.667 0 -91.834 13.667 -123.501 41s-47.5 63 -47.5 107c0 48 20.333 85.5 61 112.5s103 44.833 187 53.5l101 10v14
c0 38 -12.5 68.167 -37.5 90.5s-57.833 33.5 -98.5 33.5c-38.667 0 -70.334 -10.667 -95.001 -32s-39.334 -50.333 -44.001 -87l-61 12c7.33301 49.333 29.333 89.166 66 119.499s81.334 45.5 134.001 45.5zM221.002 50c54.667 0 97.167 16.001 127.5 48.001
s45.5 77 45.5 135v30l-99 -10c-122.667 -13.333 -184 -51 -184 -113c0 -26.667 10.333 -48.334 31 -65.001s47 -25 79 -25z" />
    <glyph glyph-name="b" unicode="b" horiz-adv-x="599" 
d="M311 -8c-39.333 0 -75.502 8.66699 -108.502 26s-55.167 38.333 -66.5 63v-81h-63v708h63v-285c16.667 26 41.334 47.333 74.001 64s66.334 25 101.001 25c77.333 0 137.5 -24.5 180.5 -73.5s64.5 -111.167 64.5 -186.5s-21.5 -137.5 -64.5 -186.5
s-103.167 -73.5 -180.5 -73.5zM308.998 50c54.667 0 98.334 18.333 131.001 55s49 85.667 49 147s-16.333 110.333 -49 147s-76.334 55 -131.001 55s-98.334 -18.333 -131.001 -55s-49 -85.667 -49 -147s16.333 -110.333 49 -147s76.334 -55 131.001 -55z" />
    <glyph glyph-name="c" unicode="c" horiz-adv-x="542" 
d="M290 -8c-74.667 0 -134.501 23.668 -179.501 71.001s-67.5 110.333 -67.5 189s22.5 141.667 67.5 189s104.833 71 179.5 71c54.667 0 101.334 -14.5 140.001 -43.5s62.667 -67.167 72 -114.5l-62 -13c-6.66699 33.333 -23.667 60.5 -51 81.5s-60.333 31.5 -99 31.5
c-54.667 0 -98.5 -18.333 -131.5 -55s-49.5 -85.667 -49.5 -147s16.5 -110.333 49.5 -147s76.833 -55 131.5 -55c40 0 73.5 10.167 100.5 30.5s44.167 49.166 51.5 86.499l62 -12c-11.333 -51.333 -36 -91.333 -74 -120s-84.667 -43 -140 -43z" />
    <glyph glyph-name="d" unicode="d" horiz-adv-x="599" 
d="M288 -8c-77.333 0 -137.502 24.5 -180.502 73.5s-64.5 111.167 -64.5 186.5s21.5 137.5 64.5 186.5s103.167 73.5 180.5 73.5c34.667 0 68.334 -8.33301 101.001 -25s57.334 -38 74.001 -64v285h63v-708h-63v81c-11.333 -24.667 -33.5 -45.667 -66.5 -63
s-69.167 -26 -108.5 -26zM289.998 50c54.667 0 98.334 18.333 131.001 55s49 85.667 49 147s-16.333 110.333 -49 147s-76.334 55 -131.001 55s-98.334 -18.333 -131.001 -55s-49 -85.667 -49 -147s16.333 -110.333 49 -147s76.334 -55 131.001 -55z" />
    <glyph glyph-name="e" unicode="e" horiz-adv-x="562" 
d="M519 279c0 -12.667 -0.666016 -23.666 -1.99902 -32.999h-410c0.666992 -58 17.334 -105.167 50.001 -141.5s74.667 -54.5 126 -54.5c43.333 0 79.166 9.66699 107.499 29s46.166 46.666 53.499 81.999l60 -12c-11.333 -50 -36.333 -88.667 -75 -116s-87 -41 -145 -41
c-71.333 0 -129.333 24.5 -174 73.5s-67 111.167 -67 186.5s22.333 137.5 67 186.5s102.667 73.5 174 73.5c68.667 0 125 -21.833 169 -65.5s66 -99.5 66 -167.5zM112.001 304.001h341.999c-5.33301 44.667 -23 80.834 -53 108.501s-69 41.5 -117 41.5
c-44.667 0 -82.167 -13.333 -112.5 -40s-50.166 -63.334 -59.499 -110.001z" />
    <glyph glyph-name="f" unicode="f" horiz-adv-x="358" 
d="M126 0v446h-88v58h88v52c0 52 12.333 92.167 37 120.5s57 42.5 97 42.5c24 0 45.333 -2.33301 64 -7l-2 -60c-15.333 6 -33.333 9 -54 9c-23.333 0 -42.333 -8.66699 -57 -26s-22 -40.333 -22 -69v-62h134v-58h-134v-446h-63z" />
    <glyph glyph-name="g" unicode="g" horiz-adv-x="594" 
d="M459 504l61.999 0.000976562v-485c0 -62 -21.167 -112.333 -63.5 -151s-96.833 -58 -163.5 -58c-58.667 0 -108.167 14 -148.5 42s-63.833 64.333 -70.5 109l63 11c2 -30.667 17.667 -55.834 47 -75.501s65.666 -29.5 108.999 -29.5c48 0 87.5 13.5 118.5 40.5
s46.5 62.167 46.5 105.5v78c-11.333 -23.333 -33.166 -42.333 -65.499 -57s-68.166 -22 -107.499 -22c-76.667 0 -136.334 23.5 -179.001 70.5s-64 106.833 -64 179.5s21.333 132.5 64 179.5s102 70.5 178 70.5c34.667 0 68.334 -8 101.001 -24s57 -36.333 73 -61v77z
M287.999 70.001c53.333 0 96.166 17.5 128.499 52.5s48.5 81.5 48.5 139.5s-16.167 104.5 -48.5 139.5s-75.166 52.5 -128.499 52.5c-54 0 -97.167 -17.5 -129.5 -52.5s-48.5 -81.5 -48.5 -139.5s16.167 -104.5 48.5 -139.5s75.5 -52.5 129.5 -52.5z" />
    <glyph glyph-name="h" unicode="h" horiz-adv-x="577" 
d="M73 0l0.00195312 708h63v-314c38 78.667 97.667 118 179 118c57.333 0 103.166 -16.167 137.499 -48.5s51.5 -75.5 51.5 -129.5v-334h-63v326c0 40 -11.833 71.333 -35.5 94s-56.834 34 -99.501 34c-51.333 0 -92.5 -21.667 -123.5 -65s-46.5 -101.333 -46.5 -174v-215
h-63z" />
    <glyph glyph-name="i" unicode="i" horiz-adv-x="209" 
d="M66 708h78v-96h-78v96zM73 0v504h63v-504h-63z" />
    <glyph glyph-name="j" unicode="j" horiz-adv-x="209" 
d="M66 708h78v-96h-78v96zM6 -190l-14 1l-2 57h10c48.667 0 73 31.333 73 94v542h63v-549c0 -42 -12 -76.667 -36 -104s-55.333 -41 -94 -41z" />
    <glyph glyph-name="k" unicode="k" horiz-adv-x="514" 
d="M417 0l-209 262l-71 -64v-198h-64v708h64v-424l256 220h88l-223 -198l241 -306h-82z" />
    <glyph glyph-name="l" unicode="l" horiz-adv-x="209" 
d="M73 0v708h63v-708h-63z" />
    <glyph glyph-name="m" unicode="m" horiz-adv-x="868" 
d="M73 0v503.999h63v-105c12 34.667 31.167 62.167 57.5 82.5s58.833 30.5 97.5 30.5c43.333 0 80.333 -9.83301 111 -29.5s50 -47.167 58 -82.5c14 33.333 35.167 60.333 63.5 81s60.833 31 97.5 31c54 0 96.5 -15.667 127.5 -47s46.5 -74.333 46.5 -129v-336h-63v328
c0 38 -10.667 68.5 -32 91.5s-51 34.5 -89 34.5c-46 0 -81.833 -18.833 -107.5 -56.5s-38.5 -86.5 -38.5 -146.5v-251h-63v328c0 38.667 -10.5 69.334 -31.5 92.001s-50.5 34 -88.5 34c-46 0 -81.833 -18.833 -107.5 -56.5s-38.5 -86.5 -38.5 -146.5v-251h-63z" />
    <glyph glyph-name="n" unicode="n" horiz-adv-x="567" 
d="M73 0l-0.000976562 504.001h63v-105c19.333 34.667 44.5 62.167 75.5 82.5s65.833 30.5 104.5 30.5c52 0 94.667 -16.167 128 -48.5s50 -74.833 50 -127.5v-336h-63v328c0 37.333 -11.167 67.666 -33.5 90.999s-52.5 35 -90.5 35c-51.333 0 -92.666 -21 -123.999 -63
s-47 -98.667 -47 -170v-221h-63z" />
    <glyph glyph-name="o" unicode="o" horiz-adv-x="592" 
d="M296 -8c-74 0 -134.667 24.333 -182 73s-71 111 -71 187s23.667 138.333 71 187s108 73 182 73c73.333 0 133.833 -24.333 181.5 -73s71.5 -111 71.5 -187s-23.833 -138.333 -71.5 -187s-108.167 -73 -181.5 -73zM296 50c55.333 0 100.333 18.833 135 56.5
s52 86.167 52 145.5s-17.333 107.833 -52 145.5s-79.667 56.5 -135 56.5c-56 0 -101.167 -18.833 -135.5 -56.5s-51.5 -86.167 -51.5 -145.5s17.167 -107.833 51.5 -145.5s79.5 -56.5 135.5 -56.5z" />
    <glyph glyph-name="p" unicode="p" horiz-adv-x="599" 
d="M73 -182v686h63v-81c13.333 24.667 36.5 45.667 69.5 63s68.167 26 105.5 26c77.333 0 137.5 -24.5 180.5 -73.5s64.5 -111.167 64.5 -186.5s-21.333 -137.5 -64 -186.5s-102.667 -73.5 -180 -73.5c-33.333 0 -66.5 8.33301 -99.5 25s-58.5 38 -76.5 64v-263h-63zM309 50
c54.667 0 98.5 18.333 131.5 55s49.5 85.667 49.5 147s-16.5 110.333 -49.5 147s-76.833 55 -131.5 55c-54 0 -97.333 -18.5 -130 -55.5s-49 -85.833 -49 -146.5s16.333 -109.5 49 -146.5s76 -55.5 130 -55.5z" />
    <glyph glyph-name="q" unicode="q" horiz-adv-x="599" 
d="M526 -182h-63v263c-18 -26 -43.5 -47.333 -76.5 -64s-66.167 -25 -99.5 -25c-77.333 0 -137.333 24.5 -180 73.5s-64 111.167 -64 186.5s21.5 137.5 64.5 186.5s103.167 73.5 180.5 73.5c37.333 0 72.5 -8.66699 105.5 -26s56.167 -38.333 69.5 -63v81h63v-686zM290 50
c54 0 97.333 18.5 130 55.5s49 85.833 49 146.5s-16.333 109.5 -49 146.5s-76 55.5 -130 55.5c-54.667 0 -98.5 -18.333 -131.5 -55s-49.5 -85.667 -49.5 -147s16.5 -110.333 49.5 -147s76.833 -55 131.5 -55z" />
    <glyph glyph-name="r" unicode="r" horiz-adv-x="371" 
d="M352 442c-20 8 -42 12 -66 12c-44 0 -80 -22.5 -108 -67.5s-42 -108.833 -42 -191.5v-195h-63v504h63v-107c15.333 33.333 38 60.833 68 82.5s60.667 32.5 92 32.5c22 0 42 -3 60 -9z" />
    <glyph glyph-name="s" unicode="s" horiz-adv-x="463" 
d="M239 -8c-56.667 0 -102.171 14.166 -136.504 42.499s-57.166 62.5 -68.499 102.5l56 28c26.667 -76.667 76.334 -115 149.001 -115c33.333 0 60.833 8.66699 82.5 26s32.5 38 32.5 62c0 26.667 -10.167 47.5 -30.5 62.5s-45.166 25.833 -74.499 32.5
s-58.666 14 -87.999 22s-54.166 22.333 -74.499 43s-30.5 48.667 -30.5 84c0 40 15.833 71.667 47.5 95s74.167 35 127.5 35c42.667 0 80.667 -11.5 114 -34.5s55 -52.833 65 -89.5l-55 -25c-6.66699 26.667 -22 48.5 -46 65.5s-51.333 25.5 -82 25.5
c-33.333 0 -59.333 -6.16699 -78 -18.5s-28 -30.166 -28 -53.499c0 -21.333 10.333 -38 31 -50s45.5 -21.167 74.5 -27.5s58.167 -14 87.5 -23s54.166 -25.5 74.499 -49.5s30.5 -55.333 30.5 -94c0 -44 -16.5 -79.333 -49.5 -106s-76.5 -40 -130.5 -40z" />
    <glyph glyph-name="t" unicode="t" horiz-adv-x="357" 
d="M324 3c-22 -7.33301 -47.667 -11 -77 -11c-41.333 0 -74 12.5 -98 37.5s-36 62.833 -36 113.5v303h-98v58h98v155h63v-155h139v-58h-139v-313c0 -27.333 7 -48 21 -62s33.333 -21 58 -21c25.333 0 47 4.66699 65 14z" />
    <glyph glyph-name="u" unicode="u" horiz-adv-x="567" 
d="M494 504l0.000976562 -504.001h-63v105c-19.333 -34.667 -44.5 -62.167 -75.5 -82.5s-65.833 -30.5 -104.5 -30.5c-52 0 -94.667 16.167 -128 48.5s-50 74.833 -50 127.5v336h63v-328c0 -37.333 11.167 -67.666 33.5 -90.999s52.5 -35 90.5 -35
c51.333 0 92.666 21 123.999 63s47 98.667 47 170v221h63z" />
    <glyph glyph-name="v" unicode="v" horiz-adv-x="471" 
d="M200 0l-185 504h66l154 -431l154 431h67l-185 -504h-71z" />
    <glyph glyph-name="w" unicode="w" horiz-adv-x="751" 
d="M183 0l-154 504h66l121 -416l128 416h63l127 -416l121 416h67l-154 -504h-67l-126 412l-126 -412h-66z" />
    <glyph glyph-name="x" unicode="x" horiz-adv-x="468" 
d="M448 0h-73l-141 208l-141 -208h-73l178 262l-164 242h73l127 -188l127 188h73l-163 -242z" />
    <glyph glyph-name="y" unicode="y" horiz-adv-x="486" 
d="M407 504h64l-264 -686h-64l70 182l-198 504h68l163 -419z" />
    <glyph glyph-name="z" unicode="z" horiz-adv-x="487" 
d="M35 0v48l330 398h-313v58h397v-48l-327 -398h327v-58h-414z" />
    <glyph glyph-name="braceleft" unicode="{" horiz-adv-x="310" 
d="M238 -130c-30.667 0 -55.168 10.166 -73.501 30.499s-27.5 47.166 -27.5 80.499v208c0 34 -6.66699 58.333 -20 73s-35.333 22.334 -66 23.001v54c30.667 0.666992 52.667 8.33398 66 23.001s20 38.667 20 72v209c0 33.333 9.16699 60 27.5 80s42.833 30 73.5 30h45v-53
h-31c-38 0 -57 -19 -57 -57v-225c0 -54 -23 -89.333 -69 -106c22.667 -8.66699 39.834 -21 51.501 -37s17.5 -39.333 17.5 -70v-225c0 -37.333 19 -56 57 -56h31v-54h-45z" />
    <glyph glyph-name="bar" unicode="|" horiz-adv-x="219" 
d="M76 -50v800h67v-800h-67z" />
    <glyph glyph-name="braceright" unicode="}" horiz-adv-x="310" 
d="M72 -130l-45.001 0.000976562v54h31c38 0 57 18.667 57 56v225c0 30.667 5.83301 54 17.5 70s28.834 28.333 51.501 37c-46 16.667 -69 52 -69 106v225c0 38 -19 57 -57 57h-31v53h45c30.667 0 55.167 -10 73.5 -30s27.5 -46.667 27.5 -80v-209
c0 -33.333 6.66699 -57.333 20 -72s35.333 -22.334 66 -23.001v-54c-30.667 -0.666992 -52.667 -8.33398 -66 -23.001s-20 -39 -20 -73v-208c0 -33.333 -9.16699 -60.166 -27.5 -80.499s-42.833 -30.5 -73.5 -30.5z" />
    <glyph glyph-name="asciitilde" unicode="~" horiz-adv-x="536" 
d="M362 264c-29.333 0 -60.666 11.333 -93.999 34c-0.666992 0.666992 -6 4.5 -16 11.5s-16.333 11.333 -19 13s-8 4.5 -16 8.5s-15.333 6.66699 -22 8s-13.667 2 -21 2c-18.667 0 -34.5 -5.83301 -47.5 -17.5s-20.833 -28.167 -23.5 -49.5l-53 9
c2.66699 34.667 15.167 62.334 37.5 83.001s51.166 31 86.499 31c29.333 0 60.666 -11.333 93.999 -34c0.666992 -0.666992 6 -4.5 16 -11.5s16.333 -11.333 19 -13s8 -4.5 16 -8.5s15.333 -6.66699 22 -8s13.667 -2 21 -2c18.667 0 34.5 5.83301 47.5 17.5
s20.833 28.167 23.5 49.5l53 -9c-2.66699 -34.667 -15.167 -62.334 -37.5 -83.001s-51.166 -31 -86.499 -31z" />
    <glyph glyph-name="uni00A0" unicode="&#xa0;" horiz-adv-x="242" 
 />
    <glyph glyph-name="exclamdown" unicode="&#xa1;" horiz-adv-x="239" 
d="M80 407v89h79v-89h-79zM98 312h43l22 -516h-87z" />
    <glyph glyph-name="cent" unicode="&#xa2;" horiz-adv-x="542" 
d="M504 155c-10.667 -47.333 -32.167 -84.832 -64.5 -112.499s-72.833 -44.167 -121.5 -49.5v-114l-67 1v114c-64 8.66699 -114.667 36 -152 82s-56 104.667 -56 176s18.667 130 56 176s88 73.333 152 82v116h67v-115c48 -5.33301 88.5 -22 121.5 -50
s53.833 -63.667 62.5 -107l-62 -13c-6.66699 33.333 -23.667 60.5 -51 81.5s-60.333 31.5 -99 31.5c-54.667 0 -98.5 -18.333 -131.5 -55s-49.5 -85.667 -49.5 -147s16.5 -110.333 49.5 -147s76.833 -55 131.5 -55c40 0 73.5 10.167 100.5 30.5s44.167 49.166 51.5 86.499z
" />
    <glyph glyph-name="sterling" unicode="&#xa3;" horiz-adv-x="550" 
d="M479 134l51.998 -31.001c-20 -34 -41.5 -59.667 -64.5 -77s-51.5 -26 -85.5 -26h-319v62c32.667 41.333 56.167 76 70.5 104s21.5 59 21.5 93c0 19.333 -3.33301 40 -10 62h-106v62h83c-20.667 50.667 -31 92 -31 124c0 62 18.667 111 56 147s86 54 146 54
c48.667 0 90.834 -13.167 126.501 -39.5s59.834 -61.166 72.501 -104.499l-63 -22c-12 35.333 -28.833 61.5 -50.5 78.5s-50.167 25.5 -85.5 25.5c-40 0 -72 -12 -96 -36s-36 -58.667 -36 -104c0 -28.667 10.667 -69.667 32 -123h208v-62h-186
c6.66699 -22 10 -43.333 10 -64c0 -32.667 -8.83301 -68.5 -26.5 -107.5s-38.5 -68.167 -62.5 -87.5h246c16.667 0 31.5 3.66699 44.5 11s22.333 14.833 28 22.5s14.167 20.5 25.5 38.5z" />
    <glyph glyph-name="currency" unicode="&#xa4;" horiz-adv-x="661" 
d="M585 252c0 -61.333 -16.001 -114.333 -48.001 -159l81 -81l-48 -47l-79 80c-43.333 -35.333 -96.333 -53 -159 -53c-62 0 -115.667 18 -161 54l-80 -81l-48 47l83 83c-31.333 44 -47 96.333 -47 157s15.667 113 47 157l-83 84l47 47l81 -81
c44.667 35.333 98.334 53 161.001 53c60.667 0 113.667 -17.333 159 -52l80 80l47 -47l-81 -82c32 -44.667 48 -97.667 48 -159zM331.999 50c55.333 0 100.333 18.833 135 56.5s52 86.167 52 145.5s-17.333 107.833 -52 145.5s-79.667 56.5 -135 56.5
c-56 0 -101.167 -18.833 -135.5 -56.5s-51.5 -86.167 -51.5 -145.5s17.167 -107.833 51.5 -145.5s79.5 -56.5 135.5 -56.5z" />
    <glyph glyph-name="yen" unicode="&#xa5;" horiz-adv-x="578" 
d="M573 700l-215 -347h156v-62h-192v-109h192v-62h-192v-120h-67v120h-190v62h190v109h-190v62h154l-214 347h79l205 -341l204 341h80z" />
    <glyph glyph-name="brokenbar" unicode="&#xa6;" horiz-adv-x="219" 
d="M76 401v349h67v-349h-67zM76 -50v349h67v-349h-67z" />
    <glyph glyph-name="section" unicode="&#xa7;" horiz-adv-x="580" 
d="M455 116c46.667 -32 69.999 -76.001 69.999 -132.001c0 -52.667 -20.667 -94.834 -62 -126.501s-96.333 -47.5 -165 -47.5c-61.333 0 -114.166 17.5 -158.499 52.5s-72.5 81.5 -84.5 139.5l56 21c8.66699 -47.333 30.167 -85.333 64.5 -114s75.166 -43 122.499 -43
c49.333 0 89 10.667 119 32s45 50 45 86c0 23.333 -7 43.333 -21 60s-32.167 29.834 -54.5 39.501s-46.833 18.334 -73.5 26.001s-53.5 16 -80.5 25s-51.667 19.5 -74 31.5s-40.5 29 -54.5 51s-21 48 -21 78c0 48.667 26.333 87.667 79 117
c-52.667 30.667 -79 74.334 -79 131.001c0 48 20 87.5 60 118.5s90.667 46.5 152 46.5c58 0 107 -14.167 147 -42.5s63.667 -65.833 71 -112.5l-53 -20c-6.66699 37.333 -24.667 66.5 -54 87.5s-66.333 31.5 -111 31.5c-45.333 0 -81.666 -10 -108.999 -30
s-41 -46.333 -41 -79c0 -22.667 7 -42 21 -58s32.167 -28.5 54.5 -37.5s47 -17 74 -24s54 -15 81 -24s51.667 -19.667 74 -32s40.5 -30 54.5 -53s21 -50.5 21 -82.5c0 -46.667 -23.333 -85.334 -70 -116.001zM144.999 294.999c0 -25.333 9.16602 -46.667 27.499 -64
s38.333 -29.5 60 -36.5s51.334 -15.833 89.001 -26.5s66.5 -20 86.5 -28c36 21.333 54 52 54 92c0 20 -4.83301 37.5 -14.5 52.5s-24 27.5 -43 37.5s-37.5 18 -55.5 24s-41.167 13.167 -69.5 21.5s-50.5 15.5 -66.5 21.5c-45.333 -18.667 -68 -50 -68 -94z" />
    <glyph glyph-name="copyright" unicode="&#xa9;" horiz-adv-x="805" 
d="M402 -8c-102.667 0 -188 34 -256 102s-102 153.333 -102 256s34 188 102 256s153.333 102 256 102c103.333 0 189 -34 257 -102s102 -153.333 102 -256s-34 -188 -102 -256s-153.667 -102 -257 -102zM402 39c88.667 0 162.334 29.5 221.001 88.5s88 133.167 88 222.5
s-29.333 163.5 -88 222.5s-132.334 88.5 -221.001 88.5s-162.167 -29.5 -220.5 -88.5s-87.5 -133.167 -87.5 -222.5s29.167 -163.5 87.5 -222.5s131.833 -88.5 220.5 -88.5zM408 147c-57.333 0 -103.833 18.8311 -139.5 56.498s-53.5 86.834 -53.5 147.501
c0 61.333 17.833 110.833 53.5 148.5s82.167 56.5 139.5 56.5c42.667 0 79 -11.667 109 -35s49.333 -55 58 -95l-49 -11c-5.33301 30.667 -18.333 54.167 -39 70.5s-47 24.5 -79 24.5c-44 0 -78.667 -14.167 -104 -42.5s-38 -67.166 -38 -116.499
c0 -48.667 12.667 -87.167 38 -115.5s60 -42.5 104 -42.5c64.667 0 104 31 118 93l49 -10c-10 -40 -29.833 -71.5 -59.5 -94.5s-65.5 -34.5 -107.5 -34.5z" />
    <glyph glyph-name="ordfeminine" unicode="&#xaa;" horiz-adv-x="339" 
d="M165 708c38 0 69.002 -10.6641 93.002 -31.9971s36 -49.333 36 -84v-208h-48v55c-9.33301 -18.667 -23.833 -33.334 -43.5 -44.001s-41.5 -16 -65.5 -16c-32 0 -58 8.66699 -78 26s-30 39.666 -30 66.999c0 60.667 51.333 96 154 106l63 6v7
c0 23.333 -7.5 41.833 -22.5 55.5s-34.5 20.5 -58.5 20.5c-22.667 0 -41.5 -6.5 -56.5 -19.5s-23.833 -30.5 -26.5 -52.5l-45 8c5.33301 31.333 19.666 56.666 42.999 75.999s51.666 29 84.999 29zM144.002 420.003c32 0 57.001 9.66699 75.001 29s27 46.333 27 81v16
l-63 -7c-70 -8 -105 -30 -105 -66c0 -16 6.16699 -28.833 18.5 -38.5s28.166 -14.5 47.499 -14.5z" />
    <glyph glyph-name="guillemotleft" unicode="&#xab;" horiz-adv-x="526" 
d="M272 83l-244 195v42l244 195v-68l-187 -148l187 -148v-68zM491 83l-244 195v42l244 195v-68l-187 -148l187 -148v-68z" />
    <glyph glyph-name="logicalnot" unicode="&#xac;" horiz-adv-x="571" 
d="M448 152v180h-395v58h458v-238h-63z" />
    <glyph glyph-name="uni00AD" unicode="&#xad;" horiz-adv-x="340" 
d="M30 260v56h280v-56h-280z" />
    <glyph glyph-name="registered" unicode="&#xae;" horiz-adv-x="805" 
d="M402 -8c-102.667 0 -188 34 -256 102s-102 153.333 -102 256s34 188 102 256s153.333 102 256 102c103.333 0 189 -34 257 -102s102 -153.333 102 -256s-34 -188 -102 -256s-153.667 -102 -257 -102zM402 39c88.667 0 162.334 29.5 221.001 88.5s88 133.167 88 222.5
s-29.333 163.5 -88 222.5s-132.334 88.5 -221.001 88.5s-162.167 -29.5 -220.5 -88.5s-87.5 -133.167 -87.5 -222.5s29.167 -163.5 87.5 -222.5s131.833 -88.5 220.5 -88.5zM579 158h-56l-116 181h-91v-181h-49v401h141c38 0 68.667 -10.167 92 -30.5s35 -46.833 35 -79.5
c0 -24.667 -6.66699 -46 -20 -64s-32 -30.667 -56 -38zM316 512v-126h90c52 0 78 21 78 63s-26 63 -78 63h-90z" />
    <glyph glyph-name="degree" unicode="&#xb0;" horiz-adv-x="334" 
d="M166 465c-33.333 0.666992 -62 13 -86 37s-36 52.667 -36 86c0 34.667 12 64 36 88s52.667 35.667 86 35c34 0.666992 63.167 -11 87.5 -35s36.5 -53.333 36.5 -88c0 -33.333 -12.167 -62 -36.5 -86s-53.5 -36.333 -87.5 -37zM166 518c20 0 36.667 6.66699 50 20
s20 30 20 50c0 19.333 -6.66699 35.666 -20 48.999s-30 20 -50 20c-19.333 0 -35.5 -6.66699 -48.5 -20s-19.5 -29.666 -19.5 -48.999c0 -20 6.5 -36.667 19.5 -50s29.167 -20 48.5 -20z" />
    <glyph glyph-name="plusminus" unicode="&#xb1;" horiz-adv-x="551" 
d="M516 366v-57h-212v-211h-56v212h-213v57h212v211h56v-212h213zM506 0h-460v56h460v-56z" />
    <glyph glyph-name="uni00B2" unicode="&#xb2;" horiz-adv-x="327" 
d="M31 375l-0.000976562 47.999l130 111c50 42 75 80 75 114c0 20 -6.33301 36 -19 48s-29.667 18 -51 18c-26 0 -45.667 -8.33301 -59 -25s-18.666 -39 -15.999 -67l-54 5c-2.66699 40.667 8 73.667 32 99s56.333 38 97 38c38.667 0 69.667 -10.667 93 -32
s35 -49.333 35 -84c0 -45.333 -32 -94.666 -96 -147.999l-90 -75h186v-50h-263z" />
    <glyph glyph-name="uni00B3" unicode="&#xb3;" horiz-adv-x="328" 
d="M163 371c-38 0 -69.834 10.1689 -95.501 30.502s-40.167 47.166 -43.5 80.499l53 8c2.66699 -20.667 11.834 -37.334 27.501 -50.001s35.167 -19 58.5 -19c25.333 0 45.666 6.83301 60.999 20.5s23 32.167 23 55.5c0 24 -7.16699 42.5 -21.5 55.5
s-34.166 19.5 -59.499 19.5c-16 0 -30 -4 -42 -12l-25 37l117 115h-181v48h248v-48l-106 -102c37.333 3.33301 68 -5.5 92 -26.5s36 -50.167 36 -87.5c0 -38 -12.833 -68.333 -38.5 -91s-60.167 -34 -103.5 -34z" />
    <glyph glyph-name="uni00B5" unicode="&#xb5;" horiz-adv-x="562" 
d="M426 504l63 -0.000976562v-504h-63v105c-19.333 -34.667 -44.5 -62.167 -75.5 -82.5s-65.833 -30.5 -104.5 -30.5c-45.333 0 -83.666 18.333 -114.999 55v-237h-63v694h63v-328c0 -37.333 11.167 -67.666 33.5 -90.999s52.5 -35 90.5 -35c51.333 0 92.666 21 123.999 63
s47 98.667 47 170v221z" />
    <glyph glyph-name="paragraph" unicode="&#xb6;" horiz-adv-x="660" 
d="M231 -182v536c-51.333 0 -95 16.833 -131 50.5s-54 74.5 -54 122.5s18 88.833 54 122.5s79.667 50.5 131 50.5h378v-62h-67v-820h-67v820h-177v-820h-67z" />
    <glyph glyph-name="periodcentered" unicode="&#xb7;" horiz-adv-x="243" 
d="M74 393h79v-89h-79v89z" />
    <glyph glyph-name="uni00B9" unicode="&#xb9;" horiz-adv-x="203" 
d="M109 375l-0.000976562 325c-30 -20 -56.333 -33 -79 -39v51c26.667 8 56.334 24 89.001 48h43v-385h-53z" />
    <glyph glyph-name="ordmasculine" unicode="&#xba;" horiz-adv-x="381" 
d="M191 379c-47.333 0 -86.166 15.332 -116.499 45.999s-45.5 70.334 -45.5 119.001c0 48 15.167 87.333 45.5 118s69.166 46 116.499 46c46.667 0 85.167 -15.333 115.5 -46s45.5 -70 45.5 -118s-15.167 -87.5 -45.5 -118.5s-68.833 -46.5 -115.5 -46.5zM191 421.999
c32.667 0 59.334 11.333 80.001 34s31 52 31 88c0 35.333 -10.333 64.333 -31 87s-47.334 34 -80.001 34c-33.333 0 -60.333 -11.333 -81 -34s-31 -51.667 -31 -87c0 -36 10.167 -65.333 30.5 -88s47.5 -34 81.5 -34z" />
    <glyph glyph-name="guillemotright" unicode="&#xbb;" horiz-adv-x="542" 
d="M35 83v68l187 148l-187 148v68l244 -195v-42zM270 83v68l187 148l-187 148v68l244 -195v-42z" />
    <glyph glyph-name="onequarter" unicode="&#xbc;" horiz-adv-x="761" 
d="M109 315l-0.000976562 325c-30 -20 -56.333 -33 -79 -39v51c26.667 8 56.334 24 89.001 48h43v-385h-53zM94.999 0l468 700h61l-468 -700h-61zM622.999 0v90h-203v50l196 245h64v-245h57v-50h-57v-90h-57zM479.999 140h143v180z" />
    <glyph glyph-name="onehalf" unicode="&#xbd;" horiz-adv-x="788" 
d="M109 315l-0.000976562 325c-30 -20 -56.333 -33 -79 -39v51c26.667 8 56.334 24 89.001 48h43v-385h-53zM90.999 0l468 700h61l-468 -700h-61zM491.999 0l-0.000976562 47.999l130 111c50 42 75 80 75 114c0 20 -6.33301 36 -19 48s-29.667 18 -51 18
c-26 0 -45.667 -8.33301 -59 -25s-18.666 -39 -15.999 -67l-54 5c-2.66699 40.667 8 73.667 32 99s56.333 38 97 38c38.667 0 69.667 -10.667 93 -32s35 -49.333 35 -84c0 -45.333 -32 -94.666 -96 -147.999l-90 -75h186v-50h-263z" />
    <glyph glyph-name="threequarters" unicode="&#xbe;" horiz-adv-x="831" 
d="M163 311c-38 0 -69.834 10.1689 -95.501 30.502s-40.167 47.166 -43.5 80.499l53 8c2.66699 -20.667 11.834 -37.334 27.501 -50.001s35.167 -19 58.5 -19c25.333 0 45.666 6.83301 60.999 20.5s23 32.167 23 55.5c0 24 -7.16699 42.5 -21.5 55.5
s-34.166 19.5 -59.499 19.5c-16 0 -30 -4 -42 -12l-25 37l117 115h-181v48h248v-48l-106 -102c37.333 3.33301 68 -5.5 92 -26.5s36 -50.167 36 -87.5c0 -38 -12.833 -68.333 -38.5 -91s-60.167 -34 -103.5 -34zM150.999 0.00195312l468 700h61l-468 -700h-61z
M692.999 0.00195312v90h-203v50l196 245h64v-245h57v-50h-57v-90h-57zM549.999 140.002h143v180z" />
    <glyph glyph-name="questiondown" unicode="&#xbf;" horiz-adv-x="434" 
d="M283 407h-79v89h79v-89zM277 312c0 -36.667 -6.83398 -68.498 -20.501 -95.498s-30.167 -48.667 -49.5 -65s-38.666 -31.833 -57.999 -46.5s-35.833 -32.5 -49.5 -53.5s-20.5 -45.5 -20.5 -73.5c0 -38 12.167 -68.833 36.5 -92.5s56.5 -35.5 96.5 -35.5
c44 0 80 12.5 108 37.5s43.333 58.833 46 101.5l64 -11c-4.66699 -57.333 -26.834 -103.333 -66.501 -138s-90.167 -52 -151.5 -52c-60.667 0 -109.667 17.333 -147 52s-56 79.667 -56 135c0 30 5 56.667 15 80s22.333 41.666 37 54.999s30.834 27.166 48.501 41.499
l48.5 39.5c14.667 12 27 28.5 37 49.5s15 44.833 15 71.5h67z" />
    <glyph glyph-name="Agrave" unicode="&#xc0;" horiz-adv-x="643" 
d="M346 756h-47l-115 148h85zM563 0l-75 191h-333l-76 -191h-69l282 700h59l282 -700h-70zM180 253h283l-141 358z" />
    <glyph glyph-name="Aacute" unicode="&#xc1;" horiz-adv-x="643" 
d="M453 904l-115 -148h-47l77 148h85zM563 0l-75 191h-333l-76 -191h-69l282 700h59l282 -700h-70zM180 253h283l-141 358z" />
    <glyph glyph-name="Acircumflex" unicode="&#xc2;" horiz-adv-x="643" 
d="M322 852l-87 -96h-55l118 148h47l118 -148h-56zM563 0l-75 191h-333l-76 -191h-69l282 700h59l282 -700h-70zM180 253h283l-141 358z" />
    <glyph glyph-name="Atilde" unicode="&#xc3;" horiz-adv-x="643" 
d="M258 839c-13.333 0 -24.5 -4.33301 -33.5 -13s-14.167 -21 -15.5 -37l-47 8c0.666992 27.333 9.83398 49.5 27.501 66.5s40.5 25.5 68.5 25.5c24 0 47.333 -9 70 -27c27.333 -19.333 49.666 -29 66.999 -29c28.667 0 44.667 16.333 48 49l48 -9
c-1.33301 -27.333 -10.833 -49.333 -28.5 -66s-40.167 -25 -67.5 -25c-21.333 0 -45 8.66699 -71 26c-1.33301 1.33301 -5.33301 4.33301 -12 9s-11.167 7.66699 -13.5 9s-6.16602 3.33301 -11.499 6s-10.333 4.5 -15 5.5s-9.33398 1.5 -14.001 1.5zM563 0l-75 191h-333
l-76 -191h-69l282 700h59l282 -700h-70zM180 253h283l-141 358z" />
    <glyph glyph-name="Adieresis" unicode="&#xc4;" horiz-adv-x="643" 
d="M270 904v-87h-66v87h66zM440 904v-87h-66v87h66zM563 0l-75 191h-333l-76 -191h-69l282 700h59l282 -700h-70zM180 253h283l-141 358z" />
    <glyph glyph-name="Aring" unicode="&#xc5;" horiz-adv-x="643" 
d="M322 741c-30 0 -55 9.33301 -75 28s-30 42 -30 70s10 51.333 30 70s45 28 75 28s55 -9.33301 75 -28s30 -42 30 -70s-10 -51.333 -30 -70s-45 -28 -75 -28zM322 894c-16 0 -29.333 -5.16699 -40 -15.5s-16 -23.5 -16 -39.5s5.33301 -29.167 16 -39.5s24 -15.5 40 -15.5
c16.667 0 30.334 5.16699 41.001 15.5s16 23.5 16 39.5s-5.33301 29.167 -16 39.5s-24.334 15.5 -41.001 15.5zM563 0l-75 191h-333l-76 -191h-69l282 700h59l282 -700h-70zM180 253h283l-141 358z" />
    <glyph glyph-name="AE" unicode="&#xc6;" horiz-adv-x="939" 
d="M522 62h371v-62h-438v199h-258l-116 -199h-73l417 700h457v-62h-360v-234h295v-62h-295v-280zM233 261h222v379z" />
    <glyph glyph-name="Ccedilla" unicode="&#xc7;" horiz-adv-x="705" 
d="M379 54c58.667 0 106.834 14.167 144.501 42.5s63.5 69.166 77.5 122.499l66 -13c-18 -65.333 -52.167 -117.166 -102.5 -155.499s-111.166 -57.833 -182.499 -58.5l-72 -139h-85l108 142c-82.667 10 -151.5 45.5 -206.5 106.5s-82.5 143.833 -82.5 248.5
c0 58.667 9.33301 111.334 28 158.001s44 84.167 76 112.5s67.667 50 107 65s80.666 22.5 123.999 22.5c72.667 0 134.667 -19.333 186 -58s85.333 -91 102 -157l-66 -15c-12 53.333 -37.333 94.666 -76 123.999s-87.334 44 -146.001 44c-79.333 0 -143.333 -26 -192 -78
s-73 -124.667 -73 -218s24.333 -166 73 -218s112.667 -78 192 -78z" />
    <glyph glyph-name="Egrave" unicode="&#xc8;" horiz-adv-x="560" 
d="M324 756h-47l-115 148h85zM76 0v700h427v-62h-360v-234h295v-62h-295v-280h371v-62h-438z" />
    <glyph glyph-name="Eacute" unicode="&#xc9;" horiz-adv-x="560" 
d="M269 756l77 148h85l-115 -148h-47zM76 0v700h427v-62h-360v-234h295v-62h-295v-280h371v-62h-438z" />
    <glyph glyph-name="Ecircumflex" unicode="&#xca;" horiz-adv-x="560" 
d="M276 904h47l118 -148h-56l-85 96l-87 -96h-55zM76 0v700h427v-62h-360v-234h295v-62h-295v-280h371v-62h-438z" />
    <glyph glyph-name="Edieresis" unicode="&#xcb;" horiz-adv-x="560" 
d="M182 904h66v-87h-66v87zM352 904h66v-87h-66v87zM76 0v700h427v-62h-360v-234h295v-62h-295v-280h371v-62h-438z" />
    <glyph glyph-name="Igrave" unicode="&#xcc;" horiz-adv-x="219" 
d="M133 756h-47l-115 148h85zM76 0v700h67v-700h-67z" />
    <glyph glyph-name="Iacute" unicode="&#xcd;" horiz-adv-x="219" 
d="M78 756l77 148h85l-115 -148h-47zM76 0v700h67v-700h-67z" />
    <glyph glyph-name="Icircumflex" unicode="&#xce;" horiz-adv-x="219" 
d="M85 904h47l118 -148h-56l-85 96l-87 -96h-55zM76 0v700h67v-700h-67z" />
    <glyph glyph-name="Idieresis" unicode="&#xcf;" horiz-adv-x="219" 
d="M-9 904h66v-87h-66v87zM161 904h66v-87h-66v87zM76 0v700h67v-700h-67z" />
    <glyph glyph-name="Eth" unicode="&#xd0;" horiz-adv-x="664" 
d="M274 700c100.667 0 183.5 -31.5 248.5 -94.5s97.5 -148.167 97.5 -255.5s-32.5 -192.5 -97.5 -255.5s-147.833 -94.5 -248.5 -94.5h-198v324h-59v52h59v324h198zM276 62c77.333 0 142.166 24.3311 194.499 72.998s78.5 120.334 78.5 215.001
s-26.167 166.334 -78.5 215.001s-117.166 73 -194.499 73h-133v-262h166v-52h-166v-262h133z" />
    <glyph glyph-name="Ntilde" unicode="&#xd1;" horiz-adv-x="684" 
d="M230 789l-47 8c0.666992 27.333 9.83398 49.5 27.501 66.5s40.5 25.5 68.5 25.5c24 0 47.333 -9 70 -27c27.333 -19.333 49.666 -29 66.999 -29c28.667 0 44.667 16.333 48 49l48 -9c-1.33301 -27.333 -10.833 -49.333 -28.5 -66s-40.167 -25 -67.5 -25
c-21.333 0 -45 8.66699 -71 26c-1.33301 1.33301 -5.33301 4.33301 -12 9s-11.167 7.66699 -13.5 9s-6.16602 3.33301 -11.499 6s-10.333 4.5 -15 5.5s-9.33398 1.5 -14.001 1.5c-14 0 -25.333 -4.33301 -34 -13s-13.667 -21 -15 -37zM76 0v700h81l383 -595v595h68v-700h-81
l-383 593v-593h-68z" />
    <glyph glyph-name="Ograve" unicode="&#xd2;" horiz-adv-x="767" 
d="M407 756h-47l-115 148h85zM383 -8c-98.667 0 -179.834 33.667 -243.501 101s-95.5 153 -95.5 257s31.833 189.667 95.5 257s144.834 101 243.501 101s180 -33.667 244 -101s96 -153 96 -257s-32 -189.667 -96 -257s-145.333 -101 -244 -101zM383 54
c78.667 0 143.334 27.833 194.001 83.5s76 126.5 76 212.5s-25.333 156.833 -76 212.5s-115.334 83.5 -194.001 83.5c-78 0 -142.333 -27.833 -193 -83.5s-76 -126.5 -76 -212.5s25.333 -156.833 76 -212.5s115 -83.5 193 -83.5z" />
    <glyph glyph-name="Oacute" unicode="&#xd3;" horiz-adv-x="767" 
d="M352 756l77 148h85l-115 -148h-47zM383 -8c-98.667 0 -179.834 33.667 -243.501 101s-95.5 153 -95.5 257s31.833 189.667 95.5 257s144.834 101 243.501 101s180 -33.667 244 -101s96 -153 96 -257s-32 -189.667 -96 -257s-145.333 -101 -244 -101zM383 54
c78.667 0 143.334 27.833 194.001 83.5s76 126.5 76 212.5s-25.333 156.833 -76 212.5s-115.334 83.5 -194.001 83.5c-78 0 -142.333 -27.833 -193 -83.5s-76 -126.5 -76 -212.5s25.333 -156.833 76 -212.5s115 -83.5 193 -83.5z" />
    <glyph glyph-name="Ocircumflex" unicode="&#xd4;" horiz-adv-x="767" 
d="M359 904h47l118 -148h-56l-85 96l-87 -96h-55zM383 -8c-98.667 0 -179.834 33.667 -243.501 101s-95.5 153 -95.5 257s31.833 189.667 95.5 257s144.834 101 243.501 101s180 -33.667 244 -101s96 -153 96 -257s-32 -189.667 -96 -257s-145.333 -101 -244 -101zM383 54
c78.667 0 143.334 27.833 194.001 83.5s76 126.5 76 212.5s-25.333 156.833 -76 212.5s-115.334 83.5 -194.001 83.5c-78 0 -142.333 -27.833 -193 -83.5s-76 -126.5 -76 -212.5s25.333 -156.833 76 -212.5s115 -83.5 193 -83.5z" />
    <glyph glyph-name="Otilde" unicode="&#xd5;" horiz-adv-x="767" 
d="M270 789l-47 8c0.666992 27.333 9.83398 49.5 27.501 66.5s40.5 25.5 68.5 25.5c24 0 47.333 -9 70 -27c27.333 -19.333 49.666 -29 66.999 -29c28.667 0 44.667 16.333 48 49l48 -9c-1.33301 -27.333 -10.833 -49.333 -28.5 -66s-40.167 -25 -67.5 -25
c-21.333 0 -45 8.66699 -71 26c-1.33301 1.33301 -5.33301 4.33301 -12 9s-11.167 7.66699 -13.5 9s-6.16602 3.33301 -11.499 6s-10.333 4.5 -15 5.5s-9.33398 1.5 -14.001 1.5c-14 0 -25.333 -4.33301 -34 -13s-13.667 -21 -15 -37zM383 -8
c-98.667 0 -179.834 33.667 -243.501 101s-95.5 153 -95.5 257s31.833 189.667 95.5 257s144.834 101 243.501 101s180 -33.667 244 -101s96 -153 96 -257s-32 -189.667 -96 -257s-145.333 -101 -244 -101zM383 54c78.667 0 143.334 27.833 194.001 83.5s76 126.5 76 212.5
s-25.333 156.833 -76 212.5s-115.334 83.5 -194.001 83.5c-78 0 -142.333 -27.833 -193 -83.5s-76 -126.5 -76 -212.5s25.333 -156.833 76 -212.5s115 -83.5 193 -83.5z" />
    <glyph glyph-name="Odieresis" unicode="&#xd6;" horiz-adv-x="767" 
d="M265 904h66v-87h-66v87zM435 904h66v-87h-66v87zM383 -8c-98.667 0 -179.834 33.667 -243.501 101s-95.5 153 -95.5 257s31.833 189.667 95.5 257s144.834 101 243.501 101s180 -33.667 244 -101s96 -153 96 -257s-32 -189.667 -96 -257s-145.333 -101 -244 -101zM383 54
c78.667 0 143.334 27.833 194.001 83.5s76 126.5 76 212.5s-25.333 156.833 -76 212.5s-115.334 83.5 -194.001 83.5c-78 0 -142.333 -27.833 -193 -83.5s-76 -126.5 -76 -212.5s25.333 -156.833 76 -212.5s115 -83.5 193 -83.5z" />
    <glyph glyph-name="multiply" unicode="&#xd7;" horiz-adv-x="521" 
d="M475 512l-174 -174l174 -174l-40 -40l-174 174l-175 -174l-40 40l174 174l-174 174l40 40l175 -174l174 174z" />
    <glyph glyph-name="Oslash" unicode="&#xd8;" horiz-adv-x="767" 
d="M636 597c58 -66.667 86.999 -149 86.999 -247c0 -104 -32 -189.667 -96 -257s-145.333 -101 -244 -101c-78 0 -146.667 22.667 -206 68l-58 -68l-46 44l57 67c-57.333 66.667 -86 149 -86 247c0 104 31.833 189.667 95.5 257s144.834 101 243.501 101
c79.333 0 148 -22.333 206 -67l57 67l47 -44zM113.999 350c0 -77.333 20.333 -142 61 -194l371 435c-46 36.667 -100.333 55 -163 55c-78 0 -142.333 -27.833 -193 -83.5s-76 -126.5 -76 -212.5zM382.999 54c78.667 0 143.334 27.833 194.001 83.5s76 126.5 76 212.5
c0 76 -20.667 141 -62 195l-371 -435c45.333 -37.333 99.666 -56 162.999 -56z" />
    <glyph glyph-name="Ugrave" unicode="&#xd9;" horiz-adv-x="672" 
d="M360 756h-47l-115 148h85zM336 -8c-78.667 0 -141.667 22.167 -189 66.5s-71 103.166 -71 176.499v465h68v-471c0 -52.667 17.5 -95 52.5 -127s81.5 -48 139.5 -48c58.667 0 105.5 15.833 140.5 47.5s52.5 74.167 52.5 127.5v471h67v-465
c0 -73.333 -23.667 -132.166 -71 -176.499s-110.333 -66.5 -189 -66.5z" />
    <glyph glyph-name="Uacute" unicode="&#xda;" horiz-adv-x="672" 
d="M305 756l77 148h85l-115 -148h-47zM336 -8c-78.667 0 -141.667 22.167 -189 66.5s-71 103.166 -71 176.499v465h68v-471c0 -52.667 17.5 -95 52.5 -127s81.5 -48 139.5 -48c58.667 0 105.5 15.833 140.5 47.5s52.5 74.167 52.5 127.5v471h67v-465
c0 -73.333 -23.667 -132.166 -71 -176.499s-110.333 -66.5 -189 -66.5z" />
    <glyph glyph-name="Ucircumflex" unicode="&#xdb;" horiz-adv-x="672" 
d="M312 904h47l118 -148h-56l-85 96l-87 -96h-55zM336 -8c-78.667 0 -141.667 22.167 -189 66.5s-71 103.166 -71 176.499v465h68v-471c0 -52.667 17.5 -95 52.5 -127s81.5 -48 139.5 -48c58.667 0 105.5 15.833 140.5 47.5s52.5 74.167 52.5 127.5v471h67v-465
c0 -73.333 -23.667 -132.166 -71 -176.499s-110.333 -66.5 -189 -66.5z" />
    <glyph glyph-name="Udieresis" unicode="&#xdc;" horiz-adv-x="672" 
d="M218 904h66v-87h-66v87zM388 904h66v-87h-66v87zM336 -8c-78.667 0 -141.667 22.167 -189 66.5s-71 103.166 -71 176.499v465h68v-471c0 -52.667 17.5 -95 52.5 -127s81.5 -48 139.5 -48c58.667 0 105.5 15.833 140.5 47.5s52.5 74.167 52.5 127.5v471h67v-465
c0 -73.333 -23.667 -132.166 -71 -176.499s-110.333 -66.5 -189 -66.5z" />
    <glyph glyph-name="Yacute" unicode="&#xdd;" horiz-adv-x="578" 
d="M258 756l77 148h85l-115 -148h-47zM255 0v294l-250 406h79l205 -341l204 341h80l-251 -406v-294h-67z" />
    <glyph glyph-name="Thorn" unicode="&#xde;" horiz-adv-x="580" 
d="M76 0v700h67v-157h190c68 0 121.5 -17.167 160.5 -51.5s58.5 -81.5 58.5 -141.5s-19.5 -107.167 -58.5 -141.5s-92.5 -51.5 -160.5 -51.5h-190v-157h-67zM143 219h192c50.667 0 87.667 11.833 111 35.5s35 55.5 35 95.5s-11.667 71.833 -35 95.5s-60.333 35.5 -111 35.5
h-192v-262z" />
    <glyph glyph-name="germandbls" unicode="&#xdf;" horiz-adv-x="573" 
d="M307 -8c-14.667 0 -32.166 0.834961 -52.499 2.50195s-30.5 3.16699 -30.5 4.5v58c25.333 -4.66699 51 -7 77 -7c55.333 0 97.666 13.333 126.999 40s44 64 44 112c0 50 -17.667 87.833 -53 113.5s-81.333 38.5 -138 38.5h-57v56h64c43.333 0 77.166 10.833 101.499 32.5
s36.5 50.834 36.5 87.501c0 37.333 -12.5 66.666 -37.5 87.999s-58.167 32 -99.5 32s-74 -13.833 -98 -41.5s-36 -68.167 -36 -121.5v-487h-66v354h-59v56h59v78c0 70.667 18.833 125 56.5 163s85.5 57 143.5 57c60.667 0 109 -16.167 145 -48.5s54 -73.833 54 -124.5
c0 -37.333 -9.83301 -69.833 -29.5 -97.5s-44.5 -44.834 -74.5 -51.501c40.667 -10 76.334 -30.333 107.001 -61s46 -69.667 46 -117c0 -68.667 -21 -121.834 -63 -159.501s-97.667 -56.5 -167 -56.5z" />
    <glyph glyph-name="agrave" unicode="&#xe0;" 
d="M283 560h-47l-115 148h85zM258 512c58.667 0 106.502 -16.667 143.502 -50s55.5 -76.666 55.5 -129.999v-332h-63v92c-15.333 -30.667 -39 -55 -71 -73s-67.667 -27 -107 -27c-50.667 0 -91.834 13.667 -123.501 41s-47.5 63 -47.5 107c0 48 20.333 85.5 61 112.5
s103 44.833 187 53.5l101 10v14c0 38 -12.5 68.167 -37.5 90.5s-57.833 33.5 -98.5 33.5c-38.667 0 -70.334 -10.667 -95.001 -32s-39.334 -50.333 -44.001 -87l-61 12c7.33301 49.333 29.333 89.166 66 119.499s81.334 45.5 134.001 45.5zM221.002 50
c54.667 0 97.167 16.001 127.5 48.001s45.5 77 45.5 135v30l-99 -10c-122.667 -13.333 -184 -51 -184 -113c0 -26.667 10.333 -48.334 31 -65.001s47 -25 79 -25z" />
    <glyph glyph-name="aacute" unicode="&#xe1;" 
d="M390 708l-115 -148h-47l77 148h85zM258 512c58.667 0 106.502 -16.667 143.502 -50s55.5 -76.666 55.5 -129.999v-332h-63v92c-15.333 -30.667 -39 -55 -71 -73s-67.667 -27 -107 -27c-50.667 0 -91.834 13.667 -123.501 41s-47.5 63 -47.5 107
c0 48 20.333 85.5 61 112.5s103 44.833 187 53.5l101 10v14c0 38 -12.5 68.167 -37.5 90.5s-57.833 33.5 -98.5 33.5c-38.667 0 -70.334 -10.667 -95.001 -32s-39.334 -50.333 -44.001 -87l-61 12c7.33301 49.333 29.333 89.166 66 119.499s81.334 45.5 134.001 45.5z
M221.002 50c54.667 0 97.167 16.001 127.5 48.001s45.5 77 45.5 135v30l-99 -10c-122.667 -13.333 -184 -51 -184 -113c0 -26.667 10.333 -48.334 31 -65.001s47 -25 79 -25z" />
    <glyph glyph-name="acircumflex" unicode="&#xe2;" 
d="M259 656l-87 -96h-55l118 148h47l118 -148h-56zM258 512c58.667 0 106.502 -16.667 143.502 -50s55.5 -76.666 55.5 -129.999v-332h-63v92c-15.333 -30.667 -39 -55 -71 -73s-67.667 -27 -107 -27c-50.667 0 -91.834 13.667 -123.501 41s-47.5 63 -47.5 107
c0 48 20.333 85.5 61 112.5s103 44.833 187 53.5l101 10v14c0 38 -12.5 68.167 -37.5 90.5s-57.833 33.5 -98.5 33.5c-38.667 0 -70.334 -10.667 -95.001 -32s-39.334 -50.333 -44.001 -87l-61 12c7.33301 49.333 29.333 89.166 66 119.499s81.334 45.5 134.001 45.5z
M221.002 50c54.667 0 97.167 16.001 127.5 48.001s45.5 77 45.5 135v30l-99 -10c-122.667 -13.333 -184 -51 -184 -113c0 -26.667 10.333 -48.334 31 -65.001s47 -25 79 -25z" />
    <glyph glyph-name="atilde" unicode="&#xe3;" 
d="M195 643c-14 0 -25.333 -4.33301 -34 -13s-13.667 -21 -15 -37l-47 8c0.666992 27.333 9.83398 49.5 27.501 66.5s40.5 25.5 68.5 25.5c24 0 47.333 -9 70 -27c27.333 -19.333 49.666 -29 66.999 -29c28.667 0 44.667 16.333 48 49l48 -9
c-1.33301 -27.333 -10.833 -49.333 -28.5 -66s-40.167 -25 -67.5 -25c-21.333 0 -45 8.66699 -71 26c-1.33301 1.33301 -5.33301 4.33301 -12 9s-11.167 7.66699 -13.5 9s-6.16602 3.33301 -11.499 6s-10.333 4.5 -15 5.5s-9.33398 1.5 -14.001 1.5zM258 512
c58.667 0 106.502 -16.667 143.502 -50s55.5 -76.666 55.5 -129.999v-332h-63v92c-15.333 -30.667 -39 -55 -71 -73s-67.667 -27 -107 -27c-50.667 0 -91.834 13.667 -123.501 41s-47.5 63 -47.5 107c0 48 20.333 85.5 61 112.5s103 44.833 187 53.5l101 10v14
c0 38 -12.5 68.167 -37.5 90.5s-57.833 33.5 -98.5 33.5c-38.667 0 -70.334 -10.667 -95.001 -32s-39.334 -50.333 -44.001 -87l-61 12c7.33301 49.333 29.333 89.166 66 119.499s81.334 45.5 134.001 45.5zM221.002 50c54.667 0 97.167 16.001 127.5 48.001
s45.5 77 45.5 135v30l-99 -10c-122.667 -13.333 -184 -51 -184 -113c0 -26.667 10.333 -48.334 31 -65.001s47 -25 79 -25z" />
    <glyph glyph-name="adieresis" unicode="&#xe4;" 
d="M207 708v-87h-66v87h66zM377 708v-87h-66v87h66zM258 512c58.667 0 106.502 -16.667 143.502 -50s55.5 -76.666 55.5 -129.999v-332h-63v92c-15.333 -30.667 -39 -55 -71 -73s-67.667 -27 -107 -27c-50.667 0 -91.834 13.667 -123.501 41s-47.5 63 -47.5 107
c0 48 20.333 85.5 61 112.5s103 44.833 187 53.5l101 10v14c0 38 -12.5 68.167 -37.5 90.5s-57.833 33.5 -98.5 33.5c-38.667 0 -70.334 -10.667 -95.001 -32s-39.334 -50.333 -44.001 -87l-61 12c7.33301 49.333 29.333 89.166 66 119.499s81.334 45.5 134.001 45.5z
M221.002 50c54.667 0 97.167 16.001 127.5 48.001s45.5 77 45.5 135v30l-99 -10c-122.667 -13.333 -184 -51 -184 -113c0 -26.667 10.333 -48.334 31 -65.001s47 -25 79 -25z" />
    <glyph glyph-name="aring" unicode="&#xe5;" 
d="M259 545c-30 0 -55 9.33301 -75 28s-30 42 -30 70s10 51.333 30 70s45 28 75 28s55 -9.33301 75 -28s30 -42 30 -70s-10 -51.333 -30 -70s-45 -28 -75 -28zM259 698c-16 0 -29.333 -5.16699 -40 -15.5s-16 -23.5 -16 -39.5s5.33301 -29.167 16 -39.5s24 -15.5 40 -15.5
c16.667 0 30.334 5.16699 41.001 15.5s16 23.5 16 39.5s-5.33301 29.167 -16 39.5s-24.334 15.5 -41.001 15.5zM258 512c58.667 0 106.502 -16.667 143.502 -50s55.5 -76.666 55.5 -129.999v-332h-63v92c-15.333 -30.667 -39 -55 -71 -73s-67.667 -27 -107 -27
c-50.667 0 -91.834 13.667 -123.501 41s-47.5 63 -47.5 107c0 48 20.333 85.5 61 112.5s103 44.833 187 53.5l101 10v14c0 38 -12.5 68.167 -37.5 90.5s-57.833 33.5 -98.5 33.5c-38.667 0 -70.334 -10.667 -95.001 -32s-39.334 -50.333 -44.001 -87l-61 12
c7.33301 49.333 29.333 89.166 66 119.499s81.334 45.5 134.001 45.5zM221.002 50c54.667 0 97.167 16.001 127.5 48.001s45.5 77 45.5 135v30l-99 -10c-122.667 -13.333 -184 -51 -184 -113c0 -26.667 10.333 -48.334 31 -65.001s47 -25 79 -25z" />
    <glyph glyph-name="ae" unicode="&#xe6;" horiz-adv-x="921" 
d="M878 279c0 -12.667 -0.662109 -23.665 -1.99512 -32.998h-410c0.666992 -58 17.334 -105.167 50.001 -141.5s74.667 -54.5 126 -54.5c43.333 0 79.166 9.66699 107.499 29s46.166 46.666 53.499 81.999l60 -12c-11.333 -50 -36.333 -88.667 -75 -116s-87 -41 -145 -41
c-47.333 0 -89.333 11.333 -126 34s-65.334 54 -86.001 94c-17.333 -40 -44.166 -71.333 -80.499 -94s-79.833 -34 -130.5 -34c-52 0 -94.167 13.667 -126.5 41s-48.5 63 -48.5 107c0 50 21.5 89.5 64.5 118.5s106.167 43.5 189.5 43.5h103v28
c0 38 -12.833 68.167 -38.5 90.5s-59.5 33.5 -101.5 33.5c-38 0 -69.833 -10.333 -95.5 -31s-39.834 -46 -42.501 -76l-62 12c6.66699 43.333 28.667 79.666 66 108.999s82 44 134 44c43.333 0 81.166 -9 113.499 -27s56.166 -42.667 71.499 -74
c45.333 67.333 110.666 101 195.999 101c68.667 0 125 -21.833 169 -65.5s66 -99.5 66 -167.5zM471.005 304.002h341.999c-5.33301 44.667 -23 80.834 -53 108.501s-69 41.5 -117 41.5c-44.667 0 -82.167 -13.333 -112.5 -40s-50.166 -63.334 -59.499 -110.001z
M225.004 50.002c55.333 0 98.668 16.001 130.001 48.001s47 77 47 135v16h-101c-60.667 0 -107.334 -10.167 -140.001 -30.5s-49 -46.5 -49 -78.5c0 -26.667 10.5 -48.334 31.5 -65.001s48.167 -25 81.5 -25z" />
    <glyph glyph-name="ccedilla" unicode="&#xe7;" horiz-adv-x="542" 
d="M504 155c-10.667 -50.667 -34.334 -90.168 -71.001 -118.501s-82 -43.166 -136 -44.499l-72 -139h-85l108 142c-63.333 9.33301 -113.333 36.833 -150 82.5s-55 103.834 -55 174.501c0 78.667 22.5 141.667 67.5 189s104.833 71 179.5 71
c54.667 0 101.334 -14.5 140.001 -43.5s62.667 -67.167 72 -114.5l-62 -13c-6.66699 33.333 -23.667 60.5 -51 81.5s-60.333 31.5 -99 31.5c-54.667 0 -98.5 -18.333 -131.5 -55s-49.5 -85.667 -49.5 -147s16.5 -110.333 49.5 -147s76.833 -55 131.5 -55
c40 0 73.5 10.167 100.5 30.5s44.167 49.166 51.5 86.499z" />
    <glyph glyph-name="egrave" unicode="&#xe8;" horiz-adv-x="562" 
d="M304 560h-47l-115 148h85zM519 279c0 -12.667 -0.666016 -23.666 -1.99902 -32.999h-410c0.666992 -58 17.334 -105.167 50.001 -141.5s74.667 -54.5 126 -54.5c43.333 0 79.166 9.66699 107.499 29s46.166 46.666 53.499 81.999l60 -12
c-11.333 -50 -36.333 -88.667 -75 -116s-87 -41 -145 -41c-71.333 0 -129.333 24.5 -174 73.5s-67 111.167 -67 186.5s22.333 137.5 67 186.5s102.667 73.5 174 73.5c68.667 0 125 -21.833 169 -65.5s66 -99.5 66 -167.5zM112.001 304.001h341.999
c-5.33301 44.667 -23 80.834 -53 108.501s-69 41.5 -117 41.5c-44.667 0 -82.167 -13.333 -112.5 -40s-50.166 -63.334 -59.499 -110.001z" />
    <glyph glyph-name="eacute" unicode="&#xe9;" horiz-adv-x="562" 
d="M411 708l-115 -148h-47l77 148h85zM519 279c0 -12.667 -0.666016 -23.666 -1.99902 -32.999h-410c0.666992 -58 17.334 -105.167 50.001 -141.5s74.667 -54.5 126 -54.5c43.333 0 79.166 9.66699 107.499 29s46.166 46.666 53.499 81.999l60 -12
c-11.333 -50 -36.333 -88.667 -75 -116s-87 -41 -145 -41c-71.333 0 -129.333 24.5 -174 73.5s-67 111.167 -67 186.5s22.333 137.5 67 186.5s102.667 73.5 174 73.5c68.667 0 125 -21.833 169 -65.5s66 -99.5 66 -167.5zM112.001 304.001h341.999
c-5.33301 44.667 -23 80.834 -53 108.501s-69 41.5 -117 41.5c-44.667 0 -82.167 -13.333 -112.5 -40s-50.166 -63.334 -59.499 -110.001z" />
    <glyph glyph-name="ecircumflex" unicode="&#xea;" horiz-adv-x="562" 
d="M280 656l-87 -96h-55l118 148h47l118 -148h-56zM519 279c0 -12.667 -0.666016 -23.666 -1.99902 -32.999h-410c0.666992 -58 17.334 -105.167 50.001 -141.5s74.667 -54.5 126 -54.5c43.333 0 79.166 9.66699 107.499 29s46.166 46.666 53.499 81.999l60 -12
c-11.333 -50 -36.333 -88.667 -75 -116s-87 -41 -145 -41c-71.333 0 -129.333 24.5 -174 73.5s-67 111.167 -67 186.5s22.333 137.5 67 186.5s102.667 73.5 174 73.5c68.667 0 125 -21.833 169 -65.5s66 -99.5 66 -167.5zM112.001 304.001h341.999
c-5.33301 44.667 -23 80.834 -53 108.501s-69 41.5 -117 41.5c-44.667 0 -82.167 -13.333 -112.5 -40s-50.166 -63.334 -59.499 -110.001z" />
    <glyph glyph-name="edieresis" unicode="&#xeb;" horiz-adv-x="562" 
d="M228 708v-87h-66v87h66zM398 708v-87h-66v87h66zM519 279c0 -12.667 -0.666016 -23.666 -1.99902 -32.999h-410c0.666992 -58 17.334 -105.167 50.001 -141.5s74.667 -54.5 126 -54.5c43.333 0 79.166 9.66699 107.499 29s46.166 46.666 53.499 81.999l60 -12
c-11.333 -50 -36.333 -88.667 -75 -116s-87 -41 -145 -41c-71.333 0 -129.333 24.5 -174 73.5s-67 111.167 -67 186.5s22.333 137.5 67 186.5s102.667 73.5 174 73.5c68.667 0 125 -21.833 169 -65.5s66 -99.5 66 -167.5zM112.001 304.001h341.999
c-5.33301 44.667 -23 80.834 -53 108.501s-69 41.5 -117 41.5c-44.667 0 -82.167 -13.333 -112.5 -40s-50.166 -63.334 -59.499 -110.001z" />
    <glyph glyph-name="igrave" unicode="&#xec;" horiz-adv-x="209" 
d="M128 560h-47l-115 148h85zM73 0v504h63v-504h-63z" />
    <glyph glyph-name="iacute" unicode="&#xed;" horiz-adv-x="209" 
d="M73 560l77 148h85l-115 -148h-47zM73 0v504h63v-504h-63z" />
    <glyph glyph-name="icircumflex" unicode="&#xee;" horiz-adv-x="209" 
d="M80 708h47l118 -148h-56l-85 96l-87 -96h-55zM73 0v504h63v-504h-63z" />
    <glyph glyph-name="idieresis" unicode="&#xef;" horiz-adv-x="209" 
d="M-14 708h66v-87h-66v87zM156 708h66v-87h-66v87zM73 0v504h63v-504h-63z" />
    <glyph glyph-name="eth" unicode="&#xf0;" horiz-adv-x="587" 
d="M579 633l-105 -31.999c34.667 -96 52 -214.333 52 -355c0 -82 -20.5 -144.833 -61.5 -188.5s-99.833 -65.5 -176.5 -65.5c-73.333 0 -132.5 22.833 -177.5 68.5s-67.5 105.167 -67.5 178.5c0 71.333 21.5 130.333 64.5 177s103.167 70 180.5 70
c34 0 67.5 -7.83301 100.5 -23.5s57.833 -35.5 74.5 -59.5c-6.66699 56 -21.334 116.333 -44.001 181l-119 -37l-15 50l116 35c-13.333 31.333 -26 56.666 -38 75.999h63c8.66699 -16 18.334 -35.667 29.001 -59l109 33zM290 50.001c54.667 0 98.334 17.167 131.001 51.5
s49 80.166 49 137.499s-16.333 103.333 -49 138s-76.334 52 -131.001 52s-98.334 -17.333 -131.001 -52s-49 -80.667 -49 -138s16.333 -103.166 49 -137.499s76.334 -51.5 131.001 -51.5z" />
    <glyph glyph-name="ntilde" unicode="&#xf1;" horiz-adv-x="567" 
d="M168 593l-47 8c0.666992 27.333 9.83398 49.5 27.501 66.5s40.5 25.5 68.5 25.5c24 0 47.333 -9 70 -27c27.333 -19.333 49.666 -29 66.999 -29c28.667 0 44.667 16.333 48 49l48 -9c-1.33301 -27.333 -10.833 -49.333 -28.5 -66s-40.167 -25 -67.5 -25
c-21.333 0 -45 8.66699 -71 26c-1.33301 1.33301 -5.33301 4.33301 -12 9s-11.167 7.66699 -13.5 9s-6.16602 3.33301 -11.499 6s-10.333 4.5 -15 5.5s-9.33398 1.5 -14.001 1.5c-14 0 -25.333 -4.33301 -34 -13s-13.667 -21 -15 -37zM73 0l-0.000976562 504.001h63v-105
c19.333 34.667 44.5 62.167 75.5 82.5s65.833 30.5 104.5 30.5c52 0 94.667 -16.167 128 -48.5s50 -74.833 50 -127.5v-336h-63v328c0 37.333 -11.167 67.666 -33.5 90.999s-52.5 35 -90.5 35c-51.333 0 -92.666 -21 -123.999 -63s-47 -98.667 -47 -170v-221h-63z" />
    <glyph glyph-name="ograve" unicode="&#xf2;" horiz-adv-x="592" 
d="M320 560h-47l-115 148h85zM296 -8c-74 0 -134.667 24.333 -182 73s-71 111 -71 187s23.667 138.333 71 187s108 73 182 73c73.333 0 133.833 -24.333 181.5 -73s71.5 -111 71.5 -187s-23.833 -138.333 -71.5 -187s-108.167 -73 -181.5 -73zM296 50
c55.333 0 100.333 18.833 135 56.5s52 86.167 52 145.5s-17.333 107.833 -52 145.5s-79.667 56.5 -135 56.5c-56 0 -101.167 -18.833 -135.5 -56.5s-51.5 -86.167 -51.5 -145.5s17.167 -107.833 51.5 -145.5s79.5 -56.5 135.5 -56.5z" />
    <glyph glyph-name="oacute" unicode="&#xf3;" horiz-adv-x="592" 
d="M265 560l77 148h85l-115 -148h-47zM296 -8c-74 0 -134.667 24.333 -182 73s-71 111 -71 187s23.667 138.333 71 187s108 73 182 73c73.333 0 133.833 -24.333 181.5 -73s71.5 -111 71.5 -187s-23.833 -138.333 -71.5 -187s-108.167 -73 -181.5 -73zM296 50
c55.333 0 100.333 18.833 135 56.5s52 86.167 52 145.5s-17.333 107.833 -52 145.5s-79.667 56.5 -135 56.5c-56 0 -101.167 -18.833 -135.5 -56.5s-51.5 -86.167 -51.5 -145.5s17.167 -107.833 51.5 -145.5s79.5 -56.5 135.5 -56.5z" />
    <glyph glyph-name="ocircumflex" unicode="&#xf4;" horiz-adv-x="592" 
d="M272 708h47l118 -148h-56l-85 96l-87 -96h-55zM296 -8c-74 0 -134.667 24.333 -182 73s-71 111 -71 187s23.667 138.333 71 187s108 73 182 73c73.333 0 133.833 -24.333 181.5 -73s71.5 -111 71.5 -187s-23.833 -138.333 -71.5 -187s-108.167 -73 -181.5 -73zM296 50
c55.333 0 100.333 18.833 135 56.5s52 86.167 52 145.5s-17.333 107.833 -52 145.5s-79.667 56.5 -135 56.5c-56 0 -101.167 -18.833 -135.5 -56.5s-51.5 -86.167 -51.5 -145.5s17.167 -107.833 51.5 -145.5s79.5 -56.5 135.5 -56.5z" />
    <glyph glyph-name="otilde" unicode="&#xf5;" horiz-adv-x="592" 
d="M183 593l-47 8c0.666992 27.333 9.83398 49.5 27.501 66.5s40.5 25.5 68.5 25.5c24 0 47.333 -9 70 -27c27.333 -19.333 49.666 -29 66.999 -29c28.667 0 44.667 16.333 48 49l48 -9c-1.33301 -27.333 -10.833 -49.333 -28.5 -66s-40.167 -25 -67.5 -25
c-21.333 0 -45 8.66699 -71 26c-1.33301 1.33301 -5.33301 4.33301 -12 9s-11.167 7.66699 -13.5 9s-6.16602 3.33301 -11.499 6s-10.333 4.5 -15 5.5s-9.33398 1.5 -14.001 1.5c-13.333 0 -24.5 -4.33301 -33.5 -13s-14.167 -21 -15.5 -37zM296 -8
c-74 0 -134.667 24.333 -182 73s-71 111 -71 187s23.667 138.333 71 187s108 73 182 73c73.333 0 133.833 -24.333 181.5 -73s71.5 -111 71.5 -187s-23.833 -138.333 -71.5 -187s-108.167 -73 -181.5 -73zM296 50c55.333 0 100.333 18.833 135 56.5s52 86.167 52 145.5
s-17.333 107.833 -52 145.5s-79.667 56.5 -135 56.5c-56 0 -101.167 -18.833 -135.5 -56.5s-51.5 -86.167 -51.5 -145.5s17.167 -107.833 51.5 -145.5s79.5 -56.5 135.5 -56.5z" />
    <glyph glyph-name="odieresis" unicode="&#xf6;" horiz-adv-x="592" 
d="M178 708h66v-87h-66v87zM348 708h66v-87h-66v87zM296 -8c-74 0 -134.667 24.333 -182 73s-71 111 -71 187s23.667 138.333 71 187s108 73 182 73c73.333 0 133.833 -24.333 181.5 -73s71.5 -111 71.5 -187s-23.833 -138.333 -71.5 -187s-108.167 -73 -181.5 -73zM296 50
c55.333 0 100.333 18.833 135 56.5s52 86.167 52 145.5s-17.333 107.833 -52 145.5s-79.667 56.5 -135 56.5c-56 0 -101.167 -18.833 -135.5 -56.5s-51.5 -86.167 -51.5 -145.5s17.167 -107.833 51.5 -145.5s79.5 -56.5 135.5 -56.5z" />
    <glyph glyph-name="divide" unicode="&#xf7;" 
d="M226 564h79v-89h-79v89zM35 309v56h460v-56h-460zM226 202h79v-89h-79v89z" />
    <glyph glyph-name="oslash" unicode="&#xf8;" horiz-adv-x="592" 
d="M483 434c44 -48 66 -108.667 66 -182c0 -76 -23.833 -138.333 -71.5 -187s-108.167 -73 -181.5 -73c-57.333 0 -107.666 15.333 -150.999 46l-62 -72l-38 34l62 73c-42.667 48 -64 107.667 -64 179c0 76 23.667 138.333 71 187s108 73 182 73
c57.333 0 106.666 -15 147.999 -45l61 71l38 -34zM109 252c0 -51.333 13.332 -95 39.999 -131l256 300c-31.333 22 -67.666 33 -108.999 33c-56 0 -101.167 -18.833 -135.5 -56.5s-51.5 -86.167 -51.5 -145.5zM295.999 50c55.333 0 100.333 18.833 135 56.5
s52 86.167 52 145.5c0 52.667 -14 97 -42 133l-256 -300c32 -23.333 69 -35 111 -35z" />
    <glyph glyph-name="ugrave" unicode="&#xf9;" horiz-adv-x="567" 
d="M306 560h-47l-115 148h85zM494 504l0.000976562 -504.001h-63v105c-19.333 -34.667 -44.5 -62.167 -75.5 -82.5s-65.833 -30.5 -104.5 -30.5c-52 0 -94.667 16.167 -128 48.5s-50 74.833 -50 127.5v336h63v-328c0 -37.333 11.167 -67.666 33.5 -90.999s52.5 -35 90.5 -35
c51.333 0 92.666 21 123.999 63s47 98.667 47 170v221h63z" />
    <glyph glyph-name="uacute" unicode="&#xfa;" horiz-adv-x="567" 
d="M251 560l77 148h85l-115 -148h-47zM494 504l0.000976562 -504.001h-63v105c-19.333 -34.667 -44.5 -62.167 -75.5 -82.5s-65.833 -30.5 -104.5 -30.5c-52 0 -94.667 16.167 -128 48.5s-50 74.833 -50 127.5v336h63v-328c0 -37.333 11.167 -67.666 33.5 -90.999
s52.5 -35 90.5 -35c51.333 0 92.666 21 123.999 63s47 98.667 47 170v221h63z" />
    <glyph glyph-name="ucircumflex" unicode="&#xfb;" horiz-adv-x="567" 
d="M258 708h47l118 -148h-56l-85 96l-87 -96h-55zM494 504l0.000976562 -504.001h-63v105c-19.333 -34.667 -44.5 -62.167 -75.5 -82.5s-65.833 -30.5 -104.5 -30.5c-52 0 -94.667 16.167 -128 48.5s-50 74.833 -50 127.5v336h63v-328
c0 -37.333 11.167 -67.666 33.5 -90.999s52.5 -35 90.5 -35c51.333 0 92.666 21 123.999 63s47 98.667 47 170v221h63z" />
    <glyph glyph-name="udieresis" unicode="&#xfc;" horiz-adv-x="567" 
d="M164 708h66v-87h-66v87zM334 708h66v-87h-66v87zM494 504l0.000976562 -504.001h-63v105c-19.333 -34.667 -44.5 -62.167 -75.5 -82.5s-65.833 -30.5 -104.5 -30.5c-52 0 -94.667 16.167 -128 48.5s-50 74.833 -50 127.5v336h63v-328
c0 -37.333 11.167 -67.666 33.5 -90.999s52.5 -35 90.5 -35c51.333 0 92.666 21 123.999 63s47 98.667 47 170v221h63z" />
    <glyph glyph-name="yacute" unicode="&#xfd;" horiz-adv-x="486" 
d="M374 708l-115 -148h-47l77 148h85zM407 504h64l-264 -686h-64l70 182l-198 504h68l163 -419z" />
    <glyph glyph-name="thorn" unicode="&#xfe;" horiz-adv-x="599" 
d="M73 -204v912h65v-275c20 23.333 46.333 42.333 79 57s64 22 94 22c77.333 0 137.5 -24.5 180.5 -73.5s64.5 -111.167 64.5 -186.5s-21.333 -137.5 -64 -186.5s-102.667 -73.5 -180 -73.5c-35.333 0 -69.333 7.33301 -102 22s-56.667 32 -72 52v-270h-65zM309 50
c57.333 0 101.833 18.833 133.5 56.5s47.5 86.167 47.5 145.5c0 58.667 -15.833 107 -47.5 145s-76.167 57 -133.5 57s-101.5 -19 -132.5 -57s-46.5 -86.333 -46.5 -145c0 -59.333 15.5 -107.833 46.5 -145.5s75.167 -56.5 132.5 -56.5z" />
    <glyph glyph-name="ydieresis" unicode="&#xff;" horiz-adv-x="486" 
d="M191 708v-87h-66v87h66zM361 708v-87h-66v87h66zM407 504h64l-264 -686h-64l70 182l-198 504h68l163 -419z" />
    <glyph glyph-name="Amacron" unicode="&#x100;" horiz-adv-x="643" 
d="M452 846v-56h-261v56h261zM563 0l-75 191h-333l-76 -191h-69l282 700h59l282 -700h-70zM180 253h283l-141 358z" />
    <glyph glyph-name="amacron" unicode="&#x101;" 
d="M389 650v-56h-261v56h261zM258 512c58.667 0 106.502 -16.667 143.502 -50s55.5 -76.666 55.5 -129.999v-332h-63v92c-15.333 -30.667 -39 -55 -71 -73s-67.667 -27 -107 -27c-50.667 0 -91.834 13.667 -123.501 41s-47.5 63 -47.5 107c0 48 20.333 85.5 61 112.5
s103 44.833 187 53.5l101 10v14c0 38 -12.5 68.167 -37.5 90.5s-57.833 33.5 -98.5 33.5c-38.667 0 -70.334 -10.667 -95.001 -32s-39.334 -50.333 -44.001 -87l-61 12c7.33301 49.333 29.333 89.166 66 119.499s81.334 45.5 134.001 45.5zM221.002 50
c54.667 0 97.167 16.001 127.5 48.001s45.5 77 45.5 135v30l-99 -10c-122.667 -13.333 -184 -51 -184 -113c0 -26.667 10.333 -48.334 31 -65.001s47 -25 79 -25z" />
    <glyph glyph-name="Abreve" unicode="&#x102;" horiz-adv-x="643" 
d="M322 753c-35.333 0 -64.666 11.667 -87.999 35s-35 52.666 -35 87.999h55c0 -20 6.5 -36.833 19.5 -50.5s29.167 -20.5 48.5 -20.5s35.666 6.83301 48.999 20.5s20 30.5 20 50.5h55c0 -35.333 -11.833 -64.666 -35.5 -87.999s-53.167 -35 -88.5 -35zM563 0l-75 191h-333
l-76 -191h-69l282 700h59l282 -700h-70zM180 253h283l-141 358z" />
    <glyph glyph-name="abreve" unicode="&#x103;" 
d="M259 557c-35.333 0 -64.666 11.667 -87.999 35s-35 52.666 -35 87.999h55c0 -20 6.5 -36.833 19.5 -50.5s29.167 -20.5 48.5 -20.5s35.666 6.83301 48.999 20.5s20 30.5 20 50.5h55c0 -35.333 -11.833 -64.666 -35.5 -87.999s-53.167 -35 -88.5 -35zM258 512
c58.667 0 106.502 -16.667 143.502 -50s55.5 -76.666 55.5 -129.999v-332h-63v92c-15.333 -30.667 -39 -55 -71 -73s-67.667 -27 -107 -27c-50.667 0 -91.834 13.667 -123.501 41s-47.5 63 -47.5 107c0 48 20.333 85.5 61 112.5s103 44.833 187 53.5l101 10v14
c0 38 -12.5 68.167 -37.5 90.5s-57.833 33.5 -98.5 33.5c-38.667 0 -70.334 -10.667 -95.001 -32s-39.334 -50.333 -44.001 -87l-61 12c7.33301 49.333 29.333 89.166 66 119.499s81.334 45.5 134.001 45.5zM221.002 50c54.667 0 97.167 16.001 127.5 48.001
s45.5 77 45.5 135v30l-99 -10c-122.667 -13.333 -184 -51 -184 -113c0 -26.667 10.333 -48.334 31 -65.001s47 -25 79 -25z" />
    <glyph glyph-name="Aogonek" unicode="&#x104;" horiz-adv-x="643" 
d="M663 -125l10 -61c-16 -2.66699 -31.333 -4 -46 -4c-32.667 0 -59 9 -79 27s-30 41.333 -30 70c0 13.333 4.33301 29 13 47s19.334 33.333 32.001 46l-75 191h-333l-76 -191h-69l282 700h59l282 -700c-32 -32 -48 -60 -48 -84c0 -12.667 4.16699 -23 12.5 -31
s19.166 -12 32.499 -12c15.333 0 26.333 0.666992 33 2zM180 253h283l-141 358z" />
    <glyph glyph-name="aogonek" unicode="&#x105;" 
d="M487 -125l10.0029 -61c-16 -2.66699 -31.333 -4 -46 -4c-32.667 0 -59 9 -79 27s-30 41.333 -30 70c0 15.333 5.16699 32.833 15.5 52.5s22.5 35.5 36.5 47.5v85c-15.333 -30.667 -39 -55 -71 -73s-67.667 -27 -107 -27c-50.667 0 -91.834 13.667 -123.501 41
s-47.5 63 -47.5 107c0 48 20.333 85.5 61 112.5s103 44.833 187 53.5l101 10v14c0 38 -12.5 68.167 -37.5 90.5s-57.833 33.5 -98.5 33.5c-38.667 0 -70.334 -10.667 -95.001 -32s-39.334 -50.333 -44.001 -87l-61 12c7.33301 49.333 29.333 89.166 66 119.499
s81.334 45.5 134.001 45.5c58.667 0 106.5 -16.667 143.5 -50s55.5 -76.666 55.5 -129.999v-332c-32 -32 -48 -60 -48 -84c0 -12.667 4.16699 -23 12.5 -31s19.166 -12 32.499 -12c15.333 0 26.333 0.666992 33 2zM221.003 50c54.667 0 97.167 16.001 127.5 48.001
s45.5 77 45.5 135v30l-99 -10c-122.667 -13.333 -184 -51 -184 -113c0 -26.667 10.333 -48.334 31 -65.001s47 -25 79 -25z" />
    <glyph glyph-name="Cacute" unicode="&#x106;" horiz-adv-x="705" 
d="M340 756l77 148h85l-115 -148h-47zM379 -8c-44 0 -85.665 7.5 -124.998 22.5s-74.833 36.667 -106.5 65s-56.834 65.833 -75.501 112.5s-28 99.334 -28 158.001s9.33301 111.334 28 158.001s44 84.167 76 112.5s67.667 50 107 65s80.666 22.5 123.999 22.5
c72.667 0 134.667 -19.333 186 -58s85.333 -91 102 -157l-66 -15c-12 53.333 -37.333 94.666 -76 123.999s-87.334 44 -146.001 44c-79.333 0 -143.333 -26 -192 -78s-73 -124.667 -73 -218s24.333 -166 73 -218s112.667 -78 192 -78c58.667 0 106.834 14.167 144.501 42.5
s63.5 69.166 77.5 122.499l66 -13c-18 -66 -52.5 -118.167 -103.5 -156.5s-112.5 -57.5 -184.5 -57.5z" />
    <glyph glyph-name="cacute" unicode="&#x107;" horiz-adv-x="542" 
d="M256 560l77 148h85l-115 -148h-47zM290 -8c-74.667 0 -134.501 23.668 -179.501 71.001s-67.5 110.333 -67.5 189s22.5 141.667 67.5 189s104.833 71 179.5 71c54.667 0 101.334 -14.5 140.001 -43.5s62.667 -67.167 72 -114.5l-62 -13
c-6.66699 33.333 -23.667 60.5 -51 81.5s-60.333 31.5 -99 31.5c-54.667 0 -98.5 -18.333 -131.5 -55s-49.5 -85.667 -49.5 -147s16.5 -110.333 49.5 -147s76.833 -55 131.5 -55c40 0 73.5 10.167 100.5 30.5s44.167 49.166 51.5 86.499l62 -12
c-11.333 -51.333 -36 -91.333 -74 -120s-84.667 -43 -140 -43z" />
    <glyph glyph-name="Ccircumflex" unicode="&#x108;" horiz-adv-x="705" 
d="M347 904h47l118 -148h-56l-85 96l-87 -96h-55zM379 -8c-44 0 -85.665 7.5 -124.998 22.5s-74.833 36.667 -106.5 65s-56.834 65.833 -75.501 112.5s-28 99.334 -28 158.001s9.33301 111.334 28 158.001s44 84.167 76 112.5s67.667 50 107 65s80.666 22.5 123.999 22.5
c72.667 0 134.667 -19.333 186 -58s85.333 -91 102 -157l-66 -15c-12 53.333 -37.333 94.666 -76 123.999s-87.334 44 -146.001 44c-79.333 0 -143.333 -26 -192 -78s-73 -124.667 -73 -218s24.333 -166 73 -218s112.667 -78 192 -78c58.667 0 106.834 14.167 144.501 42.5
s63.5 69.166 77.5 122.499l66 -13c-18 -66 -52.5 -118.167 -103.5 -156.5s-112.5 -57.5 -184.5 -57.5z" />
    <glyph glyph-name="ccircumflex" unicode="&#x109;" horiz-adv-x="542" 
d="M263 708h47l118 -148h-56l-85 96l-87 -96h-55zM290 -8c-74.667 0 -134.501 23.668 -179.501 71.001s-67.5 110.333 -67.5 189s22.5 141.667 67.5 189s104.833 71 179.5 71c54.667 0 101.334 -14.5 140.001 -43.5s62.667 -67.167 72 -114.5l-62 -13
c-6.66699 33.333 -23.667 60.5 -51 81.5s-60.333 31.5 -99 31.5c-54.667 0 -98.5 -18.333 -131.5 -55s-49.5 -85.667 -49.5 -147s16.5 -110.333 49.5 -147s76.833 -55 131.5 -55c40 0 73.5 10.167 100.5 30.5s44.167 49.166 51.5 86.499l62 -12
c-11.333 -51.333 -36 -91.333 -74 -120s-84.667 -43 -140 -43z" />
    <glyph glyph-name="Cdotaccent" unicode="&#x10a;" horiz-adv-x="705" 
d="M333 904h78v-96h-78v96zM379 -8c-44 0 -85.665 7.5 -124.998 22.5s-74.833 36.667 -106.5 65s-56.834 65.833 -75.501 112.5s-28 99.334 -28 158.001s9.33301 111.334 28 158.001s44 84.167 76 112.5s67.667 50 107 65s80.666 22.5 123.999 22.5
c72.667 0 134.667 -19.333 186 -58s85.333 -91 102 -157l-66 -15c-12 53.333 -37.333 94.666 -76 123.999s-87.334 44 -146.001 44c-79.333 0 -143.333 -26 -192 -78s-73 -124.667 -73 -218s24.333 -166 73 -218s112.667 -78 192 -78c58.667 0 106.834 14.167 144.501 42.5
s63.5 69.166 77.5 122.499l66 -13c-18 -66 -52.5 -118.167 -103.5 -156.5s-112.5 -57.5 -184.5 -57.5z" />
    <glyph glyph-name="cdotaccent" unicode="&#x10b;" horiz-adv-x="542" 
d="M249 708h78v-96h-78v96zM290 -8c-74.667 0 -134.501 23.668 -179.501 71.001s-67.5 110.333 -67.5 189s22.5 141.667 67.5 189s104.833 71 179.5 71c54.667 0 101.334 -14.5 140.001 -43.5s62.667 -67.167 72 -114.5l-62 -13c-6.66699 33.333 -23.667 60.5 -51 81.5
s-60.333 31.5 -99 31.5c-54.667 0 -98.5 -18.333 -131.5 -55s-49.5 -85.667 -49.5 -147s16.5 -110.333 49.5 -147s76.833 -55 131.5 -55c40 0 73.5 10.167 100.5 30.5s44.167 49.166 51.5 86.499l62 -12c-11.333 -51.333 -36 -91.333 -74 -120s-84.667 -43 -140 -43z" />
    <glyph glyph-name="Ccaron" unicode="&#x10c;" horiz-adv-x="705" 
d="M347 756l-118 148h55l87 -96l85 96h56l-118 -148h-47zM379 -8c-44 0 -85.665 7.5 -124.998 22.5s-74.833 36.667 -106.5 65s-56.834 65.833 -75.501 112.5s-28 99.334 -28 158.001s9.33301 111.334 28 158.001s44 84.167 76 112.5s67.667 50 107 65
s80.666 22.5 123.999 22.5c72.667 0 134.667 -19.333 186 -58s85.333 -91 102 -157l-66 -15c-12 53.333 -37.333 94.666 -76 123.999s-87.334 44 -146.001 44c-79.333 0 -143.333 -26 -192 -78s-73 -124.667 -73 -218s24.333 -166 73 -218s112.667 -78 192 -78
c58.667 0 106.834 14.167 144.501 42.5s63.5 69.166 77.5 122.499l66 -13c-18 -66 -52.5 -118.167 -103.5 -156.5s-112.5 -57.5 -184.5 -57.5z" />
    <glyph glyph-name="ccaron" unicode="&#x10d;" horiz-adv-x="542" 
d="M263 560l-118 148h55l87 -96l85 96h56l-118 -148h-47zM290 -8c-74.667 0 -134.501 23.668 -179.501 71.001s-67.5 110.333 -67.5 189s22.5 141.667 67.5 189s104.833 71 179.5 71c54.667 0 101.334 -14.5 140.001 -43.5s62.667 -67.167 72 -114.5l-62 -13
c-6.66699 33.333 -23.667 60.5 -51 81.5s-60.333 31.5 -99 31.5c-54.667 0 -98.5 -18.333 -131.5 -55s-49.5 -85.667 -49.5 -147s16.5 -110.333 49.5 -147s76.833 -55 131.5 -55c40 0 73.5 10.167 100.5 30.5s44.167 49.166 51.5 86.499l62 -12
c-11.333 -51.333 -36 -91.333 -74 -120s-84.667 -43 -140 -43z" />
    <glyph glyph-name="Dcaron" unicode="&#x10e;" horiz-adv-x="664" 
d="M273 756l-118 148h55l87 -96l85 96h56l-118 -148h-47zM76 0v700h198c100.667 0 183.5 -31.5 248.5 -94.5s97.5 -148.167 97.5 -255.5s-32.5 -192.5 -97.5 -255.5s-147.833 -94.5 -248.5 -94.5h-198zM143 62l133 -0.00195312c77.333 0 142.166 24.333 194.499 73
s78.5 120.334 78.5 215.001s-26.167 166.334 -78.5 215.001s-117.166 73 -194.499 73h-133v-576z" />
    <glyph glyph-name="dcaron" unicode="&#x10f;" horiz-adv-x="657" 
d="M574 560l33 168h70l-63 -168h-40zM288 -8c-77.333 0 -137.502 24.5 -180.502 73.5s-64.5 111.167 -64.5 186.5s21.5 137.5 64.5 186.5s103.167 73.5 180.5 73.5c34.667 0 68.334 -8.33301 101.001 -25s57.334 -38 74.001 -64v285h63v-708h-63v81
c-11.333 -24.667 -33.5 -45.667 -66.5 -63s-69.167 -26 -108.5 -26zM289.998 50c54.667 0 98.334 18.333 131.001 55s49 85.667 49 147s-16.333 110.333 -49 147s-76.334 55 -131.001 55s-98.334 -18.333 -131.001 -55s-49 -85.667 -49 -147s16.333 -110.333 49 -147
s76.334 -55 131.001 -55z" />
    <glyph glyph-name="Dcroat" unicode="&#x110;" horiz-adv-x="664" 
d="M274 700c100.667 0 183.5 -31.5 248.5 -94.5s97.5 -148.167 97.5 -255.5s-32.5 -192.5 -97.5 -255.5s-147.833 -94.5 -248.5 -94.5h-198v324h-59v52h59v324h198zM276 62c77.333 0 142.166 24.3311 194.499 72.998s78.5 120.334 78.5 215.001
s-26.167 166.334 -78.5 215.001s-117.166 73 -194.499 73h-133v-262h166v-52h-166v-262h133z" />
    <glyph glyph-name="dcroat" unicode="&#x111;" horiz-adv-x="599" 
d="M609 629l-0.00195312 -52h-83v-577h-63v81c-11.333 -24.667 -33.5 -45.667 -66.5 -63s-69.167 -26 -108.5 -26c-77.333 0 -137.5 24.5 -180.5 73.5s-64.5 111.167 -64.5 186.5s21.5 137.5 64.5 186.5s103.167 73.5 180.5 73.5c34.667 0 68.334 -8.33301 101.001 -25
s57.334 -38 74.001 -64v154h-146v52h146v79h63v-79h83zM289.998 50c54.667 0 98.334 18.333 131.001 55s49 85.667 49 147s-16.333 110.333 -49 147s-76.334 55 -131.001 55s-98.334 -18.333 -131.001 -55s-49 -85.667 -49 -147s16.333 -110.333 49 -147
s76.334 -55 131.001 -55z" />
    <glyph glyph-name="Emacron" unicode="&#x112;" horiz-adv-x="560" 
d="M169 790v56h261v-56h-261zM76 0v700h427v-62h-360v-234h295v-62h-295v-280h371v-62h-438z" />
    <glyph glyph-name="emacron" unicode="&#x113;" horiz-adv-x="562" 
d="M410 650v-56h-261v56h261zM519 279c0 -12.667 -0.666016 -23.666 -1.99902 -32.999h-410c0.666992 -58 17.334 -105.167 50.001 -141.5s74.667 -54.5 126 -54.5c43.333 0 79.166 9.66699 107.499 29s46.166 46.666 53.499 81.999l60 -12
c-11.333 -50 -36.333 -88.667 -75 -116s-87 -41 -145 -41c-71.333 0 -129.333 24.5 -174 73.5s-67 111.167 -67 186.5s22.333 137.5 67 186.5s102.667 73.5 174 73.5c68.667 0 125 -21.833 169 -65.5s66 -99.5 66 -167.5zM112.001 304.001h341.999
c-5.33301 44.667 -23 80.834 -53 108.501s-69 41.5 -117 41.5c-44.667 0 -82.167 -13.333 -112.5 -40s-50.166 -63.334 -59.499 -110.001z" />
    <glyph glyph-name="Ebreve" unicode="&#x114;" horiz-adv-x="560" 
d="M300 753c-35.333 0 -64.666 11.667 -87.999 35s-35 52.666 -35 87.999h55c0 -20 6.5 -36.833 19.5 -50.5s29.167 -20.5 48.5 -20.5s35.666 6.83301 48.999 20.5s20 30.5 20 50.5h55c0 -35.333 -11.833 -64.666 -35.5 -87.999s-53.167 -35 -88.5 -35zM76 0v700h427v-62
h-360v-234h295v-62h-295v-280h371v-62h-438z" />
    <glyph glyph-name="ebreve" unicode="&#x115;" horiz-adv-x="562" 
d="M280 557c-35.333 0 -64.666 11.667 -87.999 35s-35 52.666 -35 87.999h55c0 -20 6.5 -36.833 19.5 -50.5s29.167 -20.5 48.5 -20.5s35.666 6.83301 48.999 20.5s20 30.5 20 50.5h55c0 -35.333 -11.833 -64.666 -35.5 -87.999s-53.167 -35 -88.5 -35zM519 279
c0 -12.667 -0.666016 -23.666 -1.99902 -32.999h-410c0.666992 -58 17.334 -105.167 50.001 -141.5s74.667 -54.5 126 -54.5c43.333 0 79.166 9.66699 107.499 29s46.166 46.666 53.499 81.999l60 -12c-11.333 -50 -36.333 -88.667 -75 -116s-87 -41 -145 -41
c-71.333 0 -129.333 24.5 -174 73.5s-67 111.167 -67 186.5s22.333 137.5 67 186.5s102.667 73.5 174 73.5c68.667 0 125 -21.833 169 -65.5s66 -99.5 66 -167.5zM112.001 304.001h341.999c-5.33301 44.667 -23 80.834 -53 108.501s-69 41.5 -117 41.5
c-44.667 0 -82.167 -13.333 -112.5 -40s-50.166 -63.334 -59.499 -110.001z" />
    <glyph glyph-name="Edotaccent" unicode="&#x116;" horiz-adv-x="560" 
d="M262 904h78v-96h-78v96zM76 0v700h427v-62h-360v-234h295v-62h-295v-280h371v-62h-438z" />
    <glyph glyph-name="edotaccent" unicode="&#x117;" horiz-adv-x="562" 
d="M320 708v-96h-78v96h78zM519 279c0 -12.667 -0.666016 -23.666 -1.99902 -32.999h-410c0.666992 -58 17.334 -105.167 50.001 -141.5s74.667 -54.5 126 -54.5c43.333 0 79.166 9.66699 107.499 29s46.166 46.666 53.499 81.999l60 -12
c-11.333 -50 -36.333 -88.667 -75 -116s-87 -41 -145 -41c-71.333 0 -129.333 24.5 -174 73.5s-67 111.167 -67 186.5s22.333 137.5 67 186.5s102.667 73.5 174 73.5c68.667 0 125 -21.833 169 -65.5s66 -99.5 66 -167.5zM112.001 304.001h341.999
c-5.33301 44.667 -23 80.834 -53 108.501s-69 41.5 -117 41.5c-44.667 0 -82.167 -13.333 -112.5 -40s-50.166 -63.334 -59.499 -110.001z" />
    <glyph glyph-name="Eogonek" unicode="&#x118;" horiz-adv-x="560" 
d="M544 -125l10 -61c-16 -2.66699 -31.333 -4 -46 -4c-32.667 0 -59 9 -79 27s-30 41.333 -30 70c0 13.333 4.33301 29 13 47s19.334 33.333 32.001 46h-368v700h427v-62h-360v-234h295v-62h-295v-280h371v-62c-32 -32 -48 -60 -48 -84c0 -12.667 4.16699 -23 12.5 -31
s19.166 -12 32.499 -12c15.333 0 26.333 0.666992 33 2z" />
    <glyph glyph-name="eogonek" unicode="&#x119;" horiz-adv-x="562" 
d="M519 279c0 -12.667 -0.664062 -23.666 -1.99707 -32.999h-410c0.666992 -58 17.334 -105.167 50.001 -141.5s74.667 -54.5 126 -54.5c43.333 0 79.166 9.66699 107.499 29s46.166 46.666 53.499 81.999l60 -12c-9.33301 -41.333 -28.333 -75 -57 -101
s-64.334 -43 -107.001 -51c-30 -31.333 -45 -58.333 -45 -81c0 -12.667 4.16699 -23 12.5 -31s19.166 -12 32.499 -12c15.333 0 26.333 0.666992 33 2l10 -61c-16 -2.66699 -31.333 -4 -46 -4c-32.667 0 -59 9 -79 27s-30 41.333 -30 70c0 27.333 12.667 56 38 86
c-66 4 -119.667 30.167 -161 78.5s-62 108.5 -62 180.5c0 75.333 22.333 137.5 67 186.5s102.667 73.5 174 73.5c68.667 0 125 -21.833 169 -65.5s66 -99.5 66 -167.5zM112.003 304.001h341.999c-5.33301 44.667 -23 80.834 -53 108.501s-69 41.5 -117 41.5
c-44.667 0 -82.167 -13.333 -112.5 -40s-50.166 -63.334 -59.499 -110.001z" />
    <glyph glyph-name="Ecaron" unicode="&#x11a;" horiz-adv-x="560" 
d="M276 756l-118 148h55l87 -96l85 96h56l-118 -148h-47zM76 0v700h427v-62h-360v-234h295v-62h-295v-280h371v-62h-438z" />
    <glyph glyph-name="ecaron" unicode="&#x11b;" horiz-adv-x="562" 
d="M303 560h-47l-118 148h55l87 -96l85 96h56zM519 279c0 -12.667 -0.666016 -23.666 -1.99902 -32.999h-410c0.666992 -58 17.334 -105.167 50.001 -141.5s74.667 -54.5 126 -54.5c43.333 0 79.166 9.66699 107.499 29s46.166 46.666 53.499 81.999l60 -12
c-11.333 -50 -36.333 -88.667 -75 -116s-87 -41 -145 -41c-71.333 0 -129.333 24.5 -174 73.5s-67 111.167 -67 186.5s22.333 137.5 67 186.5s102.667 73.5 174 73.5c68.667 0 125 -21.833 169 -65.5s66 -99.5 66 -167.5zM112.001 304.001h341.999
c-5.33301 44.667 -23 80.834 -53 108.501s-69 41.5 -117 41.5c-44.667 0 -82.167 -13.333 -112.5 -40s-50.166 -63.334 -59.499 -110.001z" />
    <glyph glyph-name="Gcircumflex" unicode="&#x11c;" horiz-adv-x="737" 
d="M340 904h47l118 -148h-56l-85 96l-87 -96h-55zM378 -8c-59.333 0 -113.666 12.832 -162.999 38.499s-90.166 66.167 -122.499 121.5s-48.5 121.333 -48.5 198s16.167 142.667 48.5 198s73.166 95.833 122.499 121.5s103.333 38.5 162 38.5c74 0 137.333 -19.5 190 -58.5
s86 -90.833 100 -155.5l-66 -15c-10.667 52.667 -35.667 93.667 -75 123s-89 44 -149 44c-78 0 -141.167 -26 -189.5 -78s-72.5 -124.667 -72.5 -218s24.167 -166 72.5 -218s111.5 -78 189.5 -78c71.333 0 128 22 170 66s63.333 101.333 64 172h-264v62h328v-354h-60v121
c-16.667 -39.333 -46.834 -70.666 -90.501 -93.999s-92.5 -35 -146.5 -35z" />
    <glyph glyph-name="gcircumflex" unicode="&#x11d;" horiz-adv-x="594" 
d="M287 656l-87 -96h-55l118 148h47l118 -148h-56zM459 504l61.999 0.000976562v-485c0 -62 -21.167 -112.333 -63.5 -151s-96.833 -58 -163.5 -58c-58.667 0 -108.167 14 -148.5 42s-63.833 64.333 -70.5 109l63 11c2 -30.667 17.667 -55.834 47 -75.501
s65.666 -29.5 108.999 -29.5c48 0 87.5 13.5 118.5 40.5s46.5 62.167 46.5 105.5v78c-11.333 -23.333 -33.166 -42.333 -65.499 -57s-68.166 -22 -107.499 -22c-76.667 0 -136.334 23.5 -179.001 70.5s-64 106.833 -64 179.5s21.333 132.5 64 179.5s102 70.5 178 70.5
c34.667 0 68.334 -8 101.001 -24s57 -36.333 73 -61v77zM287.999 70.001c53.333 0 96.166 17.5 128.499 52.5s48.5 81.5 48.5 139.5s-16.167 104.5 -48.5 139.5s-75.166 52.5 -128.499 52.5c-54 0 -97.167 -17.5 -129.5 -52.5s-48.5 -81.5 -48.5 -139.5
s16.167 -104.5 48.5 -139.5s75.5 -52.5 129.5 -52.5z" />
    <glyph glyph-name="Gbreve" unicode="&#x11e;" horiz-adv-x="737" 
d="M364 753c-35.333 0 -64.666 11.667 -87.999 35s-35 52.666 -35 87.999h55c0 -20 6.5 -36.833 19.5 -50.5s29.167 -20.5 48.5 -20.5s35.666 6.83301 48.999 20.5s20 30.5 20 50.5h55c0 -35.333 -11.833 -64.666 -35.5 -87.999s-53.167 -35 -88.5 -35zM378 -8
c-59.333 0 -113.666 12.832 -162.999 38.499s-90.166 66.167 -122.499 121.5s-48.5 121.333 -48.5 198s16.167 142.667 48.5 198s73.166 95.833 122.499 121.5s103.333 38.5 162 38.5c74 0 137.333 -19.5 190 -58.5s86 -90.833 100 -155.5l-66 -15
c-10.667 52.667 -35.667 93.667 -75 123s-89 44 -149 44c-78 0 -141.167 -26 -189.5 -78s-72.5 -124.667 -72.5 -218s24.167 -166 72.5 -218s111.5 -78 189.5 -78c71.333 0 128 22 170 66s63.333 101.333 64 172h-264v62h328v-354h-60v121
c-16.667 -39.333 -46.834 -70.666 -90.501 -93.999s-92.5 -35 -146.5 -35z" />
    <glyph glyph-name="gbreve" unicode="&#x11f;" horiz-adv-x="594" 
d="M287 557c-35.333 0 -64.666 11.667 -87.999 35s-35 52.666 -35 87.999h55c0 -20 6.5 -36.833 19.5 -50.5s29.167 -20.5 48.5 -20.5s35.666 6.83301 48.999 20.5s20 30.5 20 50.5h55c0 -35.333 -11.833 -64.666 -35.5 -87.999s-53.167 -35 -88.5 -35zM459 504
l61.999 0.000976562v-485c0 -62 -21.167 -112.333 -63.5 -151s-96.833 -58 -163.5 -58c-58.667 0 -108.167 14 -148.5 42s-63.833 64.333 -70.5 109l63 11c2 -30.667 17.667 -55.834 47 -75.501s65.666 -29.5 108.999 -29.5c48 0 87.5 13.5 118.5 40.5
s46.5 62.167 46.5 105.5v78c-11.333 -23.333 -33.166 -42.333 -65.499 -57s-68.166 -22 -107.499 -22c-76.667 0 -136.334 23.5 -179.001 70.5s-64 106.833 -64 179.5s21.333 132.5 64 179.5s102 70.5 178 70.5c34.667 0 68.334 -8 101.001 -24s57 -36.333 73 -61v77z
M287.999 70.001c53.333 0 96.166 17.5 128.499 52.5s48.5 81.5 48.5 139.5s-16.167 104.5 -48.5 139.5s-75.166 52.5 -128.499 52.5c-54 0 -97.167 -17.5 -129.5 -52.5s-48.5 -81.5 -48.5 -139.5s16.167 -104.5 48.5 -139.5s75.5 -52.5 129.5 -52.5z" />
    <glyph glyph-name="Gdotaccent" unicode="&#x120;" horiz-adv-x="737" 
d="M326 904h78v-96h-78v96zM378 -8c-59.333 0 -113.666 12.832 -162.999 38.499s-90.166 66.167 -122.499 121.5s-48.5 121.333 -48.5 198s16.167 142.667 48.5 198s73.166 95.833 122.499 121.5s103.333 38.5 162 38.5c74 0 137.333 -19.5 190 -58.5s86 -90.833 100 -155.5
l-66 -15c-10.667 52.667 -35.667 93.667 -75 123s-89 44 -149 44c-78 0 -141.167 -26 -189.5 -78s-72.5 -124.667 -72.5 -218s24.167 -166 72.5 -218s111.5 -78 189.5 -78c71.333 0 128 22 170 66s63.333 101.333 64 172h-264v62h328v-354h-60v121
c-16.667 -39.333 -46.834 -70.666 -90.501 -93.999s-92.5 -35 -146.5 -35z" />
    <glyph glyph-name="gdotaccent" unicode="&#x121;" horiz-adv-x="594" 
d="M327 708v-96h-78v96h78zM459 504l61.999 0.000976562v-485c0 -62 -21.167 -112.333 -63.5 -151s-96.833 -58 -163.5 -58c-58.667 0 -108.167 14 -148.5 42s-63.833 64.333 -70.5 109l63 11c2 -30.667 17.667 -55.834 47 -75.501s65.666 -29.5 108.999 -29.5
c48 0 87.5 13.5 118.5 40.5s46.5 62.167 46.5 105.5v78c-11.333 -23.333 -33.166 -42.333 -65.499 -57s-68.166 -22 -107.499 -22c-76.667 0 -136.334 23.5 -179.001 70.5s-64 106.833 -64 179.5s21.333 132.5 64 179.5s102 70.5 178 70.5c34.667 0 68.334 -8 101.001 -24
s57 -36.333 73 -61v77zM287.999 70.001c53.333 0 96.166 17.5 128.499 52.5s48.5 81.5 48.5 139.5s-16.167 104.5 -48.5 139.5s-75.166 52.5 -128.499 52.5c-54 0 -97.167 -17.5 -129.5 -52.5s-48.5 -81.5 -48.5 -139.5s16.167 -104.5 48.5 -139.5s75.5 -52.5 129.5 -52.5z
" />
    <glyph glyph-name="uni0122" unicode="&#x122;" horiz-adv-x="737" 
d="M378 -8c-59.333 0 -113.666 12.832 -162.999 38.499s-90.166 66.167 -122.499 121.5s-48.5 121.333 -48.5 198s16.167 142.667 48.5 198s73.166 95.833 122.499 121.5s103.333 38.5 162 38.5c74 0 137.333 -19.5 190 -58.5s86 -90.833 100 -155.5l-66 -15
c-10.667 52.667 -35.667 93.667 -75 123s-89 44 -149 44c-78 0 -141.167 -26 -189.5 -78s-72.5 -124.667 -72.5 -218s24.167 -166 72.5 -218s111.5 -78 189.5 -78c71.333 0 128 22 170 66s63.333 101.333 64 172h-264v62h328v-354h-60v121
c-16.667 -39.333 -46.834 -70.666 -90.501 -93.999s-92.5 -35 -146.5 -35zM278 -190.001l47 148h76l-76 -148h-47z" />
    <glyph glyph-name="uni0123" unicode="&#x123;" horiz-adv-x="594" 
d="M367 708l-30 -148h-75l58 148h47zM459 504l61.999 0.000976562v-485c0 -62 -21.167 -112.333 -63.5 -151s-96.833 -58 -163.5 -58c-58.667 0 -108.167 14 -148.5 42s-63.833 64.333 -70.5 109l63 11c2 -30.667 17.667 -55.834 47 -75.501s65.666 -29.5 108.999 -29.5
c48 0 87.5 13.5 118.5 40.5s46.5 62.167 46.5 105.5v78c-11.333 -23.333 -33.166 -42.333 -65.499 -57s-68.166 -22 -107.499 -22c-76.667 0 -136.334 23.5 -179.001 70.5s-64 106.833 -64 179.5s21.333 132.5 64 179.5s102 70.5 178 70.5c34.667 0 68.334 -8 101.001 -24
s57 -36.333 73 -61v77zM287.999 70.001c53.333 0 96.166 17.5 128.499 52.5s48.5 81.5 48.5 139.5s-16.167 104.5 -48.5 139.5s-75.166 52.5 -128.499 52.5c-54 0 -97.167 -17.5 -129.5 -52.5s-48.5 -81.5 -48.5 -139.5s16.167 -104.5 48.5 -139.5s75.5 -52.5 129.5 -52.5z
" />
    <glyph glyph-name="Hcircumflex" unicode="&#x124;" horiz-adv-x="680" 
d="M340 852l-87 -96h-55l118 148h47l118 -148h-56zM537 700h67v-700h-67v341h-394v-341h-67v700h67v-297h394v297z" />
    <glyph glyph-name="hcircumflex" unicode="&#x125;" horiz-adv-x="577" 
d="M79 904h47l118 -148h-56l-85 96l-87 -96h-55zM73 0l0.00195312 708h63v-314c38 78.667 97.667 118 179 118c57.333 0 103.166 -16.167 137.499 -48.5s51.5 -75.5 51.5 -129.5v-334h-63v326c0 40 -11.833 71.333 -35.5 94s-56.834 34 -99.501 34
c-51.333 0 -92.5 -21.667 -123.5 -65s-46.5 -101.333 -46.5 -174v-215h-63z" />
    <glyph glyph-name="Hbar" unicode="&#x126;" horiz-adv-x="680" 
d="M675 580v-58h-71v-522h-67v341h-394v-341h-67v522h-72v58h72v120h67v-120h394v120h67v-120h71zM537 403v119h-394v-119h394z" />
    <glyph glyph-name="hbar" unicode="&#x127;" horiz-adv-x="577" 
d="M315 512c57.333 0 103.168 -16.167 137.501 -48.5s51.5 -75.5 51.5 -129.5v-334h-63v326c0 40 -11.833 71.333 -35.5 94s-56.834 34 -99.501 34c-51.333 0 -92.5 -21.667 -123.5 -65s-46.5 -101.333 -46.5 -174v-215h-63v578h-88v52h88v78h63v-78h141v-52h-141v-184
c38 78.667 97.667 118 179 118z" />
    <glyph glyph-name="Itilde" unicode="&#x128;" horiz-adv-x="219" 
d="M-4 789l-47 8c0.666992 27.333 9.83398 49.5 27.501 66.5s40.5 25.5 68.5 25.5c24 0 47.333 -9 70 -27c27.333 -19.333 49.666 -29 66.999 -29c28.667 0 44.667 16.333 48 49l48 -9c-1.33301 -27.333 -10.833 -49.333 -28.5 -66s-40.167 -25 -67.5 -25
c-21.333 0 -45 8.66699 -71 26c-1.33301 1.33301 -5.33301 4.33301 -12 9s-11.167 7.66699 -13.5 9s-6.16602 3.33301 -11.499 6s-10.333 4.5 -15 5.5s-9.33398 1.5 -14.001 1.5c-14 0 -25.333 -4.33301 -34 -13s-13.667 -21 -15 -37zM76 0v700h67v-700h-67z" />
    <glyph glyph-name="itilde" unicode="&#x129;" horiz-adv-x="209" 
d="M-9 593l-47 8c0.666992 27.333 9.83398 49.5 27.501 66.5s40.5 25.5 68.5 25.5c24 0 47.333 -9 70 -27c27.333 -19.333 49.666 -29 66.999 -29c28.667 0 44.667 16.333 48 49l48 -9c-1.33301 -27.333 -10.833 -49.333 -28.5 -66s-40.167 -25 -67.5 -25
c-21.333 0 -45 8.66699 -71 26c-1.33301 1.33301 -5.33301 4.33301 -12 9s-11.167 7.66699 -13.5 9s-6.16602 3.33301 -11.499 6s-10.333 4.5 -15 5.5s-9.33398 1.5 -14.001 1.5c-13.333 0 -24.5 -4.33301 -33.5 -13s-14.167 -21 -15.5 -37zM73 0v504h63v-504h-63z" />
    <glyph glyph-name="Imacron" unicode="&#x12a;" horiz-adv-x="219" 
d="M-22 790v56h261v-56h-261zM76 0v700h67v-700h-67z" />
    <glyph glyph-name="imacron" unicode="&#x12b;" horiz-adv-x="209" 
d="M-27 594v56h261v-56h-261zM73 0v504h63v-504h-63z" />
    <glyph glyph-name="Ibreve" unicode="&#x12c;" horiz-adv-x="219" 
d="M109 753c-35.333 0 -64.666 11.667 -87.999 35s-35 52.666 -35 87.999h55c0 -20 6.5 -36.833 19.5 -50.5s29.167 -20.5 48.5 -20.5s35.666 6.83301 48.999 20.5s20 30.5 20 50.5h55c0 -35.333 -11.833 -64.666 -35.5 -87.999s-53.167 -35 -88.5 -35zM76 0v700h67v-700
h-67z" />
    <glyph glyph-name="ibreve" unicode="&#x12d;" horiz-adv-x="209" 
d="M104 557c-35.333 0 -64.666 11.667 -87.999 35s-35 52.666 -35 87.999h55c0 -20 6.5 -36.833 19.5 -50.5s29.167 -20.5 48.5 -20.5s35.666 6.83301 48.999 20.5s20 30.5 20 50.5h55c0 -35.333 -11.833 -64.666 -35.5 -87.999s-53.167 -35 -88.5 -35zM73 0v504h63v-504
h-63z" />
    <glyph glyph-name="Iogonek" unicode="&#x12e;" horiz-adv-x="219" 
d="M173 -125l10 -61c-16 -2.66699 -31.333 -4 -46 -4c-32.667 0 -59 9 -79 27s-30 41.333 -30 70c0 14 4.83301 30.5 14.5 49.5s20.834 34.5 33.501 46.5v697h67v-700c-32 -32 -48 -60 -48 -84c0 -12.667 4.16699 -23 12.5 -31s19.166 -12 32.499 -12
c15.333 0 26.333 0.666992 33 2z" />
    <glyph glyph-name="iogonek" unicode="&#x12f;" horiz-adv-x="209" 
d="M144 708v-96h-78v96h78zM166 -125l10.001 -61c-16 -2.66699 -31.333 -4 -46 -4c-32.667 0 -59 9 -79 27s-30 41.333 -30 70c0 15.333 5.16699 32.833 15.5 52.5s22.5 35.5 36.5 47.5v497h63v-504c-32 -32 -48 -60 -48 -84c0 -12.667 4.16699 -23 12.5 -31
s19.166 -12 32.499 -12c15.333 0 26.333 0.666992 33 2z" />
    <glyph glyph-name="Idotaccent" unicode="&#x130;" horiz-adv-x="219" 
d="M71 904h78v-96h-78v96zM76 0v700h67v-700h-67z" />
    <glyph glyph-name="dotlessi" unicode="&#x131;" horiz-adv-x="209" 
d="M73 0v504h63v-504h-63z" />
    <glyph glyph-name="IJ" unicode="&#x132;" horiz-adv-x="546" 
d="M76 0v700h67v-700h-67zM244 63c15.333 -6 33.668 -9.00098 55.001 -9.00098c36 0 62.167 10 78.5 30s24.5 54.667 24.5 104v512h68v-505c0 -67.333 -15.333 -117.666 -46 -150.999s-72.334 -50 -125.001 -50c-20.667 0 -39 2.66699 -55 8v61z" />
    <glyph glyph-name="Jcircumflex" unicode="&#x134;" horiz-adv-x="327" 
d="M193 904h47l118 -148h-56l-85 96l-87 -96h-55zM25 63c15.333 -6 33.668 -9.00098 55.001 -9.00098c36 0 62.167 10 78.5 30s24.5 54.667 24.5 104v512h68v-505c0 -67.333 -15.333 -117.666 -46 -150.999s-72.334 -50 -125.001 -50c-20.667 0 -39 2.66699 -55 8v61z" />
    <glyph glyph-name="jcircumflex" unicode="&#x135;" horiz-adv-x="209" 
d="M80 708h47l118 -148h-56l-85 96l-87 -96h-55zM6 -190l-14 1l-2 57h10c48.667 0 73 31.333 73 94v542h63v-549c0 -42 -12 -76.667 -36 -104s-55.333 -41 -94 -41z" />
    <glyph glyph-name="uni0136" unicode="&#x136;" horiz-adv-x="605" 
d="M292 424l303 -424h-78l-271 376l-103 -104v-272h-67v700h67v-338l330 338h91zM199 -190l47 148h76l-76 -148h-47z" />
    <glyph glyph-name="uni0137" unicode="&#x137;" horiz-adv-x="514" 
d="M258 306l241 -306h-82l-209 262l-71 -64v-198h-64v708h64v-424l256 220h88zM153 -190l47 148h76l-76 -148h-47z" />
    <glyph glyph-name="kgreenlandic" unicode="&#x138;" horiz-adv-x="514" 
d="M417 0l-210 264l-70 -62v-202h-64v504h64v-223l260 223h81l-222 -196l243 -308h-82z" />
    <glyph glyph-name="Lacute" unicode="&#x139;" horiz-adv-x="517" 
d="M78 756l77 148h85l-115 -148h-47zM76 0v700h67v-638h359v-62h-426z" />
    <glyph glyph-name="lacute" unicode="&#x13a;" horiz-adv-x="209" 
d="M70 756l77 148h85l-115 -148h-47zM73 0v708h63v-708h-63z" />
    <glyph glyph-name="uni013B" unicode="&#x13b;" horiz-adv-x="517" 
d="M76 0v700h67v-638h359v-62h-426zM240 -190l47 148h76l-76 -148h-47z" />
    <glyph glyph-name="uni013C" unicode="&#x13c;" horiz-adv-x="209" 
d="M73 0v708h63v-708h-63zM15 -190l47 148h76l-76 -148h-47z" />
    <glyph glyph-name="Lcaron" unicode="&#x13d;" horiz-adv-x="517" 
d="M198 560l33 168h70l-63 -168h-40zM76 0v700h67v-638h359v-62h-426z" />
    <glyph glyph-name="lcaron" unicode="&#x13e;" horiz-adv-x="268" 
d="M185 560l33 168h70l-63 -168h-40zM73 0v708h63v-708h-63z" />
    <glyph glyph-name="Ldot" unicode="&#x13f;" horiz-adv-x="517" 
d="M76 0v700h67v-638h359v-62h-426zM313 396h79v-89h-79v89z" />
    <glyph glyph-name="ldot" unicode="&#x140;" horiz-adv-x="332" 
d="M73 0v708h63v-708h-63zM180 390h79v-89h-79v89z" />
    <glyph glyph-name="Lslash" unicode="&#x141;" horiz-adv-x="517" 
d="M143 62h359v-62h-426v280l-88 -41v62l88 41v358h67v-327l189 88v-61l-189 -88v-250z" />
    <glyph glyph-name="lslash" unicode="&#x142;" horiz-adv-x="271" 
d="M256 458v-62l-89 -42v-354h-63v325l-89 -42v62l89 42v321h63v-292z" />
    <glyph glyph-name="Nacute" unicode="&#x143;" horiz-adv-x="684" 
d="M312 756l77 148h85l-115 -148h-47zM76 0v700h81l383 -595v595h68v-700h-81l-383 593v-593h-68z" />
    <glyph glyph-name="nacute" unicode="&#x144;" horiz-adv-x="567" 
d="M250 560l77 148h85l-115 -148h-47zM73 0l-0.000976562 504.001h63v-105c19.333 34.667 44.5 62.167 75.5 82.5s65.833 30.5 104.5 30.5c52 0 94.667 -16.167 128 -48.5s50 -74.833 50 -127.5v-336h-63v328c0 37.333 -11.167 67.666 -33.5 90.999s-52.5 35 -90.5 35
c-51.333 0 -92.666 -21 -123.999 -63s-47 -98.667 -47 -170v-221h-63z" />
    <glyph glyph-name="uni0145" unicode="&#x145;" horiz-adv-x="684" 
d="M76 0v700h81l383 -595v595h68v-700h-81l-383 593v-593h-68zM257 -190l47 148h76l-76 -148h-47z" />
    <glyph glyph-name="uni0146" unicode="&#x146;" horiz-adv-x="567" 
d="M73 0l-0.000976562 504.001h63v-105c19.333 34.667 44.5 62.167 75.5 82.5s65.833 30.5 104.5 30.5c52 0 94.667 -16.167 128 -48.5s50 -74.833 50 -127.5v-336h-63v328c0 37.333 -11.167 67.666 -33.5 90.999s-52.5 35 -90.5 35c-51.333 0 -92.666 -21 -123.999 -63
s-47 -98.667 -47 -170v-221h-63zM194.999 -189.999l47 148h76l-76 -148h-47z" />
    <glyph glyph-name="Ncaron" unicode="&#x147;" horiz-adv-x="684" 
d="M319 756l-118 148h55l87 -96l85 96h56l-118 -148h-47zM76 0v700h81l383 -595v595h68v-700h-81l-383 593v-593h-68z" />
    <glyph glyph-name="ncaron" unicode="&#x148;" horiz-adv-x="567" 
d="M257 560l-118 148h55l87 -96l85 96h56l-118 -148h-47zM73 0l-0.000976562 504.001h63v-105c19.333 34.667 44.5 62.167 75.5 82.5s65.833 30.5 104.5 30.5c52 0 94.667 -16.167 128 -48.5s50 -74.833 50 -127.5v-336h-63v328c0 37.333 -11.167 67.666 -33.5 90.999
s-52.5 35 -90.5 35c-51.333 0 -92.666 -21 -123.999 -63s-47 -98.667 -47 -170v-221h-63z" />
    <glyph glyph-name="napostrophe" unicode="&#x149;" horiz-adv-x="567" 
d="M70 560l33 168h70l-63 -168h-40zM73 0l-0.000976562 504.001h63v-105c19.333 34.667 44.5 62.167 75.5 82.5s65.833 30.5 104.5 30.5c52 0 94.667 -16.167 128 -48.5s50 -74.833 50 -127.5v-336h-63v328c0 37.333 -11.167 67.666 -33.5 90.999s-52.5 35 -90.5 35
c-51.333 0 -92.666 -21 -123.999 -63s-47 -98.667 -47 -170v-221h-63z" />
    <glyph glyph-name="Eng" unicode="&#x14a;" horiz-adv-x="684" 
d="M540 700h68v-764c0 -45.333 -13.5 -81.833 -40.5 -109.5s-62.167 -39.167 -105.5 -34.5v60c27.333 -2 47.333 5 60 21s19 40 19 72v38l-397 610v-593h-68v700h81l383 -595v595z" />
    <glyph glyph-name="eng" unicode="&#x14b;" horiz-adv-x="567" 
d="M316 512c52 0 94.666 -16.166 127.999 -48.499s50 -74.833 50 -127.5v-381c0 -42 -12 -76.667 -36 -104s-55.333 -41 -94 -41c-6.66699 0 -12 0.333008 -16 1l-3 60h13c48.667 0.666992 73 31.667 73 93v364c0 37.333 -11.167 67.666 -33.5 90.999s-52.5 35 -90.5 35
c-51.333 0 -92.666 -21 -123.999 -63s-47 -98.667 -47 -170v-221h-63v504h63v-105c19.333 34.667 44.5 62.167 75.5 82.5s65.833 30.5 104.5 30.5z" />
    <glyph glyph-name="Omacron" unicode="&#x14c;" horiz-adv-x="767" 
d="M252 790v56h261v-56h-261zM383 -8c-98.667 0 -179.834 33.667 -243.501 101s-95.5 153 -95.5 257s31.833 189.667 95.5 257s144.834 101 243.501 101s180 -33.667 244 -101s96 -153 96 -257s-32 -189.667 -96 -257s-145.333 -101 -244 -101zM383 54
c78.667 0 143.334 27.833 194.001 83.5s76 126.5 76 212.5s-25.333 156.833 -76 212.5s-115.334 83.5 -194.001 83.5c-78 0 -142.333 -27.833 -193 -83.5s-76 -126.5 -76 -212.5s25.333 -156.833 76 -212.5s115 -83.5 193 -83.5z" />
    <glyph glyph-name="omacron" unicode="&#x14d;" horiz-adv-x="592" 
d="M165 594v56h261v-56h-261zM296 -8c-74 0 -134.667 24.333 -182 73s-71 111 -71 187s23.667 138.333 71 187s108 73 182 73c73.333 0 133.833 -24.333 181.5 -73s71.5 -111 71.5 -187s-23.833 -138.333 -71.5 -187s-108.167 -73 -181.5 -73zM296 50
c55.333 0 100.333 18.833 135 56.5s52 86.167 52 145.5s-17.333 107.833 -52 145.5s-79.667 56.5 -135 56.5c-56 0 -101.167 -18.833 -135.5 -56.5s-51.5 -86.167 -51.5 -145.5s17.167 -107.833 51.5 -145.5s79.5 -56.5 135.5 -56.5z" />
    <glyph glyph-name="Obreve" unicode="&#x14e;" horiz-adv-x="767" 
d="M383 753c-35.333 0 -64.666 11.667 -87.999 35s-35 52.666 -35 87.999h55c0 -20 6.5 -36.833 19.5 -50.5s29.167 -20.5 48.5 -20.5s35.666 6.83301 48.999 20.5s20 30.5 20 50.5h55c0 -35.333 -11.833 -64.666 -35.5 -87.999s-53.167 -35 -88.5 -35zM383 -8
c-98.667 0 -179.834 33.667 -243.501 101s-95.5 153 -95.5 257s31.833 189.667 95.5 257s144.834 101 243.501 101s180 -33.667 244 -101s96 -153 96 -257s-32 -189.667 -96 -257s-145.333 -101 -244 -101zM383 54c78.667 0 143.334 27.833 194.001 83.5s76 126.5 76 212.5
s-25.333 156.833 -76 212.5s-115.334 83.5 -194.001 83.5c-78 0 -142.333 -27.833 -193 -83.5s-76 -126.5 -76 -212.5s25.333 -156.833 76 -212.5s115 -83.5 193 -83.5z" />
    <glyph glyph-name="obreve" unicode="&#x14f;" horiz-adv-x="592" 
d="M296 557c-35.333 0 -64.666 11.667 -87.999 35s-35 52.666 -35 87.999h55c0 -20 6.5 -36.833 19.5 -50.5s29.167 -20.5 48.5 -20.5s35.666 6.83301 48.999 20.5s20 30.5 20 50.5h55c0 -35.333 -11.833 -64.666 -35.5 -87.999s-53.167 -35 -88.5 -35zM296 -8
c-74 0 -134.667 24.333 -182 73s-71 111 -71 187s23.667 138.333 71 187s108 73 182 73c73.333 0 133.833 -24.333 181.5 -73s71.5 -111 71.5 -187s-23.833 -138.333 -71.5 -187s-108.167 -73 -181.5 -73zM296 50c55.333 0 100.333 18.833 135 56.5s52 86.167 52 145.5
s-17.333 107.833 -52 145.5s-79.667 56.5 -135 56.5c-56 0 -101.167 -18.833 -135.5 -56.5s-51.5 -86.167 -51.5 -145.5s17.167 -107.833 51.5 -145.5s79.5 -56.5 135.5 -56.5z" />
    <glyph glyph-name="Ohungarumlaut" unicode="&#x150;" horiz-adv-x="767" 
d="M279 756l77 148h67l-85 -148h-59zM401 756l77 148h67l-85 -148h-59zM383 -8c-98.667 0 -179.834 33.667 -243.501 101s-95.5 153 -95.5 257s31.833 189.667 95.5 257s144.834 101 243.501 101s180 -33.667 244 -101s96 -153 96 -257s-32 -189.667 -96 -257
s-145.333 -101 -244 -101zM383 54c78.667 0 143.334 27.833 194.001 83.5s76 126.5 76 212.5s-25.333 156.833 -76 212.5s-115.334 83.5 -194.001 83.5c-78 0 -142.333 -27.833 -193 -83.5s-76 -126.5 -76 -212.5s25.333 -156.833 76 -212.5s115 -83.5 193 -83.5z" />
    <glyph glyph-name="ohungarumlaut" unicode="&#x151;" horiz-adv-x="592" 
d="M192 560l77 148h67l-85 -148h-59zM314 560l77 148h67l-85 -148h-59zM296 -8c-74 0 -134.667 24.333 -182 73s-71 111 -71 187s23.667 138.333 71 187s108 73 182 73c73.333 0 133.833 -24.333 181.5 -73s71.5 -111 71.5 -187s-23.833 -138.333 -71.5 -187
s-108.167 -73 -181.5 -73zM296 50c55.333 0 100.333 18.833 135 56.5s52 86.167 52 145.5s-17.333 107.833 -52 145.5s-79.667 56.5 -135 56.5c-56 0 -101.167 -18.833 -135.5 -56.5s-51.5 -86.167 -51.5 -145.5s17.167 -107.833 51.5 -145.5s79.5 -56.5 135.5 -56.5z" />
    <glyph glyph-name="OE" unicode="&#x152;" horiz-adv-x="1153" 
d="M736 62l371 0.00195312v-62h-438v148c-30 -48.667 -69.833 -86.834 -119.5 -114.501s-105.167 -41.5 -166.5 -41.5c-98.667 0 -179.834 33.667 -243.501 101s-95.5 153 -95.5 257s31.833 189.667 95.5 257s144.834 101 243.501 101c61.333 0 116.833 -13.833 166.5 -41.5
s89.5 -65.834 119.5 -114.501v148h427v-62h-360v-234h295v-62h-295v-280zM383 54.002c78.667 0 143.334 27.833 194.001 83.5s76 126.5 76 212.5s-25.333 156.833 -76 212.5s-115.334 83.5 -194.001 83.5c-78 0 -142.333 -27.833 -193 -83.5s-76 -126.5 -76 -212.5
s25.333 -156.833 76 -212.5s115 -83.5 193 -83.5z" />
    <glyph glyph-name="oe" unicode="&#x153;" horiz-adv-x="1007" 
d="M964 279c0 -12.667 -0.666016 -23.666 -1.99902 -32.999h-410c0.666992 -58 17.334 -105.167 50.001 -141.5s74.667 -54.5 126 -54.5c43.333 0 79.166 9.66699 107.499 29s46.166 46.666 53.499 81.999l60 -12c-11.333 -50 -36.333 -88.667 -75 -116s-87 -41 -145 -41
c-47.333 0 -89.333 11.333 -126 34s-65 54 -85 94c-21.333 -40 -51.333 -71.333 -90 -94s-82.667 -34 -132 -34c-74 0 -134.667 24.333 -182 73s-71 111 -71 187s23.667 138.333 71 187s108 73 182 73c49.333 0 93.333 -11.333 132 -34s68.667 -54 90 -94
c20 40 48.333 71.333 85 94s78.667 34 126 34c68.667 0 125 -21.833 169 -65.5s66 -99.5 66 -167.5zM296.001 50.001c55.333 0 100.333 18.833 135 56.5s52 86.167 52 145.5s-17.333 107.833 -52 145.5s-79.667 56.5 -135 56.5c-56 0 -101.167 -18.833 -135.5 -56.5
s-51.5 -86.167 -51.5 -145.5s17.167 -107.833 51.5 -145.5s79.5 -56.5 135.5 -56.5zM557.001 304.001h341.999c-5.33301 44.667 -23 80.834 -53 108.501s-69 41.5 -117 41.5c-44.667 0 -82.167 -13.333 -112.5 -40s-50.166 -63.334 -59.499 -110.001z" />
    <glyph glyph-name="Racute" unicode="&#x154;" horiz-adv-x="621" 
d="M410 904l-115 -148h-47l77 148h85zM606 0h-75l-209 326h-3h-176v-326h-67v700h243c65.333 0 117.833 -17 157.5 -51s59.5 -79.333 59.5 -136c0 -44 -12.5 -81.667 -37.5 -113s-59.5 -53 -103.5 -65zM143 638v-250h172c47.333 0 84.333 11 111 33s40 52.667 40 92
s-13.333 70 -40 92s-63.667 33 -111 33h-172z" />
    <glyph glyph-name="racute" unicode="&#x155;" horiz-adv-x="371" 
d="M178 560l77 148h85l-115 -148h-47zM352 442c-20 8 -42 12 -66 12c-44 0 -80 -22.5 -108 -67.5s-42 -108.833 -42 -191.5v-195h-63v504h63v-107c15.333 33.333 38 60.833 68 82.5s60.667 32.5 92 32.5c22 0 42 -3 60 -9z" />
    <glyph glyph-name="uni0156" unicode="&#x156;" horiz-adv-x="621" 
d="M395 335l211 -335h-75l-209 326h-3h-176v-326h-67v700h243c65.333 0 117.833 -17 157.5 -51s59.5 -79.333 59.5 -136c0 -44 -12.5 -81.667 -37.5 -113s-59.5 -53 -103.5 -65zM143 638v-250h172c47.333 0 84.333 11 111 33s40 52.667 40 92s-13.333 70 -40 92
s-63.667 33 -111 33h-172zM225 -190l47 148h76l-76 -148h-47z" />
    <glyph glyph-name="uni0157" unicode="&#x157;" horiz-adv-x="371" 
d="M352 442c-20 8 -42 12 -66 12c-44 0 -80 -22.5 -108 -67.5s-42 -108.833 -42 -191.5v-195h-63v504h63v-107c15.333 33.333 38 60.833 68 82.5s60.667 32.5 92 32.5c22 0 42 -3 60 -9zM19 -190l47 148h76l-76 -148h-47z" />
    <glyph glyph-name="Rcaron" unicode="&#x158;" horiz-adv-x="621" 
d="M302 756h-47l-118 148h55l87 -96l85 96h56zM606 0h-75l-209 326h-3h-176v-326h-67v700h243c65.333 0 117.833 -17 157.5 -51s59.5 -79.333 59.5 -136c0 -44 -12.5 -81.667 -37.5 -113s-59.5 -53 -103.5 -65zM143 638v-250h172c47.333 0 84.333 11 111 33s40 52.667 40 92
s-13.333 70 -40 92s-63.667 33 -111 33h-172z" />
    <glyph glyph-name="rcaron" unicode="&#x159;" horiz-adv-x="371" 
d="M185 560l-118 148h55l87 -96l85 96h56l-118 -148h-47zM352 442c-20 8 -42 12 -66 12c-44 0 -80 -22.5 -108 -67.5s-42 -108.833 -42 -191.5v-195h-63v504h63v-107c15.333 33.333 38 60.833 68 82.5s60.667 32.5 92 32.5c22 0 42 -3 60 -9z" />
    <glyph glyph-name="Sacute" unicode="&#x15a;" horiz-adv-x="583" 
d="M260 756l77 148h85l-115 -148h-47zM295 -8c-66.667 0 -124.164 19.3262 -172.497 57.9932s-79.166 90 -92.499 154l68 23c8 -52 30 -93.833 66 -125.5s79.667 -47.5 131 -47.5c54 0 97.167 11.833 129.5 35.5s48.5 55.167 48.5 94.5c0 28 -7.5 51.667 -22.5 71
s-34.667 34.5 -59 45.5s-51.166 20.667 -80.499 29s-58.666 17.333 -87.999 27s-56.166 20.834 -80.499 33.501s-44 30.834 -59 54.501s-22.5 52.167 -22.5 85.5c0 53.333 21.167 96.333 63.5 129s98.166 49 167.499 49c63.333 0 116.666 -15.667 159.999 -47
s69 -72.666 77 -123.999l-61 -22c-7.33301 40.667 -26.5 72.667 -57.5 96s-70.5 35 -118.5 35c-50.667 0 -90.5 -10.333 -119.5 -31s-43.5 -49 -43.5 -85c0 -24 7.66699 -44.167 23 -60.5s35.166 -29 59.499 -38s51.166 -17.167 80.499 -24.5s58.666 -16.166 87.999 -26.499
s56.166 -22.666 80.499 -36.999s44.166 -35.166 59.499 -62.499s23 -59.666 23 -96.999c0 -58 -22.667 -104.5 -68 -139.5s-105.333 -52.5 -180 -52.5z" />
    <glyph glyph-name="sacute" unicode="&#x15b;" horiz-adv-x="463" 
d="M196 560l77 148h85l-115 -148h-47zM239 -8c-56.667 0 -102.171 14.166 -136.504 42.499s-57.166 62.5 -68.499 102.5l56 28c26.667 -76.667 76.334 -115 149.001 -115c33.333 0 60.833 8.66699 82.5 26s32.5 38 32.5 62c0 26.667 -10.167 47.5 -30.5 62.5
s-45.166 25.833 -74.499 32.5s-58.666 14 -87.999 22s-54.166 22.333 -74.499 43s-30.5 48.667 -30.5 84c0 40 15.833 71.667 47.5 95s74.167 35 127.5 35c42.667 0 80.667 -11.5 114 -34.5s55 -52.833 65 -89.5l-55 -25c-6.66699 26.667 -22 48.5 -46 65.5
s-51.333 25.5 -82 25.5c-33.333 0 -59.333 -6.16699 -78 -18.5s-28 -30.166 -28 -53.499c0 -21.333 10.333 -38 31 -50s45.5 -21.167 74.5 -27.5s58.167 -14 87.5 -23s54.166 -25.5 74.499 -49.5s30.5 -55.333 30.5 -94c0 -44 -16.5 -79.333 -49.5 -106
s-76.5 -40 -130.5 -40z" />
    <glyph glyph-name="Scircumflex" unicode="&#x15c;" horiz-adv-x="583" 
d="M267 904h47l118 -148h-56l-85 96l-87 -96h-55zM295 -8c-66.667 0 -124.164 19.3262 -172.497 57.9932s-79.166 90 -92.499 154l68 23c8 -52 30 -93.833 66 -125.5s79.667 -47.5 131 -47.5c54 0 97.167 11.833 129.5 35.5s48.5 55.167 48.5 94.5
c0 28 -7.5 51.667 -22.5 71s-34.667 34.5 -59 45.5s-51.166 20.667 -80.499 29s-58.666 17.333 -87.999 27s-56.166 20.834 -80.499 33.501s-44 30.834 -59 54.501s-22.5 52.167 -22.5 85.5c0 53.333 21.167 96.333 63.5 129s98.166 49 167.499 49
c63.333 0 116.666 -15.667 159.999 -47s69 -72.666 77 -123.999l-61 -22c-7.33301 40.667 -26.5 72.667 -57.5 96s-70.5 35 -118.5 35c-50.667 0 -90.5 -10.333 -119.5 -31s-43.5 -49 -43.5 -85c0 -24 7.66699 -44.167 23 -60.5s35.166 -29 59.499 -38
s51.166 -17.167 80.499 -24.5s58.666 -16.166 87.999 -26.499s56.166 -22.666 80.499 -36.999s44.166 -35.166 59.499 -62.499s23 -59.666 23 -96.999c0 -58 -22.667 -104.5 -68 -139.5s-105.333 -52.5 -180 -52.5z" />
    <glyph glyph-name="scircumflex" unicode="&#x15d;" horiz-adv-x="463" 
d="M203 708h47l118 -148h-56l-85 96l-87 -96h-55zM239 -8c-56.667 0 -102.171 14.166 -136.504 42.499s-57.166 62.5 -68.499 102.5l56 28c26.667 -76.667 76.334 -115 149.001 -115c33.333 0 60.833 8.66699 82.5 26s32.5 38 32.5 62c0 26.667 -10.167 47.5 -30.5 62.5
s-45.166 25.833 -74.499 32.5s-58.666 14 -87.999 22s-54.166 22.333 -74.499 43s-30.5 48.667 -30.5 84c0 40 15.833 71.667 47.5 95s74.167 35 127.5 35c42.667 0 80.667 -11.5 114 -34.5s55 -52.833 65 -89.5l-55 -25c-6.66699 26.667 -22 48.5 -46 65.5
s-51.333 25.5 -82 25.5c-33.333 0 -59.333 -6.16699 -78 -18.5s-28 -30.166 -28 -53.499c0 -21.333 10.333 -38 31 -50s45.5 -21.167 74.5 -27.5s58.167 -14 87.5 -23s54.166 -25.5 74.499 -49.5s30.5 -55.333 30.5 -94c0 -44 -16.5 -79.333 -49.5 -106
s-76.5 -40 -130.5 -40z" />
    <glyph glyph-name="Scedilla" unicode="&#x15e;" horiz-adv-x="583" 
d="M543 184c0 -54.667 -20.1631 -99.1738 -60.4961 -133.507s-94.5 -53.5 -162.5 -57.5l-73 -140h-85l106 140c-60 5.33301 -111.5 27 -154.5 65s-70.833 86.667 -83.5 146l68 23c8 -52 30 -93.833 66 -125.5s79.667 -47.5 131 -47.5c54 0 97.167 11.833 129.5 35.5
s48.5 55.167 48.5 94.5c0 28 -7.5 51.667 -22.5 71s-34.667 34.5 -59 45.5s-51.166 20.667 -80.499 29s-58.666 17.333 -87.999 27s-56.166 20.834 -80.499 33.501s-44 30.834 -59 54.501s-22.5 52.167 -22.5 85.5c0 53.333 21.167 96.333 63.5 129s98.166 49 167.499 49
c63.333 0 116.666 -15.667 159.999 -47s69 -72.666 77 -123.999l-61 -22c-7.33301 40.667 -26.5 72.667 -57.5 96s-70.5 35 -118.5 35c-50.667 0 -90.5 -10.333 -119.5 -31s-43.5 -49 -43.5 -85c0 -24 7.66699 -44.167 23 -60.5s35.166 -29 59.499 -38
s51.166 -17.167 80.499 -24.5s58.666 -16.166 87.999 -26.499s56.166 -22.666 80.499 -36.999s44.166 -35.166 59.499 -62.499s23 -59.666 23 -96.999z" />
    <glyph glyph-name="scedilla" unicode="&#x15f;" horiz-adv-x="463" 
d="M121 382c0 -21.333 10.3291 -37.999 30.9961 -49.999s45.5 -21.167 74.5 -27.5s58.167 -14 87.5 -23s54.166 -25.5 74.499 -49.5s30.5 -55.333 30.5 -94c0 -41.333 -14.667 -75 -44 -101s-68.666 -40.667 -117.999 -44l-73 -140h-85l107 141
c-46.667 5.33301 -84.5 21.666 -113.5 48.999s-48.5 58.666 -58.5 93.999l56 28c26.667 -76.667 76.334 -115 149.001 -115c33.333 0 60.833 8.66699 82.5 26s32.5 38 32.5 62c0 26.667 -10.167 47.5 -30.5 62.5s-45.166 25.833 -74.499 32.5s-58.666 14 -87.999 22
s-54.166 22.333 -74.499 43s-30.5 48.667 -30.5 84c0 40 15.833 71.667 47.5 95s74.167 35 127.5 35c42.667 0 80.667 -11.5 114 -34.5s55 -52.833 65 -89.5l-55 -25c-6.66699 26.667 -22 48.5 -46 65.5s-51.333 25.5 -82 25.5c-33.333 0 -59.333 -6.16699 -78 -18.5
s-28 -30.166 -28 -53.499z" />
    <glyph glyph-name="Scaron" unicode="&#x160;" horiz-adv-x="583" 
d="M267 756l-118 148h55l87 -96l85 96h56l-118 -148h-47zM295 -8c-66.667 0 -124.164 19.3262 -172.497 57.9932s-79.166 90 -92.499 154l68 23c8 -52 30 -93.833 66 -125.5s79.667 -47.5 131 -47.5c54 0 97.167 11.833 129.5 35.5s48.5 55.167 48.5 94.5
c0 28 -7.5 51.667 -22.5 71s-34.667 34.5 -59 45.5s-51.166 20.667 -80.499 29s-58.666 17.333 -87.999 27s-56.166 20.834 -80.499 33.501s-44 30.834 -59 54.501s-22.5 52.167 -22.5 85.5c0 53.333 21.167 96.333 63.5 129s98.166 49 167.499 49
c63.333 0 116.666 -15.667 159.999 -47s69 -72.666 77 -123.999l-61 -22c-7.33301 40.667 -26.5 72.667 -57.5 96s-70.5 35 -118.5 35c-50.667 0 -90.5 -10.333 -119.5 -31s-43.5 -49 -43.5 -85c0 -24 7.66699 -44.167 23 -60.5s35.166 -29 59.499 -38
s51.166 -17.167 80.499 -24.5s58.666 -16.166 87.999 -26.499s56.166 -22.666 80.499 -36.999s44.166 -35.166 59.499 -62.499s23 -59.666 23 -96.999c0 -58 -22.667 -104.5 -68 -139.5s-105.333 -52.5 -180 -52.5z" />
    <glyph glyph-name="scaron" unicode="&#x161;" horiz-adv-x="463" 
d="M203 560l-118 148h55l87 -96l85 96h56l-118 -148h-47zM239 -8c-56.667 0 -102.171 14.166 -136.504 42.499s-57.166 62.5 -68.499 102.5l56 28c26.667 -76.667 76.334 -115 149.001 -115c33.333 0 60.833 8.66699 82.5 26s32.5 38 32.5 62
c0 26.667 -10.167 47.5 -30.5 62.5s-45.166 25.833 -74.499 32.5s-58.666 14 -87.999 22s-54.166 22.333 -74.499 43s-30.5 48.667 -30.5 84c0 40 15.833 71.667 47.5 95s74.167 35 127.5 35c42.667 0 80.667 -11.5 114 -34.5s55 -52.833 65 -89.5l-55 -25
c-6.66699 26.667 -22 48.5 -46 65.5s-51.333 25.5 -82 25.5c-33.333 0 -59.333 -6.16699 -78 -18.5s-28 -30.166 -28 -53.499c0 -21.333 10.333 -38 31 -50s45.5 -21.167 74.5 -27.5s58.167 -14 87.5 -23s54.166 -25.5 74.499 -49.5s30.5 -55.333 30.5 -94
c0 -44 -16.5 -79.333 -49.5 -106s-76.5 -40 -130.5 -40z" />
    <glyph glyph-name="uni0162" unicode="&#x162;" horiz-adv-x="564" 
d="M20 700h524v-62h-228v-638h-1l-76 -147h-85l112 147h-17v638h-229v62z" />
    <glyph glyph-name="uni0163" unicode="&#x163;" horiz-adv-x="357" 
d="M324 3c-22 -7.33301 -47.667 -11 -77 -11c-9.33301 0 -16 0.333008 -20 1l-73 -140h-85l115 151c-47.333 22 -71 68.333 -71 139v303h-98v58h98v155h63v-155h139v-58h-139v-313c0 -27.333 7 -48 21 -62s33.333 -21 58 -21c25.333 0 47 4.66699 65 14z" />
    <glyph glyph-name="Tcaron" unicode="&#x164;" horiz-adv-x="564" 
d="M258 756l-118 148h55l87 -96l85 96h56l-118 -148h-47zM249 0v638h-229v62h524v-62h-228v-638h-67z" />
    <glyph glyph-name="tcaron" unicode="&#x165;" horiz-adv-x="357" 
d="M264 560l33 168h70l-63 -168h-40zM324 3c-22 -7.33301 -47.667 -11 -77 -11c-41.333 0 -74 12.5 -98 37.5s-36 62.833 -36 113.5v303h-98v58h98v155h63v-155h139v-58h-139v-313c0 -27.333 7 -48 21 -62s33.333 -21 58 -21c25.333 0 47 4.66699 65 14z" />
    <glyph glyph-name="Tbar" unicode="&#x166;" horiz-adv-x="550" 
d="M544 638h-228v-199h183v-58h-183v-381h-67v381h-197v58h197v199h-229v62h524v-62z" />
    <glyph glyph-name="tbar" unicode="&#x167;" horiz-adv-x="357" 
d="M320 64l4 -61c-22 -7.33301 -47.667 -11 -77 -11c-41.333 0 -74 12.5 -98 37.5s-36 62.833 -36 113.5v83h-97v52h97v168h-98v58h98v155h63v-155h139v-58h-139v-168h132v-52h-132v-93c0 -27.333 7 -48 21 -62s33.333 -21 58 -21c25.333 0 47 4.66699 65 14z" />
    <glyph glyph-name="Utilde" unicode="&#x168;" horiz-adv-x="672" 
d="M223 789l-47 8c0.666992 27.333 9.83398 49.5 27.501 66.5s40.5 25.5 68.5 25.5c24 0 47.333 -9 70 -27c27.333 -19.333 49.666 -29 66.999 -29c28.667 0 44.667 16.333 48 49l48 -9c-1.33301 -27.333 -10.833 -49.333 -28.5 -66s-40.167 -25 -67.5 -25
c-21.333 0 -45 8.66699 -71 26c-1.33301 1.33301 -5.33301 4.33301 -12 9s-11.167 7.66699 -13.5 9s-6.16602 3.33301 -11.499 6s-10.333 4.5 -15 5.5s-9.33398 1.5 -14.001 1.5c-13.333 0 -24.5 -4.33301 -33.5 -13s-14.167 -21 -15.5 -37zM336 -8
c-78.667 0 -141.667 22.167 -189 66.5s-71 103.166 -71 176.499v465h68v-471c0 -52.667 17.5 -95 52.5 -127s81.5 -48 139.5 -48c58.667 0 105.5 15.833 140.5 47.5s52.5 74.167 52.5 127.5v471h67v-465c0 -73.333 -23.667 -132.166 -71 -176.499s-110.333 -66.5 -189 -66.5
z" />
    <glyph glyph-name="utilde" unicode="&#x169;" horiz-adv-x="567" 
d="M169 593l-47 8c0.666992 27.333 9.83398 49.5 27.501 66.5s40.5 25.5 68.5 25.5c24 0 47.333 -9 70 -27c27.333 -19.333 49.666 -29 66.999 -29c28.667 0 44.667 16.333 48 49l48 -9c-1.33301 -27.333 -10.833 -49.333 -28.5 -66s-40.167 -25 -67.5 -25
c-21.333 0 -45 8.66699 -71 26c-1.33301 1.33301 -5.33301 4.33301 -12 9s-11.167 7.66699 -13.5 9s-6.16602 3.33301 -11.499 6s-10.333 4.5 -15 5.5s-9.33398 1.5 -14.001 1.5c-13.333 0 -24.5 -4.33301 -33.5 -13s-14.167 -21 -15.5 -37zM494 504l0.000976562 -504.001
h-63v105c-19.333 -34.667 -44.5 -62.167 -75.5 -82.5s-65.833 -30.5 -104.5 -30.5c-52 0 -94.667 16.167 -128 48.5s-50 74.833 -50 127.5v336h63v-328c0 -37.333 11.167 -67.666 33.5 -90.999s52.5 -35 90.5 -35c51.333 0 92.666 21 123.999 63s47 98.667 47 170v221h63z
" />
    <glyph glyph-name="Umacron" unicode="&#x16a;" horiz-adv-x="672" 
d="M205 790v56h261v-56h-261zM336 -8c-78.667 0 -141.667 22.167 -189 66.5s-71 103.166 -71 176.499v465h68v-471c0 -52.667 17.5 -95 52.5 -127s81.5 -48 139.5 -48c58.667 0 105.5 15.833 140.5 47.5s52.5 74.167 52.5 127.5v471h67v-465
c0 -73.333 -23.667 -132.166 -71 -176.499s-110.333 -66.5 -189 -66.5z" />
    <glyph glyph-name="umacron" unicode="&#x16b;" horiz-adv-x="567" 
d="M151 594v56h261v-56h-261zM494 504l0.000976562 -504.001h-63v105c-19.333 -34.667 -44.5 -62.167 -75.5 -82.5s-65.833 -30.5 -104.5 -30.5c-52 0 -94.667 16.167 -128 48.5s-50 74.833 -50 127.5v336h63v-328c0 -37.333 11.167 -67.666 33.5 -90.999s52.5 -35 90.5 -35
c51.333 0 92.666 21 123.999 63s47 98.667 47 170v221h63z" />
    <glyph glyph-name="Ubreve" unicode="&#x16c;" horiz-adv-x="672" 
d="M336 753c-35.333 0 -64.666 11.667 -87.999 35s-35 52.666 -35 87.999h55c0 -20 6.5 -36.833 19.5 -50.5s29.167 -20.5 48.5 -20.5s35.666 6.83301 48.999 20.5s20 30.5 20 50.5h55c0 -35.333 -11.833 -64.666 -35.5 -87.999s-53.167 -35 -88.5 -35zM336 -8
c-78.667 0 -141.667 22.167 -189 66.5s-71 103.166 -71 176.499v465h68v-471c0 -52.667 17.5 -95 52.5 -127s81.5 -48 139.5 -48c58.667 0 105.5 15.833 140.5 47.5s52.5 74.167 52.5 127.5v471h67v-465c0 -73.333 -23.667 -132.166 -71 -176.499s-110.333 -66.5 -189 -66.5
z" />
    <glyph glyph-name="ubreve" unicode="&#x16d;" horiz-adv-x="567" 
d="M282 557c-35.333 0 -64.666 11.667 -87.999 35s-35 52.666 -35 87.999h55c0 -20 6.5 -36.833 19.5 -50.5s29.167 -20.5 48.5 -20.5s35.666 6.83301 48.999 20.5s20 30.5 20 50.5h55c0 -35.333 -11.833 -64.666 -35.5 -87.999s-53.167 -35 -88.5 -35zM494 504
l0.000976562 -504.001h-63v105c-19.333 -34.667 -44.5 -62.167 -75.5 -82.5s-65.833 -30.5 -104.5 -30.5c-52 0 -94.667 16.167 -128 48.5s-50 74.833 -50 127.5v336h63v-328c0 -37.333 11.167 -67.666 33.5 -90.999s52.5 -35 90.5 -35c51.333 0 92.666 21 123.999 63
s47 98.667 47 170v221h63z" />
    <glyph glyph-name="Uring" unicode="&#x16e;" horiz-adv-x="672" 
d="M336 741c-30 0 -55 9.33301 -75 28s-30 42 -30 70s10 51.333 30 70s45 28 75 28s55 -9.33301 75 -28s30 -42 30 -70s-10 -51.333 -30 -70s-45 -28 -75 -28zM336 784c16.667 0 30.334 5.16699 41.001 15.5s16 23.5 16 39.5s-5.33301 29.167 -16 39.5
s-24.334 15.5 -41.001 15.5c-16 0 -29.333 -5.16699 -40 -15.5s-16 -23.5 -16 -39.5s5.33301 -29.167 16 -39.5s24 -15.5 40 -15.5zM336 -8c-78.667 0 -141.667 22.167 -189 66.5s-71 103.166 -71 176.499v465h68v-471c0 -52.667 17.5 -95 52.5 -127s81.5 -48 139.5 -48
c58.667 0 105.5 15.833 140.5 47.5s52.5 74.167 52.5 127.5v471h67v-465c0 -73.333 -23.667 -132.166 -71 -176.499s-110.333 -66.5 -189 -66.5z" />
    <glyph glyph-name="uring" unicode="&#x16f;" horiz-adv-x="567" 
d="M282 545c-30 0 -55 9.33301 -75 28s-30 42 -30 70s10 51.333 30 70s45 28 75 28s55 -9.33301 75 -28s30 -42 30 -70s-10 -51.333 -30 -70s-45 -28 -75 -28zM282 588c16.667 0 30.334 5.16699 41.001 15.5s16 23.5 16 39.5s-5.33301 29.167 -16 39.5
s-24.334 15.5 -41.001 15.5c-16 0 -29.333 -5.16699 -40 -15.5s-16 -23.5 -16 -39.5s5.33301 -29.167 16 -39.5s24 -15.5 40 -15.5zM494 504l0.000976562 -504.001h-63v105c-19.333 -34.667 -44.5 -62.167 -75.5 -82.5s-65.833 -30.5 -104.5 -30.5
c-52 0 -94.667 16.167 -128 48.5s-50 74.833 -50 127.5v336h63v-328c0 -37.333 11.167 -67.666 33.5 -90.999s52.5 -35 90.5 -35c51.333 0 92.666 21 123.999 63s47 98.667 47 170v221h63z" />
    <glyph glyph-name="Uhungarumlaut" unicode="&#x170;" horiz-adv-x="672" 
d="M232 756l77 148h67l-85 -148h-59zM354 756l77 148h67l-85 -148h-59zM336 -8c-78.667 0 -141.667 22.167 -189 66.5s-71 103.166 -71 176.499v465h68v-471c0 -52.667 17.5 -95 52.5 -127s81.5 -48 139.5 -48c58.667 0 105.5 15.833 140.5 47.5s52.5 74.167 52.5 127.5v471
h67v-465c0 -73.333 -23.667 -132.166 -71 -176.499s-110.333 -66.5 -189 -66.5z" />
    <glyph glyph-name="uhungarumlaut" unicode="&#x171;" horiz-adv-x="567" 
d="M178 560l77 148h67l-85 -148h-59zM300 560l77 148h67l-85 -148h-59zM494 504l0.000976562 -504.001h-63v105c-19.333 -34.667 -44.5 -62.167 -75.5 -82.5s-65.833 -30.5 -104.5 -30.5c-52 0 -94.667 16.167 -128 48.5s-50 74.833 -50 127.5v336h63v-328
c0 -37.333 11.167 -67.666 33.5 -90.999s52.5 -35 90.5 -35c51.333 0 92.666 21 123.999 63s47 98.667 47 170v221h63z" />
    <glyph glyph-name="Uogonek" unicode="&#x172;" horiz-adv-x="672" 
d="M529 700h67.001v-465c0 -67.333 -20 -122.5 -60 -165.5s-94 -68.167 -162 -75.5c-28 -29.333 -42 -55.333 -42 -78c0 -12.667 4.16699 -23 12.5 -31s19.166 -12 32.499 -12c15.333 0 26.333 0.666992 33 2l10 -61c-16 -2.66699 -31.333 -4 -46 -4c-32.667 0 -59 9 -79 27
s-30 41.333 -30 70c0 28 13 56.667 39 86c-70 6.66699 -125.5 31.667 -166.5 75s-61.5 99 -61.5 167v465h68v-471c0 -52.667 17.5 -95 52.5 -127s81.5 -48 139.5 -48c58.667 0 105.5 15.833 140.5 47.5s52.5 74.167 52.5 127.5v471z" />
    <glyph glyph-name="uogonek" unicode="&#x173;" horiz-adv-x="567" 
d="M519 -125l10.002 -61.001c-16 -2.66699 -31.333 -4 -46 -4c-32.667 0 -59 9 -79 27s-30 41.333 -30 70c0 15.333 5.16699 32.833 15.5 52.5s22.5 35.5 36.5 47.5l5 -1v99c-19.333 -34.667 -44.5 -62.167 -75.5 -82.5s-65.833 -30.5 -104.5 -30.5
c-52 0 -94.667 16.167 -128 48.5s-50 74.833 -50 127.5v336h63v-328c0 -37.333 11.167 -67.666 33.5 -90.999s52.5 -35 90.5 -35c51.333 0 92.666 21 123.999 63s47 98.667 47 170v221h63v-504h-5c-32 -32 -48 -60 -48 -84c0 -12.667 4.16699 -23 12.5 -31
s19.166 -12 32.499 -12c15.333 0 26.333 0.666992 33 2z" />
    <glyph glyph-name="Wcircumflex" unicode="&#x174;" horiz-adv-x="979" 
d="M467 904h47l118 -148h-56l-85 96l-87 -96h-55zM238 0l-219 700h70l184 -626l186 626h63l184 -626l185 626h69l-217 -700h-70l-182 592l-184 -592h-69z" />
    <glyph glyph-name="wcircumflex" unicode="&#x175;" horiz-adv-x="751" 
d="M351 708h47l118 -148h-56l-85 96l-87 -96h-55zM183 0l-154 504h66l121 -416l128 416h63l127 -416l121 416h67l-154 -504h-67l-126 412l-126 -412h-66z" />
    <glyph glyph-name="Ycircumflex" unicode="&#x176;" horiz-adv-x="578" 
d="M265 904h47l118 -148h-56l-85 96l-87 -96h-55zM255 0v294l-250 406h79l205 -341l204 341h80l-251 -406v-294h-67z" />
    <glyph glyph-name="ycircumflex" unicode="&#x177;" horiz-adv-x="486" 
d="M243 656l-87 -96h-55l118 148h47l118 -148h-56zM407 504h64l-264 -686h-64l70 182l-198 504h68l163 -419z" />
    <glyph glyph-name="Ydieresis" unicode="&#x178;" horiz-adv-x="578" 
d="M171 904h66v-87h-66v87zM341 904h66v-87h-66v87zM255 0v294l-250 406h79l205 -341l204 341h80l-251 -406v-294h-67z" />
    <glyph glyph-name="Zacute" unicode="&#x179;" horiz-adv-x="587" 
d="M253 756l77 148h85l-115 -148h-47zM25 0v62l443 576h-419v62h498v-62l-435 -576h435v-62h-522z" />
    <glyph glyph-name="zacute" unicode="&#x17a;" horiz-adv-x="487" 
d="M218 560l77 148h85l-115 -148h-47zM35 0v48l330 398h-313v58h397v-48l-327 -398h327v-58h-414z" />
    <glyph glyph-name="Zdotaccent" unicode="&#x17b;" horiz-adv-x="587" 
d="M246 904h78v-96h-78v96zM25 0v62l443 576h-419v62h498v-62l-435 -576h435v-62h-522z" />
    <glyph glyph-name="zdotaccent" unicode="&#x17c;" horiz-adv-x="487" 
d="M211 708h78v-96h-78v96zM35 0v48l330 398h-313v58h397v-48l-327 -398h327v-58h-414z" />
    <glyph glyph-name="Zcaron" unicode="&#x17d;" horiz-adv-x="587" 
d="M260 756l-118 148h55l87 -96l85 96h56l-118 -148h-47zM25 0v62l443 576h-419v62h498v-62l-435 -576h435v-62h-522z" />
    <glyph glyph-name="zcaron" unicode="&#x17e;" horiz-adv-x="487" 
d="M225 560l-118 148h55l87 -96l85 96h56l-118 -148h-47zM35 0v48l330 398h-313v58h397v-48l-327 -398h327v-58h-414z" />
    <glyph glyph-name="longs" unicode="&#x17f;" horiz-adv-x="358" 
d="M126 0v446h-88v58h88v52c0 52 12.333 92.167 37 120.5s57 42.5 97 42.5c24 0 45.333 -2.33301 64 -7l-2 -60c-15.333 6 -33.333 9 -54 9c-23.333 0 -42.333 -8.66699 -57 -26s-22 -40.333 -22 -69v-566h-63z" />
    <glyph glyph-name="florin" unicode="&#x192;" horiz-adv-x="466" 
d="M297 566l-10 -62h144v-58h-153l-46 -291c-18 -108.667 -62.667 -163 -134 -163c-24 0 -45.333 2.33301 -64 7l2 60c15.333 -6 33.333 -9 54 -9c22.667 0 40.167 7.5 52.5 22.5s21.166 39.167 26.499 72.5l48 301h-111v58h120l8 52c18 108.667 62.667 163 134 163
c24 0 45.333 -2.33301 64 -7l-2 -60c-15.333 6 -33.333 9 -54 9c-22.667 0 -40.167 -7.5 -52.5 -22.5s-21.166 -39.167 -26.499 -72.5z" />
    <glyph glyph-name="Aringacute" unicode="&#x1fa;" horiz-adv-x="643" 
d="M322 741c-30 0 -55 9.33594 -75 28.0029s-30 42 -30 70c0 23.333 7.16699 43.666 21.5 60.999s32.833 28.666 55.5 33.999l74 142h85l-109 -141c24 -4.66699 43.833 -15.834 59.5 -33.501s23.5 -38.5 23.5 -62.5c0 -28 -10 -51.333 -30 -70s-45 -28 -75 -28zM322 894.003
c-16 0 -29.333 -5.16699 -40 -15.5s-16 -23.5 -16 -39.5s5.33301 -29.167 16 -39.5s24 -15.5 40 -15.5c16.667 0 30.334 5.16699 41.001 15.5s16 23.5 16 39.5s-5.33301 29.167 -16 39.5s-24.334 15.5 -41.001 15.5zM563 0.00292969l-75 191h-333l-76 -191h-69l282 700h59
l282 -700h-70zM180 253.003h283l-141 358z" />
    <glyph glyph-name="aringacute" unicode="&#x1fb;" 
d="M259 545c-30 0 -55 9.33301 -75 28s-30 42 -30 70s10 51.333 30 70s45 28 75 28h5l77 147h85l-115 -148h-36c26 -3.33301 47.333 -14 64 -32s25 -39.667 25 -65c0 -28 -10 -51.333 -30 -70s-45 -28 -75 -28zM259 698c-16 0 -29.333 -5.16699 -40 -15.5
s-16 -23.5 -16 -39.5s5.33301 -29.167 16 -39.5s24 -15.5 40 -15.5c16.667 0 30.334 5.16699 41.001 15.5s16 23.5 16 39.5s-5.33301 29.167 -16 39.5s-24.334 15.5 -41.001 15.5zM258 512c58.667 0 106.502 -16.667 143.502 -50s55.5 -76.666 55.5 -129.999v-332h-63v92
c-15.333 -30.667 -39 -55 -71 -73s-67.667 -27 -107 -27c-50.667 0 -91.834 13.667 -123.501 41s-47.5 63 -47.5 107c0 48 20.333 85.5 61 112.5s103 44.833 187 53.5l101 10v14c0 38 -12.5 68.167 -37.5 90.5s-57.833 33.5 -98.5 33.5
c-38.667 0 -70.334 -10.667 -95.001 -32s-39.334 -50.333 -44.001 -87l-61 12c7.33301 49.333 29.333 89.166 66 119.499s81.334 45.5 134.001 45.5zM221.002 50c54.667 0 97.167 16.001 127.5 48.001s45.5 77 45.5 135v30l-99 -10c-122.667 -13.333 -184 -51 -184 -113
c0 -26.667 10.333 -48.334 31 -65.001s47 -25 79 -25z" />
    <glyph glyph-name="AEacute" unicode="&#x1fc;" horiz-adv-x="939" 
d="M638 904l-115 -148h-47l77 148h85zM522 62h371v-62h-438v199h-258l-116 -199h-73l417 700h457v-62h-360v-234h295v-62h-295v-280zM233 261h222v379z" />
    <glyph glyph-name="aeacute" unicode="&#x1fd;" horiz-adv-x="921" 
d="M594 708l-115 -148h-47l77 148h85zM878 279c0 -12.667 -0.662109 -23.665 -1.99512 -32.998h-410c0.666992 -58 17.334 -105.167 50.001 -141.5s74.667 -54.5 126 -54.5c43.333 0 79.166 9.66699 107.499 29s46.166 46.666 53.499 81.999l60 -12
c-11.333 -50 -36.333 -88.667 -75 -116s-87 -41 -145 -41c-47.333 0 -89.333 11.333 -126 34s-65.334 54 -86.001 94c-17.333 -40 -44.166 -71.333 -80.499 -94s-79.833 -34 -130.5 -34c-52 0 -94.167 13.667 -126.5 41s-48.5 63 -48.5 107c0 50 21.5 89.5 64.5 118.5
s106.167 43.5 189.5 43.5h103v28c0 38 -12.833 68.167 -38.5 90.5s-59.5 33.5 -101.5 33.5c-38 0 -69.833 -10.333 -95.5 -31s-39.834 -46 -42.501 -76l-62 12c6.66699 43.333 28.667 79.666 66 108.999s82 44 134 44c43.333 0 81.166 -9 113.499 -27
s56.166 -42.667 71.499 -74c45.333 67.333 110.666 101 195.999 101c68.667 0 125 -21.833 169 -65.5s66 -99.5 66 -167.5zM471.005 304.002h341.999c-5.33301 44.667 -23 80.834 -53 108.501s-69 41.5 -117 41.5c-44.667 0 -82.167 -13.333 -112.5 -40
s-50.166 -63.334 -59.499 -110.001zM225.004 50.002c55.333 0 98.668 16.001 130.001 48.001s47 77 47 135v16h-101c-60.667 0 -107.334 -10.167 -140.001 -30.5s-49 -46.5 -49 -78.5c0 -26.667 10.5 -48.334 31.5 -65.001s48.167 -25 81.5 -25z" />
    <glyph glyph-name="uni0218" unicode="&#x218;" horiz-adv-x="583" 
d="M295 -8c-66.667 0 -124.164 19.3262 -172.497 57.9932s-79.166 90 -92.499 154l68 23c8 -52 30 -93.833 66 -125.5s79.667 -47.5 131 -47.5c54 0 97.167 11.833 129.5 35.5s48.5 55.167 48.5 94.5c0 28 -7.5 51.667 -22.5 71s-34.667 34.5 -59 45.5
s-51.166 20.667 -80.499 29s-58.666 17.333 -87.999 27s-56.166 20.834 -80.499 33.501s-44 30.834 -59 54.501s-22.5 52.167 -22.5 85.5c0 53.333 21.167 96.333 63.5 129s98.166 49 167.499 49c63.333 0 116.666 -15.667 159.999 -47s69 -72.666 77 -123.999l-61 -22
c-7.33301 40.667 -26.5 72.667 -57.5 96s-70.5 35 -118.5 35c-50.667 0 -90.5 -10.333 -119.5 -31s-43.5 -49 -43.5 -85c0 -24 7.66699 -44.167 23 -60.5s35.166 -29 59.499 -38s51.166 -17.167 80.499 -24.5s58.666 -16.166 87.999 -26.499s56.166 -22.666 80.499 -36.999
s44.166 -35.166 59.499 -62.499s23 -59.666 23 -96.999c0 -58 -22.667 -104.5 -68 -139.5s-105.333 -52.5 -180 -52.5zM204.003 -190.007l47 148h76l-76 -148h-47z" />
    <glyph glyph-name="uni0219" unicode="&#x219;" horiz-adv-x="463" 
d="M239 -8c-56.667 0 -102.171 14.166 -136.504 42.499s-57.166 62.5 -68.499 102.5l56 28c26.667 -76.667 76.334 -115 149.001 -115c33.333 0 60.833 8.66699 82.5 26s32.5 38 32.5 62c0 26.667 -10.167 47.5 -30.5 62.5s-45.166 25.833 -74.499 32.5
s-58.666 14 -87.999 22s-54.166 22.333 -74.499 43s-30.5 48.667 -30.5 84c0 40 15.833 71.667 47.5 95s74.167 35 127.5 35c42.667 0 80.667 -11.5 114 -34.5s55 -52.833 65 -89.5l-55 -25c-6.66699 26.667 -22 48.5 -46 65.5s-51.333 25.5 -82 25.5
c-33.333 0 -59.333 -6.16699 -78 -18.5s-28 -30.166 -28 -53.499c0 -21.333 10.333 -38 31 -50s45.5 -21.167 74.5 -27.5s58.167 -14 87.5 -23s54.166 -25.5 74.499 -49.5s30.5 -55.333 30.5 -94c0 -44 -16.5 -79.333 -49.5 -106s-76.5 -40 -130.5 -40zM140.996 -190.001
l47 148h76l-76 -148h-47z" />
    <glyph glyph-name="uni021A" unicode="&#x21a;" horiz-adv-x="564" 
d="M249 0v638h-229v62h524v-62h-228v-638h-67zM196 -190l47 148h76l-76 -148h-47z" />
    <glyph glyph-name="uni021B" unicode="&#x21b;" horiz-adv-x="357" 
d="M324 3c-22 -7.33301 -47.667 -11 -77 -11c-41.333 0 -74 12.5 -98 37.5s-36 62.833 -36 113.5v303h-98v58h98v155h63v-155h139v-58h-139v-313c0 -27.333 7 -48 21 -62s33.333 -21 58 -21c25.333 0 47 4.66699 65 14zM111 -190l47 148h76l-76 -148h-47z" />
    <glyph glyph-name="uni0237" unicode="&#x237;" horiz-adv-x="209" 
d="M6 -190l-14 1l-2 57h10c48.667 0 73 31.333 73 94v542h63v-549c0 -42 -12 -76.667 -36 -104s-55.333 -41 -94 -41z" />
    <glyph glyph-name="uni02BC" unicode="&#x2bc;" horiz-adv-x="203" 
d="M50 560l33 168h70l-63 -168h-40z" />
    <glyph glyph-name="gravecomb" unicode="&#x300;" horiz-adv-x="0" 
d="M-79 560h-47l-115 148h85z" />
    <glyph glyph-name="acutecomb" unicode="&#x301;" horiz-adv-x="0" 
d="M-212 560l77 148h85l-115 -148h-47z" />
    <glyph glyph-name="uni0302" unicode="&#x302;" horiz-adv-x="0" 
d="M-215 708h47l118 -148h-56l-85 96l-87 -96h-55z" />
    <glyph glyph-name="tildecomb" unicode="&#x303;" horiz-adv-x="0" 
d="M-332 593l-47 8c0.666992 27.333 9.83398 49.5 27.501 66.5s40.5 25.5 68.5 25.5c24 0 47.333 -9 70 -27c27.333 -19.333 49.666 -29 66.999 -29c28.667 0 44.667 16.333 48 49l48 -9c-1.33301 -27.333 -10.833 -49.333 -28.5 -66s-40.167 -25 -67.5 -25
c-21.333 0 -45 8.66699 -71 26c-1.33301 1.33301 -5.33301 4.33301 -12 9s-11.167 7.66699 -13.5 9s-6.16602 3.33301 -11.499 6s-10.333 4.5 -15 5.5s-9.33398 1.5 -14.001 1.5c-14 0 -25.333 -4.33301 -34 -13s-13.667 -21 -15 -37z" />
    <glyph glyph-name="uni0304" unicode="&#x304;" horiz-adv-x="0" 
d="M-311 594v56h261v-56h-261z" />
    <glyph glyph-name="uni0306" unicode="&#x306;" horiz-adv-x="0" 
d="M-174 557c-35.333 0 -64.666 11.667 -87.999 35s-35 52.666 -35 87.999h55c0 -20 6.5 -36.833 19.5 -50.5s29.167 -20.5 48.5 -20.5s35.666 6.83301 48.999 20.5s20 30.5 20 50.5h55c0 -35.333 -11.833 -64.666 -35.5 -87.999s-53.167 -35 -88.5 -35z" />
    <glyph glyph-name="uni0307" unicode="&#x307;" horiz-adv-x="0" 
d="M-139 708h78v-96h-78v96z" />
    <glyph glyph-name="uni0308" unicode="&#x308;" horiz-adv-x="0" 
d="M-303 708h66v-87h-66v87zM-133 708h66v-87h-66v87z" />
    <glyph glyph-name="uni030A" unicode="&#x30a;" horiz-adv-x="0" 
d="M-155 545c-30 0 -55 9.33301 -75 28s-30 42 -30 70s10 51.333 30 70s45 28 75 28s55 -9.33301 75 -28s30 -42 30 -70s-10 -51.333 -30 -70s-45 -28 -75 -28zM-155 588c16.667 0 30.334 5.16699 41.001 15.5s16 23.5 16 39.5s-5.33301 29.167 -16 39.5
s-24.334 15.5 -41.001 15.5c-16 0 -29.333 -5.16699 -40 -15.5s-16 -23.5 -16 -39.5s5.33301 -29.167 16 -39.5s24 -15.5 40 -15.5z" />
    <glyph glyph-name="uni030B" unicode="&#x30b;" horiz-adv-x="0" 
d="M-316 560l77 148h67l-85 -148h-59zM-194 560l77 148h67l-85 -148h-59z" />
    <glyph glyph-name="uni030C" unicode="&#x30c;" horiz-adv-x="0" 
d="M-215 560l-118 148h55l87 -96l85 96h56l-118 -148h-47z" />
    <glyph glyph-name="uni0312" unicode="&#x312;" horiz-adv-x="0" 
d="M-50 708l-30 -148h-75l58 148h47z" />
    <glyph glyph-name="uni0326" unicode="&#x326;" horiz-adv-x="0" 
d="M-173 -190l47 148h76l-76 -148h-47z" />
    <glyph glyph-name="uni0327" unicode="&#x327;" horiz-adv-x="0" 
d="M-50 1l-77 -148h-85l132 174z" />
    <glyph glyph-name="uni0328" unicode="&#x328;" horiz-adv-x="0" 
d="M-96 -190c-32.667 0 -58.999 9 -78.999 27s-30 41.333 -30 70c0 15.333 5.16699 32.833 15.5 52.5s22.5 35.5 36.5 47.5l63 -7c-32 -32 -48 -60 -48 -84c0 -12.667 4.16699 -23 12.5 -31s19.166 -12 32.499 -12c15.333 0 26.333 0.666992 33 2l10 -61
c-16 -2.66699 -31.333 -4 -46 -4z" />
    <glyph glyph-name="pi" unicode="&#x3c0;" horiz-adv-x="607" 
d="M564 446h-100v-302c0 -62.667 24.333 -94 73 -94h10l-2 -57c-6 -0.666992 -10.667 -1 -14 -1c-38.667 0 -70 13.667 -94 41s-36 62 -36 104v309h-198v-446h-63v446h-97v58h521v-58z" />
    <glyph glyph-name="Wgrave" unicode="&#x1e80;" horiz-adv-x="979" 
d="M515 756h-47l-115 148h85zM238 0l-219 700h70l184 -626l186 626h63l184 -626l185 626h69l-217 -700h-70l-182 592l-184 -592h-69z" />
    <glyph glyph-name="wgrave" unicode="&#x1e81;" horiz-adv-x="751" 
d="M399 560h-47l-115 148h85zM183 0l-154 504h66l121 -416l128 416h63l127 -416l121 416h67l-154 -504h-67l-126 412l-126 -412h-66z" />
    <glyph glyph-name="Wacute" unicode="&#x1e82;" horiz-adv-x="979" 
d="M460 756l77 148h85l-115 -148h-47zM238 0l-219 700h70l184 -626l186 626h63l184 -626l185 626h69l-217 -700h-70l-182 592l-184 -592h-69z" />
    <glyph glyph-name="wacute" unicode="&#x1e83;" horiz-adv-x="751" 
d="M344 560l77 148h85l-115 -148h-47zM183 0l-154 504h66l121 -416l128 416h63l127 -416l121 416h67l-154 -504h-67l-126 412l-126 -412h-66z" />
    <glyph glyph-name="Wdieresis" unicode="&#x1e84;" horiz-adv-x="979" 
d="M373 904h66v-87h-66v87zM543 904h66v-87h-66v87zM238 0l-219 700h70l184 -626l186 626h63l184 -626l185 626h69l-217 -700h-70l-182 592l-184 -592h-69z" />
    <glyph glyph-name="wdieresis" unicode="&#x1e85;" horiz-adv-x="751" 
d="M257 708h66v-87h-66v87zM427 708h66v-87h-66v87zM183 0l-154 504h66l121 -416l128 416h63l127 -416l121 416h67l-154 -504h-67l-126 412l-126 -412h-66z" />
    <glyph glyph-name="uni1E9E" unicode="&#x1e9e;" horiz-adv-x="595" 
d="M304 708c54.667 0 101.333 -15.501 140 -46.501s62.667 -71.5 72 -121.5l-163 -156c60 -1.33301 108 -19 144 -53s54 -78.667 54 -134c0 -54.667 -19.333 -101.167 -58 -139.5s-85.334 -57.5 -140.001 -57.5h-139v62h138c37.333 0 69 13.333 95 40s39 58.667 39 96
c0 40.667 -12.667 73.167 -38 97.5s-59 36.5 -101 36.5h-70l-11 40l181 177c-8.66699 29.333 -26 52.833 -52 70.5s-56.333 26.5 -91 26.5c-48.667 0 -87.667 -14.667 -117 -44s-44 -67.666 -44 -114.999v-487h-67v487c0 66.667 20.833 120.167 62.5 160.5
s96.834 60.5 165.501 60.5z" />
    <glyph glyph-name="Ygrave" unicode="&#x1ef2;" horiz-adv-x="578" 
d="M313 756h-47l-115 148h85zM255 0v294l-250 406h79l205 -341l204 341h80l-251 -406v-294h-67z" />
    <glyph glyph-name="ygrave" unicode="&#x1ef3;" horiz-adv-x="486" 
d="M267 560h-47l-115 148h85zM407 504h64l-264 -686h-64l70 182l-198 504h68l163 -419z" />
    <glyph glyph-name="endash" unicode="&#x2013;" horiz-adv-x="500" 
d="M25 260v56h450v-56h-450z" />
    <glyph glyph-name="emdash" unicode="&#x2014;" horiz-adv-x="1000" 
d="M25 260v56h950v-56h-950z" />
    <glyph glyph-name="quoteleft" unicode="&#x2018;" horiz-adv-x="208" 
d="M180 708l-50 -173h-90l95 173h45z" />
    <glyph glyph-name="quoteright" unicode="&#x2019;" horiz-adv-x="208" 
d="M28 535l50 173h90l-95 -173h-45z" />
    <glyph glyph-name="quotesinglbase" unicode="&#x201a;" horiz-adv-x="208" 
d="M28 -84l50 173h90l-95 -173h-45z" />
    <glyph glyph-name="quotedblleft" unicode="&#x201c;" horiz-adv-x="333" 
d="M180 708l-50 -173h-90l95 173h45zM305 708l-50 -173h-90l95 173h45z" />
    <glyph glyph-name="quotedblright" unicode="&#x201d;" horiz-adv-x="333" 
d="M28 535l50 173h90l-95 -173h-45zM153 535l50 173h90l-95 -173h-45z" />
    <glyph glyph-name="quotedblbase" unicode="&#x201e;" horiz-adv-x="333" 
d="M28 -84l50 173h90l-95 -173h-45zM153 -84l50 173h90l-95 -173h-45z" />
    <glyph glyph-name="dagger" unicode="&#x2020;" horiz-adv-x="341" 
d="M140 215v289h-127v56h127v140h61v-140h127v-56h-127v-289h-61z" />
    <glyph glyph-name="daggerdbl" unicode="&#x2021;" horiz-adv-x="341" 
d="M201 196h127v-56h-127v-140h-61v140h-127v56h127v308h-127v56h127v140h61v-140h127v-56h-127v-308z" />
    <glyph glyph-name="bullet" unicode="&#x2022;" horiz-adv-x="488" 
d="M246 72c-56.667 0 -104.5 19.5 -143.5 58.5s-58.5 86.167 -58.5 141.5s19.667 102.5 59 141.5s87 58.5 143 58.5c54.667 0 101.334 -19.5 140.001 -58.5s58 -86.167 58 -141.5s-19.333 -102.5 -58 -141.5s-85.334 -58.5 -140.001 -58.5z" />
    <glyph glyph-name="ellipsis" unicode="&#x2026;" horiz-adv-x="675" 
d="M73 89h79v-89h-79v89zM298 89h79v-89h-79v89zM523 89h79v-89h-79v89z" />
    <glyph glyph-name="perthousand" unicode="&#x2030;" horiz-adv-x="1098" 
d="M364 532c0 -49.333 -15.333 -91 -46 -125s-69.667 -51 -117 -51s-86.5 17 -117.5 51s-46.5 75.667 -46.5 125s15.5 91 46.5 125s70.167 51 117.5 51s86.333 -17 117 -51s46 -75.667 46 -125zM618 700h61l-468 -700h-61zM97 532c0 -37.333 9.5 -67.333 28.5 -90
s44.167 -34 75.5 -34c30.667 0 55.5 11.333 74.5 34s28.5 52.667 28.5 90s-9.5 67.333 -28.5 90s-43.833 34 -74.5 34c-31.333 0 -56.5 -11.333 -75.5 -34s-28.5 -52.667 -28.5 -90zM898 344c47.333 0 86.333 -17 117 -51s46 -75.667 46 -125s-15.333 -91 -46 -125
s-69.667 -51 -117 -51c-58 0 -102.667 24 -134 72c-31.333 -48 -75.666 -72 -132.999 -72c-47.333 0 -86.5 17 -117.5 51s-46.5 75.667 -46.5 125s15.5 91 46.5 125s70.167 51 117.5 51c57.333 0 101.666 -24 132.999 -72c31.333 48 76 72 134 72zM631 44
c30.667 0 55.5 11.333 74.5 34s28.5 52.667 28.5 90s-9.5 67.333 -28.5 90s-43.833 34 -74.5 34c-31.333 0 -56.5 -11.333 -75.5 -34s-28.5 -52.667 -28.5 -90s9.5 -67.333 28.5 -90s44.167 -34 75.5 -34zM898 44c30.667 0 55.5 11.333 74.5 34s28.5 52.667 28.5 90
s-9.5 67.333 -28.5 90s-43.833 34 -74.5 34c-31.333 0 -56.5 -11.333 -75.5 -34s-28.5 -52.667 -28.5 -90s9.5 -67.333 28.5 -90s44.167 -34 75.5 -34z" />
    <glyph glyph-name="guilsinglleft" unicode="&#x2039;" horiz-adv-x="307" 
d="M272 83l-244 195v42l244 195v-68l-187 -148l187 -148v-68z" />
    <glyph glyph-name="guilsinglright" unicode="&#x203a;" horiz-adv-x="307" 
d="M35 83v68l187 148l-187 148v68l244 -195v-42z" />
    <glyph glyph-name="fraction" unicode="&#x2044;" horiz-adv-x="229" 
d="M-150 0l468 700h61l-468 -700h-61z" />
    <glyph glyph-name="Euro" unicode="&#x20ac;" horiz-adv-x="785" 
d="M465 54c57.333 0 104.498 14.1699 141.498 42.5029s62.167 69.166 75.5 122.499l66 -13c-18 -66 -51.833 -118.167 -101.5 -156.5s-110.167 -57.5 -181.5 -57.5c-73.333 0 -139.166 21 -197.499 63s-97.5 102.667 -117.5 182h-105v62h94c-1.33301 21.333 -2 38.333 -2 51
c0 20.667 1 40 3 58h-95v62h107c21.333 77.333 60.833 136.333 118.5 177s122.5 61 194.5 61c71.333 0 132.333 -19.333 183 -58s84 -91 100 -157l-66 -15c-11.333 53.333 -35.833 94.666 -73.5 123.999s-85.5 44 -143.5 44c-58.667 0 -109 -15.167 -151 -45.5
s-72 -73.833 -90 -130.5h345l-22 -62h-336c-2.66699 -16 -4 -35.333 -4 -58c0 -18 1 -35 3 -51h299l-21 -62h-266c16.667 -58.667 46.334 -103.834 89.001 -135.501s94 -47.5 154 -47.5z" />
    <glyph glyph-name="uni2116" unicode="&#x2116;" horiz-adv-x="1244" 
d="M946 197c-74 0 -134.667 24.333 -182 73s-71 111 -71 187s23.667 138.333 71 187s108 73 182 73c73.333 0 133.833 -24.333 181.5 -73s71.5 -111 71.5 -187s-23.833 -138.333 -71.5 -187s-108.167 -73 -181.5 -73zM76 0v700h81l383 -595v595h68v-700h-81l-383 593v-593
h-68zM946 255c55.333 0 100.333 18.833 135 56.5s52 86.167 52 145.5s-17.333 107.833 -52 145.5s-79.667 56.5 -135 56.5c-56 0 -101.167 -18.833 -135.5 -56.5s-51.5 -86.167 -51.5 -145.5s17.167 -107.833 51.5 -145.5s79.5 -56.5 135.5 -56.5zM722 8v56h450v-56h-450z
" />
    <glyph glyph-name="uni2117" unicode="&#x2117;" horiz-adv-x="805" 
d="M402 -8c-102.667 0 -188 34 -256 102s-102 153.333 -102 256s34 188 102 256s153.333 102 256 102c103.333 0 189 -34 257 -102s102 -153.333 102 -256s-34 -188 -102 -256s-153.667 -102 -257 -102zM402 39c88.667 0 162.334 29.5 221.001 88.5s88 133.167 88 222.5
s-29.333 163.5 -88 222.5s-132.334 88.5 -221.001 88.5s-162.167 -29.5 -220.5 -88.5s-87.5 -133.167 -87.5 -222.5s29.167 -163.5 87.5 -222.5s131.833 -88.5 220.5 -88.5zM426 327h-90v-169h-49v401h139c38.667 0 69.834 -10.667 93.501 -32s35.5 -49.333 35.5 -84
s-11.833 -62.667 -35.5 -84s-54.834 -32 -93.501 -32zM336 512v-137.998h91c24.667 0 43.834 6.16699 57.501 18.5s20.5 29.166 20.5 50.499s-6.83301 38.166 -20.5 50.499s-32.834 18.5 -57.501 18.5h-91z" />
    <glyph glyph-name="trademark" unicode="&#x2122;" horiz-adv-x="701" 
d="M116 350v306h-110v44h270v-44h-110v-306h-50zM315 350v350h59l116 -279l116 279h58v-350h-47v258l-107 -258h-40l-107 258v-258h-48z" />
    <glyph glyph-name="uni2126" unicode="&#x2126;" horiz-adv-x="735" 
d="M691 373c0 -61.333 -15.501 -120.166 -46.501 -176.499s-71.833 -101.166 -122.5 -134.499h154v-62h-233v62h1v14c56 30 100.167 71.5 132.5 124.5s48.5 110.5 48.5 172.5c0 79.333 -24.5 145.333 -73.5 198s-110.5 79 -184.5 79c-73.333 0 -134.333 -26.333 -183 -79
s-73 -118.667 -73 -198c0 -61.333 16 -118.5 48 -171.5s76 -94.833 132 -125.5v-14h1v-62h-233v62h154c-50.667 33.333 -91.5 78.166 -122.5 134.499s-46.5 115.166 -46.5 176.499c0 96.667 30.667 176.667 92 240s138.333 95 231 95s169.834 -31.833 231.501 -95.5
s92.5 -143.5 92.5 -239.5z" />
    <glyph glyph-name="oneeighth" unicode="&#x215b;" horiz-adv-x="805" 
d="M109 315l-0.000976562 325c-30 -20 -56.333 -33 -79 -39v51c26.667 8 56.334 24 89.001 48h43v-385h-53zM113.999 0l468 700h61l-468 -700h-61zM634.999 -4c-41.333 0 -74.999 10.498 -100.999 31.498s-39 48.833 -39 83.5c0 22 6.66699 41.833 20 59.5
s30.666 29.834 51.999 36.501c-16.667 8 -30.167 19.333 -40.5 34s-15.5 30.334 -15.5 47.001c0 29.333 11.5 53.5 34.5 72.5s52.833 28.5 89.5 28.5c36 0 65.167 -9.5 87.5 -28.5s33.5 -43.167 33.5 -72.5c0 -17.333 -5.16699 -33.333 -15.5 -48
s-24.166 -25.667 -41.499 -33c22 -6.66699 39.833 -18.667 53.5 -36s20.5 -37.333 20.5 -60c0 -34.667 -12.833 -62.5 -38.5 -83.5s-58.834 -31.5 -99.501 -31.5zM635 228.998c20 0 36.165 5.16699 48.498 15.5s18.5 23.833 18.5 40.5c0 17.333 -6.16699 31.333 -18.5 42
s-28.5 16 -48.5 16c-21.333 0 -38.166 -5.16699 -50.499 -15.5s-18.5 -24.5 -18.5 -42.5c0 -17.333 6.33301 -31 19 -41s29.334 -15 50.001 -15zM633.998 43.998c25.333 0 45.168 6.16699 59.501 18.5s21.5 29.166 21.5 50.499c0 20 -7.33301 36.167 -22 48.5
s-34.334 18.5 -59.001 18.5s-44.5 -6.16699 -59.5 -18.5s-22.5 -28.5 -22.5 -48.5c0 -21.333 7.33301 -38.166 22 -50.499s34.667 -18.5 60 -18.5z" />
    <glyph glyph-name="threeeighths" unicode="&#x215c;" horiz-adv-x="875" 
d="M163 311c-38 0 -69.834 10.1689 -95.501 30.502s-40.167 47.166 -43.5 80.499l53 8c2.66699 -20.667 11.834 -37.334 27.501 -50.001s35.167 -19 58.5 -19c25.333 0 45.666 6.83301 60.999 20.5s23 32.167 23 55.5c0 24 -7.16699 42.5 -21.5 55.5
s-34.166 19.5 -59.499 19.5c-16 0 -30 -4 -42 -12l-25 37l117 115h-181v48h248v-48l-106 -102c37.333 3.33301 68 -5.5 92 -26.5s36 -50.167 36 -87.5c0 -38 -12.833 -68.333 -38.5 -91s-60.167 -34 -103.5 -34zM154.999 0.00195312l468 700h61l-468 -700h-61z
M704.999 -3.99805c-41.333 0 -74.999 10.498 -100.999 31.498s-39 48.833 -39 83.5c0 22 6.66699 41.833 20 59.5s30.666 29.834 51.999 36.501c-16.667 8 -30.167 19.333 -40.5 34s-15.5 30.334 -15.5 47.001c0 29.333 11.5 53.5 34.5 72.5s52.833 28.5 89.5 28.5
c36 0 65.167 -9.5 87.5 -28.5s33.5 -43.167 33.5 -72.5c0 -17.333 -5.16699 -33.333 -15.5 -48s-24.166 -25.667 -41.499 -33c22 -6.66699 39.833 -18.667 53.5 -36s20.5 -37.333 20.5 -60c0 -34.667 -12.833 -62.5 -38.5 -83.5s-58.834 -31.5 -99.501 -31.5zM705 229
c20 0 36.165 5.16699 48.498 15.5s18.5 23.833 18.5 40.5c0 17.333 -6.16699 31.333 -18.5 42s-28.5 16 -48.5 16c-21.333 0 -38.166 -5.16699 -50.499 -15.5s-18.5 -24.5 -18.5 -42.5c0 -17.333 6.33301 -31 19 -41s29.334 -15 50.001 -15zM703.998 44
c25.333 0 45.168 6.16699 59.501 18.5s21.5 29.166 21.5 50.499c0 20 -7.33301 36.167 -22 48.5s-34.334 18.5 -59.001 18.5s-44.5 -6.16699 -59.5 -18.5s-22.5 -28.5 -22.5 -48.5c0 -21.333 7.33301 -38.166 22 -50.499s34.667 -18.5 60 -18.5z" />
    <glyph glyph-name="fiveeighths" unicode="&#x215d;" horiz-adv-x="875" 
d="M165 311c-38.667 0 -70.5 9.5 -95.5 28.5s-40.167 44.833 -45.5 77.5l52 9c3.33301 -19.333 12.833 -35 28.5 -47s34.834 -18 57.501 -18c24 0 43.333 7.5 58 22.5s22 34.5 22 58.5c0 25.333 -7.5 45.5 -22.5 60.5s-35.5 22.5 -61.5 22.5c-36 0 -63.667 -15 -83 -45
l-40 9l30 211h207v-50h-166l-16 -109c24 20.667 50.333 31 79 31c39.333 0 71 -12 95 -36s36 -55.333 36 -94c0 -39.333 -12.333 -71 -37 -95s-57.334 -36 -98.001 -36zM174 0l468 700h61l-468 -700h-61zM705 -4c-41.333 0 -74.999 10.498 -100.999 31.498
s-39 48.833 -39 83.5c0 22 6.66699 41.833 20 59.5s30.666 29.834 51.999 36.501c-16.667 8 -30.167 19.333 -40.5 34s-15.5 30.334 -15.5 47.001c0 29.333 11.5 53.5 34.5 72.5s52.833 28.5 89.5 28.5c36 0 65.167 -9.5 87.5 -28.5s33.5 -43.167 33.5 -72.5
c0 -17.333 -5.16699 -33.333 -15.5 -48s-24.166 -25.667 -41.499 -33c22 -6.66699 39.833 -18.667 53.5 -36s20.5 -37.333 20.5 -60c0 -34.667 -12.833 -62.5 -38.5 -83.5s-58.834 -31.5 -99.501 -31.5zM705.001 228.998c20 0 36.165 5.16699 48.498 15.5
s18.5 23.833 18.5 40.5c0 17.333 -6.16699 31.333 -18.5 42s-28.5 16 -48.5 16c-21.333 0 -38.166 -5.16699 -50.499 -15.5s-18.5 -24.5 -18.5 -42.5c0 -17.333 6.33301 -31 19 -41s29.334 -15 50.001 -15zM703.999 43.998c25.333 0 45.168 6.16699 59.501 18.5
s21.5 29.166 21.5 50.499c0 20 -7.33301 36.167 -22 48.5s-34.334 18.5 -59.001 18.5s-44.5 -6.16699 -59.5 -18.5s-22.5 -28.5 -22.5 -48.5c0 -21.333 7.33301 -38.166 22 -50.499s34.667 -18.5 60 -18.5z" />
    <glyph glyph-name="seveneighths" unicode="&#x215e;" horiz-adv-x="795" 
d="M59 315c37.333 126.667 94.333 238.334 171 335.001h-211v50h265v-50c-82 -108.667 -138.333 -220.334 -169 -335.001h-56zM84 0l468 700h61l-468 -700h-61zM625 -4c-41.333 0 -74.999 10.498 -100.999 31.498s-39 48.833 -39 83.5c0 22 6.66699 41.833 20 59.5
s30.666 29.834 51.999 36.501c-16.667 8 -30.167 19.333 -40.5 34s-15.5 30.334 -15.5 47.001c0 29.333 11.5 53.5 34.5 72.5s52.833 28.5 89.5 28.5c36 0 65.167 -9.5 87.5 -28.5s33.5 -43.167 33.5 -72.5c0 -17.333 -5.16699 -33.333 -15.5 -48
s-24.166 -25.667 -41.499 -33c22 -6.66699 39.833 -18.667 53.5 -36s20.5 -37.333 20.5 -60c0 -34.667 -12.833 -62.5 -38.5 -83.5s-58.834 -31.5 -99.501 -31.5zM625.001 228.998c20 0 36.165 5.16699 48.498 15.5s18.5 23.833 18.5 40.5
c0 17.333 -6.16699 31.333 -18.5 42s-28.5 16 -48.5 16c-21.333 0 -38.166 -5.16699 -50.499 -15.5s-18.5 -24.5 -18.5 -42.5c0 -17.333 6.33301 -31 19 -41s29.334 -15 50.001 -15zM623.999 43.998c25.333 0 45.168 6.16699 59.501 18.5s21.5 29.166 21.5 50.499
c0 20 -7.33301 36.167 -22 48.5s-34.334 18.5 -59.001 18.5s-44.5 -6.16699 -59.5 -18.5s-22.5 -28.5 -22.5 -48.5c0 -21.333 7.33301 -38.166 22 -50.499s34.667 -18.5 60 -18.5z" />
    <glyph glyph-name="uni2160" unicode="&#x2160;" horiz-adv-x="439" 
d="M363 638h-110v-576h110v-62h-287v62h110v576h-110v62h287v-62z" />
    <glyph glyph-name="uni2161" unicode="&#x2161;" horiz-adv-x="668" 
d="M592 638h-110v-576h110v-62h-516v62h110v576h-110v62h516v-62zM415 62v576h-162v-576h162z" />
    <glyph glyph-name="uni2162" unicode="&#x2162;" horiz-adv-x="897" 
d="M821 638h-110v-576h110v-62h-745v62h110v576h-110v62h745v-62zM253 62h162v576h-162v-576zM644 62v576h-162v-576h162z" />
    <glyph glyph-name="uni2163" unicode="&#x2163;" horiz-adv-x="1084" 
d="M1008 638h-90l-220 -576h310v-62h-932v62h110v576h-110v62h932v-62zM253 62h326l-220 576h-106v-576zM638 74l212 564h-423z" />
    <glyph glyph-name="uni2164" unicode="&#x2164;" horiz-adv-x="907" 
d="M831 638h-93l-220 -576h288v-62h-705v62h298l-220 576h-103v62h755v-62zM458 74l212 564h-423z" />
    <glyph glyph-name="uni2165" unicode="&#x2165;" horiz-adv-x="1084" 
d="M1008 638h-110v-576h110v-62h-932v62h320l-220 576h-100v62h932v-62zM667 638h-423l211 -564zM831 62v576h-96l-220 -576h316z" />
    <glyph glyph-name="uni2166" unicode="&#x2166;" horiz-adv-x="1313" 
d="M1237 638h-110v-576h110v-62h-1161v62h320l-220 576h-100v62h1161v-62zM667 638h-423l211 -564zM515 62h316v576h-96zM898 62h162v576h-162v-576z" />
    <glyph glyph-name="uni2167" unicode="&#x2167;" horiz-adv-x="1542" 
d="M1466 638h-110v-576h110v-62h-1390v62h320l-220 576h-100v62h1390v-62zM667 638h-423l211 -564zM515 62h316v576h-96zM898 62h162v576h-162v-576zM1127 62h162v576h-162v-576z" />
    <glyph glyph-name="uni2168" unicode="&#x2168;" horiz-adv-x="1073" 
d="M900 638l-185 -288l185 -288h97v-62h-921v62h110v576h-110v62h921v-62h-97zM459 62l186 288l-185 288h-207v-576h206zM830 638h-300l150 -233zM830 62l-150 234l-151 -234h301z" />
    <glyph glyph-name="uni2169" unicode="&#x2169;" horiz-adv-x="787" 
d="M614 638l-185 -288l185 -288h97v-62h-635v62h97l186 288l-185 288h-98v62h635v-62h-97zM244 638l150 -233l150 233h-300zM544 62l-150 234l-151 -234h301z" />
    <glyph glyph-name="uni216A" unicode="&#x216a;" horiz-adv-x="977" 
d="M901 638h-110v-576h110v-62h-825v62h97l185 288l-185 288h-97v62h825v-62zM243 638l150 -233l150 233h-300zM724 62v576h-111l-185 -288l186 -288h110zM243 62h301l-151 234z" />
    <glyph glyph-name="uni216B" unicode="&#x216b;" horiz-adv-x="1264" 
d="M1188 638h-110v-576h110v-62h-1112v62h97l185 288l-185 288h-97v62h1112v-62zM243 638l150 -233l150 233h-300zM724 62v576h-111l-185 -288l186 -288h110zM1011 62v576h-220v-576h220zM243 62h301l-151 234z" />
    <glyph glyph-name="uni216C" unicode="&#x216c;" horiz-adv-x="627" 
d="M612 62v-62h-536v62h110v576h-110v62h287v-62h-110v-576h297l-2 109l62 1z" />
    <glyph glyph-name="uni216D" unicode="&#x216d;" horiz-adv-x="707" 
d="M669 0l-62.998 -1v105c-51.333 -74.667 -127 -112 -227 -112c-44 0 -85.667 7.5 -125 22.5s-74.833 36.667 -106.5 65s-56.834 65.833 -75.501 112.5s-28 99.334 -28 158.001s9.33301 111.334 28 158.001s44 84.167 76 112.5s67.667 50 107 65s80.666 22.5 123.999 22.5
c104 0 179.667 -36 227 -108v99l59 1l2 -207l-66 -15c-12 53.333 -37.333 94.666 -76 123.999s-87.334 44 -146.001 44c-79.333 0 -143.333 -26 -192 -78s-73 -124.667 -73 -218s24.333 -166 73 -218s112.667 -78 192 -78c58.667 0 106.834 14.167 144.501 42.5
s63.5 69.166 77.5 122.499l66 -13z" />
    <glyph glyph-name="uni216E" unicode="&#x216e;" horiz-adv-x="774" 
d="M384 700c100.667 0 183.5 -31.5 248.5 -94.5s97.5 -148.167 97.5 -255.5s-32.5 -192.5 -97.5 -255.5s-147.833 -94.5 -248.5 -94.5h-308v62h110v576h-110v62h308zM386 62c77.333 0 142.166 24.3311 194.499 72.998s78.5 120.334 78.5 215.001
s-26.167 166.334 -78.5 215.001s-117.166 73 -194.499 73h-133v-576h133z" />
    <glyph glyph-name="uni216F" unicode="&#x216f;" horiz-adv-x="1042" 
d="M966 638h-110v-576h110v-62h-179v572l-235 -572h-62l-235 572v-572h-179v62h110v576h-110v62h197l248 -601l248 601h197v-62z" />
    <glyph glyph-name="arrowleft" unicode="&#x2190;" horiz-adv-x="706" 
d="M666 285v-56h-522l202 -202l-38 -38l-268 268l269 269l38 -39l-203 -202h522z" />
    <glyph glyph-name="arrowup" unicode="&#x2191;" horiz-adv-x="617" 
d="M577 373l-38 -38l-202 202v-522h-56v522l-202 -203l-39 38l269 269z" />
    <glyph glyph-name="arrowright" unicode="&#x2192;" horiz-adv-x="706" 
d="M397 526l269 -269l-268 -268l-38 38l202 202h-522v56h522l-203 202z" />
    <glyph glyph-name="arrowdown" unicode="&#x2193;" horiz-adv-x="617" 
d="M538 308l39 -38l-269 -269l-268 268l38 38l202 -202v522h56v-522z" />
    <glyph glyph-name="arrowboth" unicode="&#x2194;" horiz-adv-x="1020" 
d="M711 526l269 -269l-268 -268l-38 38l202 202h-732l202 -202l-38 -38l-268 268l269 269l38 -39l-203 -202h732l-203 202z" />
    <glyph glyph-name="arrowupdn" unicode="&#x2195;" horiz-adv-x="617" 
d="M336 -60l202 203l39 -38l-269 -269l-268 268l38 38l202 -202v732l-202 -202l-38 38l268 268l269 -269l-39 -38l-202 203v-732z" />
    <glyph glyph-name="uni2196" unicode="&#x2196;" horiz-adv-x="575" 
d="M535 65l-39 -40l-369 368v-284h-54v379h380v-55l-287 1z" />
    <glyph glyph-name="uni2197" unicode="&#x2197;" horiz-adv-x="568" 
d="M115 488h380v-379h-54v284l-369 -368l-39 40l369 369l-287 -1v55z" />
    <glyph glyph-name="uni2198" unicode="&#x2198;" horiz-adv-x="576" 
d="M448 387h55v-380h-379v54h284l-368 369l40 39l369 -369z" />
    <glyph glyph-name="uni2199" unicode="&#x2199;" horiz-adv-x="576" 
d="M535 430l-368 -369h284v-54h-379v380h55l-1 -287l369 369z" />
    <glyph glyph-name="partialdiff" unicode="&#x2202;" horiz-adv-x="622" 
d="M226 708l16.999 -0.000976562c98 0 175.833 -35.167 233.5 -105.5s86.5 -168.5 86.5 -294.5c0 -96.667 -23.167 -173.5 -69.5 -230.5s-108.166 -85.5 -185.499 -85.5c-72.667 0 -132.167 22.333 -178.5 67s-69.5 101.667 -69.5 171s23.167 126.333 69.5 171
s105.833 67 178.5 67c42 0 81.667 -11.833 119 -35.5s62.333 -53.5 75 -89.5c0 88.667 -24 161.334 -72 218.001s-109.333 85 -184 85c-12 0 -21 -0.333008 -27 -1zM307.999 53.999c52 0 94.667 16.667 128 50s50 75.666 50 126.999s-16.667 93.333 -50 126s-76 49 -128 49
s-94.667 -16.333 -128 -49s-50 -74.667 -50 -126s16.667 -93.666 50 -126.999s76 -50 128 -50z" />
    <glyph glyph-name="uni2206" unicode="&#x2206;" horiz-adv-x="643" 
d="M351 700l282 -700h-623l282 700h59zM104 62h435l-217 549z" />
    <glyph glyph-name="product" unicode="&#x220f;" horiz-adv-x="631" 
d="M76 0v700h479v-700h-72v638h-337v-638h-70z" />
    <glyph glyph-name="summation" unicode="&#x2211;" horiz-adv-x="546" 
d="M45 0v62l249 288l-249 288v62h451v-62h-370l228 -260v-56l-228 -260h370v-62h-451z" />
    <glyph glyph-name="minus" unicode="&#x2212;" 
d="M35 309v56h460v-56h-460z" />
    <glyph glyph-name="radical" unicode="&#x221a;" horiz-adv-x="536" 
d="M234 0l-103 327h-101v62h145l94 -309l193 620h69l-222 -700h-75z" />
    <glyph glyph-name="infinity" unicode="&#x221e;" horiz-adv-x="898" 
d="M656 549c59.333 0 107.333 -17.5 144 -52.5s55 -80.833 55 -137.5s-18.333 -102.5 -55 -137.5s-84.667 -52.5 -144 -52.5c-80.667 0 -149.667 44 -207 132c-57.333 -88 -126.333 -132 -207 -132c-59.333 0 -107.333 17.5 -144 52.5s-55 80.833 -55 137.5
s18.333 102.5 55 137.5s84.667 52.5 144 52.5c80.667 0 149.667 -44 207 -132c57.333 88 126.333 132 207 132zM242 227c68.667 0 127 44.002 175 132.002c-48 88 -106.333 132 -175 132c-43.333 0 -77.166 -11.833 -101.499 -35.5s-36.5 -55.834 -36.5 -96.501
s12.167 -72.834 36.5 -96.501s58.166 -35.5 101.499 -35.5zM656 227.002c43.333 0 77.166 11.8311 101.499 35.498s36.5 55.834 36.5 96.501s-12.167 72.834 -36.5 96.501s-58.166 35.5 -101.499 35.5c-68 0 -126 -44 -174 -132c48 -88 106 -132 174 -132z" />
    <glyph glyph-name="integral" unicode="&#x222b;" horiz-adv-x="265" 
d="M34 -190l-14 1l-2 57h10c48.667 0 73 31.333 73 94v601c0 42 12 76.667 36 104s55.333 41 94 41l14 -1l2 -57h-10c-48.667 0 -73 -31.333 -73 -94v-601c0 -42 -12 -76.667 -36 -104s-55.333 -41 -94 -41z" />
    <glyph glyph-name="approxequal" unicode="&#x2248;" horiz-adv-x="558" 
d="M362 370c-29.333 0 -60.666 11.333 -93.999 34c-0.666992 0.666992 -6 4.5 -16 11.5s-16.333 11.333 -19 13s-8 4.5 -16 8.5s-15.333 6.66699 -22 8s-13.667 2 -21 2c-18.667 0 -34.5 -5.83301 -47.5 -17.5s-20.833 -28.167 -23.5 -49.5l-53 9
c2.66699 34.667 15.167 62.334 37.5 83.001s51.166 31 86.499 31c29.333 0 60.666 -11.333 93.999 -34c0.666992 -0.666992 6 -4.5 16 -11.5s16.333 -11.333 19 -13s8 -4.5 16 -8.5s15.333 -6.66699 22 -8s13.667 -2 21 -2c18.667 0 34.5 5.83301 47.5 17.5
s20.833 28.167 23.5 49.5l53 -9c-2.66699 -34.667 -15.167 -62.334 -37.5 -83.001s-51.166 -31 -86.499 -31zM362 169c-29.333 0 -60.666 11.333 -93.999 34c-0.666992 0.666992 -6 4.5 -16 11.5s-16.333 11.333 -19 13s-8 4.5 -16 8.5s-15.333 6.66699 -22 8
s-13.667 2 -21 2c-18.667 0 -34.5 -5.83301 -47.5 -17.5s-20.833 -28.167 -23.5 -49.5l-53 9c2.66699 34.667 15.167 62.334 37.5 83.001s51.166 31 86.499 31c29.333 0 60.666 -11.333 93.999 -34c0.666992 -0.666992 6 -4.5 16 -11.5s16.333 -11.333 19 -13
s8 -4.5 16 -8.5s15.333 -6.66699 22 -8s13.667 -2 21 -2c18.667 0 34.5 5.83301 47.5 17.5s20.833 28.167 23.5 49.5l53 -9c-2.66699 -34.667 -15.167 -62.334 -37.5 -83.001s-51.166 -31 -86.499 -31z" />
    <glyph glyph-name="notequal" unicode="&#x2260;" 
d="M495 402h-150l-79 -127h229v-56h-263l-95 -153l-52 30l76 123h-126v56h161l78 127h-239v56h274l84 136l52 -30l-66 -106h116v-56z" />
    <glyph glyph-name="lessequal" unicode="&#x2264;" 
d="M495 67l-460 188v72l460 188v-65l-398 -159l398 -159v-65zM495 0h-460v56h460v-56z" />
    <glyph glyph-name="greaterequal" unicode="&#x2265;" 
d="M35 67v65l398 159l-398 159v65l460 -188v-72zM35 0v56h460v-56h-460z" />
    <glyph glyph-name="uni2460" unicode="&#x2460;" horiz-adv-x="805" 
d="M402 -8c-102.667 0 -188 34 -256 102s-102 153.333 -102 256s34 188 102 256s153.333 102 256 102c103.333 0 189 -34 257 -102s102 -153.333 102 -256s-34 -188 -102 -256s-153.667 -102 -257 -102zM402 39c88.667 0 162.334 29.5 221.001 88.5s88 133.167 88 222.5
s-29.333 163.5 -88 222.5s-132.334 88.5 -221.001 88.5s-162.167 -29.5 -220.5 -88.5s-87.5 -133.167 -87.5 -222.5s29.167 -163.5 87.5 -222.5s131.833 -88.5 220.5 -88.5zM401 167l-0.000976562 325c-30 -20 -56.333 -33 -79 -39v51c26.667 8 56.334 24 89.001 48h43v-385
h-53z" />
    <glyph glyph-name="uni2461" unicode="&#x2461;" horiz-adv-x="805" 
d="M402 -8c-102.667 0 -188 34 -256 102s-102 153.333 -102 256s34 188 102 256s153.333 102 256 102c103.333 0 189 -34 257 -102s102 -153.333 102 -256s-34 -188 -102 -256s-153.667 -102 -257 -102zM402 39c88.667 0 162.334 29.5 221.001 88.5s88 133.167 88 222.5
s-29.333 163.5 -88 222.5s-132.334 88.5 -221.001 88.5s-162.167 -29.5 -220.5 -88.5s-87.5 -133.167 -87.5 -222.5s29.167 -163.5 87.5 -222.5s131.833 -88.5 220.5 -88.5zM271 167l-0.000976562 47.999l130 111c50 42 75 80 75 114c0 20 -6.33301 36 -19 48
s-29.667 18 -51 18c-26 0 -45.667 -8.33301 -59 -25s-18.666 -39 -15.999 -67l-54 5c-2.66699 40.667 8 73.667 32 99s56.333 38 97 38c38.667 0 69.667 -10.667 93 -32s35 -49.333 35 -84c0 -45.333 -32 -94.666 -96 -147.999l-90 -75h186v-50h-263z" />
    <glyph glyph-name="uni2462" unicode="&#x2462;" horiz-adv-x="805" 
d="M402 -8c-102.667 0 -188 34 -256 102s-102 153.333 -102 256s34 188 102 256s153.333 102 256 102c103.333 0 189 -34 257 -102s102 -153.333 102 -256s-34 -188 -102 -256s-153.667 -102 -257 -102zM402 39c88.667 0 162.334 29.5 221.001 88.5s88 133.167 88 222.5
s-29.333 163.5 -88 222.5s-132.334 88.5 -221.001 88.5s-162.167 -29.5 -220.5 -88.5s-87.5 -133.167 -87.5 -222.5s29.167 -163.5 87.5 -222.5s131.833 -88.5 220.5 -88.5zM399 163c-38 0 -69.834 10.1689 -95.501 30.502s-40.167 47.166 -43.5 80.499l53 8
c2.66699 -20.667 11.834 -37.334 27.501 -50.001s35.167 -19 58.5 -19c25.333 0 45.666 6.83301 60.999 20.5s23 32.167 23 55.5c0 24 -7.16699 42.5 -21.5 55.5s-34.166 19.5 -59.499 19.5c-16 0 -30 -4 -42 -12l-25 37l117 115h-181v48h248v-48l-106 -102
c37.333 3.33301 68 -5.5 92 -26.5s36 -50.167 36 -87.5c0 -38 -12.833 -68.333 -38.5 -91s-60.167 -34 -103.5 -34z" />
    <glyph glyph-name="uni2463" unicode="&#x2463;" horiz-adv-x="805" 
d="M402 -8c-102.667 0 -188 34 -256 102s-102 153.333 -102 256s34 188 102 256s153.333 102 256 102c103.333 0 189 -34 257 -102s102 -153.333 102 -256s-34 -188 -102 -256s-153.667 -102 -257 -102zM402 39c88.667 0 162.334 29.5 221.001 88.5s88 133.167 88 222.5
s-29.333 163.5 -88 222.5s-132.334 88.5 -221.001 88.5s-162.167 -29.5 -220.5 -88.5s-87.5 -133.167 -87.5 -222.5s29.167 -163.5 87.5 -222.5s131.833 -88.5 220.5 -88.5zM426 167v90h-203v50l196 245h64v-245h57v-50h-57v-90h-57zM283 307h143v180z" />
    <glyph glyph-name="uni2464" unicode="&#x2464;" horiz-adv-x="805" 
d="M402 -8c-102.667 0 -188 34 -256 102s-102 153.333 -102 256s34 188 102 256s153.333 102 256 102c103.333 0 189 -34 257 -102s102 -153.333 102 -256s-34 -188 -102 -256s-153.667 -102 -257 -102zM402 39c88.667 0 162.334 29.5 221.001 88.5s88 133.167 88 222.5
s-29.333 163.5 -88 222.5s-132.334 88.5 -221.001 88.5s-162.167 -29.5 -220.5 -88.5s-87.5 -133.167 -87.5 -222.5s29.167 -163.5 87.5 -222.5s131.833 -88.5 220.5 -88.5zM404 163c-38.667 0 -70.5 9.5 -95.5 28.5s-40.167 44.833 -45.5 77.5l52 9
c3.33301 -19.333 12.833 -35 28.5 -47s34.834 -18 57.501 -18c24 0 43.333 7.5 58 22.5s22 34.5 22 58.5c0 25.333 -7.5 45.5 -22.5 60.5s-35.5 22.5 -61.5 22.5c-36 0 -63.667 -15 -83 -45l-40 9l30 211h207v-50h-166l-16 -109c24 20.667 50.333 31 79 31
c39.333 0 71 -12 95 -36s36 -55.333 36 -94c0 -39.333 -12.333 -71 -37 -95s-57.334 -36 -98.001 -36z" />
    <glyph glyph-name="uni2465" unicode="&#x2465;" horiz-adv-x="805" 
d="M402 -8c-102.667 0 -188 34 -256 102s-102 153.333 -102 256s34 188 102 256s153.333 102 256 102c103.333 0 189 -34 257 -102s102 -153.333 102 -256s-34 -188 -102 -256s-153.667 -102 -257 -102zM402 39c88.667 0 162.334 29.5 221.001 88.5s88 133.167 88 222.5
s-29.333 163.5 -88 222.5s-132.334 88.5 -221.001 88.5s-162.167 -29.5 -220.5 -88.5s-87.5 -133.167 -87.5 -222.5s29.167 -163.5 87.5 -222.5s131.833 -88.5 220.5 -88.5zM400 425c39.333 0 71.8301 -12.3311 97.4971 -36.998s38.5 -56 38.5 -94
c0 -38.667 -13.167 -70.167 -39.5 -94.5s-60.166 -36.5 -101.499 -36.5c-43.333 0 -78.333 16.167 -105 48.5s-40 75.166 -40 128.499c0 68.667 16.833 122 50.5 160s76.834 57 129.501 57c43.333 0 78.666 -12.333 105.999 -37l-28 -40c-21.333 18 -47.666 27 -78.999 27
c-36 0 -65.667 -13 -89 -39s-35.666 -59.333 -36.999 -100c8 17.333 21 31.166 39 41.499s37.333 15.5 58 15.5zM394.997 213.002c24.667 0 44.8311 7.83301 60.498 23.5s23.834 35.834 24.501 60.501c0.666992 24 -7.16602 43.5 -23.499 58.5s-36.833 22.5 -61.5 22.5
s-44.667 -7.5 -60 -22.5s-23 -34.5 -23 -58.5c0 -24.667 7.66699 -44.834 23 -60.501s35.333 -23.5 60 -23.5z" />
    <glyph glyph-name="uni2466" unicode="&#x2466;" horiz-adv-x="805" 
d="M402 -8c-102.667 0 -188 34 -256 102s-102 153.333 -102 256s34 188 102 256s153.333 102 256 102c103.333 0 189 -34 257 -102s102 -153.333 102 -256s-34 -188 -102 -256s-153.667 -102 -257 -102zM402 39c88.667 0 162.334 29.5 221.001 88.5s88 133.167 88 222.5
s-29.333 163.5 -88 222.5s-132.334 88.5 -221.001 88.5s-162.167 -29.5 -220.5 -88.5s-87.5 -133.167 -87.5 -222.5s29.167 -163.5 87.5 -222.5s131.833 -88.5 220.5 -88.5zM310 167c37.333 126.667 94.333 238.334 171 335.001h-211v50h265v-50
c-82 -108.667 -138.333 -220.334 -169 -335.001h-56z" />
    <glyph glyph-name="uni2467" unicode="&#x2467;" horiz-adv-x="805" 
d="M402 -8c-102.667 0 -188 34 -256 102s-102 153.333 -102 256s34 188 102 256s153.333 102 256 102c103.333 0 189 -34 257 -102s102 -153.333 102 -256s-34 -188 -102 -256s-153.667 -102 -257 -102zM402 39c88.667 0 162.334 29.5 221.001 88.5s88 133.167 88 222.5
s-29.333 163.5 -88 222.5s-132.334 88.5 -221.001 88.5s-162.167 -29.5 -220.5 -88.5s-87.5 -133.167 -87.5 -222.5s29.167 -163.5 87.5 -222.5s131.833 -88.5 220.5 -88.5zM404 163c-41.333 0 -74.999 10.498 -100.999 31.498s-39 48.833 -39 83.5
c0 22 6.66699 41.833 20 59.5s30.666 29.834 51.999 36.501c-16.667 8 -30.167 19.333 -40.5 34s-15.5 30.334 -15.5 47.001c0 29.333 11.5 53.5 34.5 72.5s52.833 28.5 89.5 28.5c36 0 65.167 -9.5 87.5 -28.5s33.5 -43.167 33.5 -72.5
c0 -17.333 -5.16699 -33.333 -15.5 -48s-24.166 -25.667 -41.499 -33c22 -6.66699 39.833 -18.667 53.5 -36s20.5 -37.333 20.5 -60c0 -34.667 -12.833 -62.5 -38.5 -83.5s-58.834 -31.5 -99.501 -31.5zM404.001 395.998c20 0 36.165 5.16699 48.498 15.5
s18.5 23.833 18.5 40.5c0 17.333 -6.16699 31.333 -18.5 42s-28.5 16 -48.5 16c-21.333 0 -38.166 -5.16699 -50.499 -15.5s-18.5 -24.5 -18.5 -42.5c0 -17.333 6.33301 -31 19 -41s29.334 -15 50.001 -15zM402.999 210.998c25.333 0 45.168 6.16699 59.501 18.5
s21.5 29.166 21.5 50.499c0 20 -7.33301 36.167 -22 48.5s-34.334 18.5 -59.001 18.5s-44.5 -6.16699 -59.5 -18.5s-22.5 -28.5 -22.5 -48.5c0 -21.333 7.33301 -38.166 22 -50.499s34.667 -18.5 60 -18.5z" />
    <glyph glyph-name="uni2468" unicode="&#x2468;" horiz-adv-x="805" 
d="M402 -8c-102.667 0 -188 34 -256 102s-102 153.333 -102 256s34 188 102 256s153.333 102 256 102c103.333 0 189 -34 257 -102s102 -153.333 102 -256s-34 -188 -102 -256s-153.667 -102 -257 -102zM402 39c88.667 0 162.334 29.5 221.001 88.5s88 133.167 88 222.5
s-29.333 163.5 -88 222.5s-132.334 88.5 -221.001 88.5s-162.167 -29.5 -220.5 -88.5s-87.5 -133.167 -87.5 -222.5s29.167 -163.5 87.5 -222.5s131.833 -88.5 220.5 -88.5zM397 294c-40 0 -72.667 12.333 -98 37s-38 56 -38 94s13.333 69.333 40 94s60.334 37 101.001 37
c43.333 0 78.166 -16.167 104.499 -48.5s39.5 -75.166 39.5 -128.499c0 -68.667 -16.667 -122 -50 -160s-76.333 -57 -129 -57c-42.667 0 -78.334 12.333 -107.001 37l28 40c22 -18 48.333 -27 79 -27c36.667 0 66.834 13 90.501 39s36.167 59.333 37.5 100
c-8.66699 -16.667 -22 -30.334 -40 -41.001s-37.333 -16 -58 -16zM401 506c-24 0 -43.667 -7.66699 -59 -23s-23 -35.333 -23 -60s7.66699 -44.5 23 -59.5s35 -22.5 59 -22.5c24.667 0 45 7.66699 61 23s24 35 24 59s-8 43.833 -24 59.5s-36.333 23.5 -61 23.5z" />
    <glyph glyph-name="lozenge" unicode="&#x25ca;" horiz-adv-x="558" 
d="M247 0l-196 350l196 350h64l196 -350l-196 -350h-64zM279 64l162 286l-162 286l-162 -286z" />
    <glyph glyph-name="circle" unicode="&#x25cb;" horiz-adv-x="805" 
d="M402 -8c-102.667 0 -188 34 -256 102s-102 153.333 -102 256s34 188 102 256s153.333 102 256 102c103.333 0 189 -34 257 -102s102 -153.333 102 -256s-34 -188 -102 -256s-153.667 -102 -257 -102zM402 39c88.667 0 162.334 29.5 221.001 88.5s88 133.167 88 222.5
s-29.333 163.5 -88 222.5s-132.334 88.5 -221.001 88.5s-162.167 -29.5 -220.5 -88.5s-87.5 -133.167 -87.5 -222.5s29.167 -163.5 87.5 -222.5s131.833 -88.5 220.5 -88.5z" />
    <glyph glyph-name="uni25CF" unicode="&#x25cf;" horiz-adv-x="805" 
d="M404 -8c-103.333 0 -189.166 34 -257.499 102s-102.5 153.333 -102.5 256s34.167 188 102.5 256s154.166 102 257.499 102c102.667 0 187.834 -34 255.501 -102s101.5 -153.333 101.5 -256s-33.833 -188 -101.5 -256s-152.834 -102 -255.501 -102z" />
    <glyph glyph-name="uniF8FF" unicode="&#xf8ff;" horiz-adv-x="782" 
d="M612 266c37.333 0 69.502 -13.6689 96.502 -41.002s40.5 -59.666 40.5 -96.999s-13.5 -69.333 -40.5 -96s-59.167 -40 -96.5 -40c-38 0 -70.5 13.333 -97.5 40s-40.5 58.667 -40.5 96v85h-167v-85c0 -37.333 -13.5 -69.333 -40.5 -96s-59.5 -40 -97.5 -40
c-37.333 0 -69.333 13.333 -96 40s-40 58.667 -40 96c0 38 13.333 70.5 40 97.5s58.667 40.5 96 40.5h85v167h-85c-37.333 0 -69.333 13.5 -96 40.5s-40 59.5 -40 97.5c0 37.333 13.333 69.5 40 96.5s58.667 40.5 96 40.5s69.666 -13.5 96.999 -40.5s41 -59.167 41 -96.5
v-85h167v85c0 37.333 13.667 69.5 41 96.5s59.666 40.5 96.999 40.5s69.5 -13.5 96.5 -40.5s40.5 -59.167 40.5 -96.5s-13.5 -69.666 -40.5 -96.999s-59.167 -41 -96.5 -41h-85v-167h85zM169.002 485.998h85v85c0 23.333 -8.33301 43.166 -25 59.499s-36.667 24.5 -60 24.5
c-22.667 0 -42.167 -8.16699 -58.5 -24.5s-24.5 -36.166 -24.5 -59.499s8.16699 -43.333 24.5 -60s35.833 -25 58.5 -25zM527.002 570.998l0.00195312 -85h85c23.333 0 43.166 8.33301 59.499 25s24.5 36.667 24.5 60s-8.33301 43.166 -25 59.499s-36.334 24.5 -59.001 24.5
c-23.333 0 -43.333 -8.16699 -60 -24.5s-25 -36.166 -25 -59.499zM307.004 265.998h167v167h-167v-167zM254.004 127.998v85h-85c-22.667 0 -42.167 -8.33301 -58.5 -25s-24.5 -36.667 -24.5 -60c0 -22.667 8 -42.167 24 -58.5s35.667 -24.5 59 -24.5
s43.333 8.16699 60 24.5s25 35.833 25 58.5zM612.004 44.998c23.333 0 43.166 8.16699 59.499 24.5s24.5 35.833 24.5 58.5c0 23.333 -8.16699 43.333 -24.5 60s-36.166 25 -59.499 25h-85v-85c0 -22.667 8.33301 -42.167 25 -58.5s36.667 -24.5 60 -24.5z" />
    <glyph glyph-name=".null" horiz-adv-x="0" 
 />
    <glyph glyph-name="nonmarkingreturn" horiz-adv-x="333" 
 />
    <glyph glyph-name="G.ss03" horiz-adv-x="743" 
d="M386 -8c-100.667 0 -182.833 33.333 -246.5 100s-95.5 152.667 -95.5 258s31.667 191.333 95 258s145.333 100 246 100c76 0 141.333 -19.5 196 -58.5s89.334 -90.833 104.001 -155.5l-66 -15c-10.667 52.667 -36.834 93.667 -78.501 123s-93.5 44 -155.5 44
c-81.333 0 -146.833 -25.833 -196.5 -77.5s-74.5 -124.5 -74.5 -218.5c0 -86.667 25.333 -157.667 76 -213s115.667 -83 195 -83c73.333 0 132 21.5 176 64.5s66.667 100.833 68 173.5h-294v62h364v-21c0 -104 -28.333 -186.833 -85 -248.5s-132.667 -92.5 -228 -92.5z" />
    <glyph glyph-name="Gbreve.ss03" horiz-adv-x="743" 
d="M373 753c-35.333 0 -64.666 11.667 -87.999 35s-35 52.666 -35 87.999h55c0 -20 6.5 -36.833 19.5 -50.5s29.167 -20.5 48.5 -20.5s35.666 6.83301 48.999 20.5s20 30.5 20 50.5h55c0 -35.333 -11.833 -64.666 -35.5 -87.999s-53.167 -35 -88.5 -35zM386 -8
c-100.667 0 -182.833 33.333 -246.5 100s-95.5 152.667 -95.5 258s31.667 191.333 95 258s145.333 100 246 100c76 0 141.333 -19.5 196 -58.5s89.334 -90.833 104.001 -155.5l-66 -15c-10.667 52.667 -36.834 93.667 -78.501 123s-93.5 44 -155.5 44
c-81.333 0 -146.833 -25.833 -196.5 -77.5s-74.5 -124.5 -74.5 -218.5c0 -86.667 25.333 -157.667 76 -213s115.667 -83 195 -83c73.333 0 132 21.5 176 64.5s66.667 100.833 68 173.5h-294v62h364v-21c0 -104 -28.333 -186.833 -85 -248.5s-132.667 -92.5 -228 -92.5z" />
    <glyph glyph-name="Gcircumflex.ss03" horiz-adv-x="743" 
d="M349 904h47l118 -148h-56l-85 96l-87 -96h-55zM386 -8c-100.667 0 -182.833 33.333 -246.5 100s-95.5 152.667 -95.5 258s31.667 191.333 95 258s145.333 100 246 100c76 0 141.333 -19.5 196 -58.5s89.334 -90.833 104.001 -155.5l-66 -15
c-10.667 52.667 -36.834 93.667 -78.501 123s-93.5 44 -155.5 44c-81.333 0 -146.833 -25.833 -196.5 -77.5s-74.5 -124.5 -74.5 -218.5c0 -86.667 25.333 -157.667 76 -213s115.667 -83 195 -83c73.333 0 132 21.5 176 64.5s66.667 100.833 68 173.5h-294v62h364v-21
c0 -104 -28.333 -186.833 -85 -248.5s-132.667 -92.5 -228 -92.5z" />
    <glyph glyph-name="uni0122.ss03" horiz-adv-x="743" 
d="M386 -8c-100.667 0 -182.833 33.333 -246.5 100s-95.5 152.667 -95.5 258s31.667 191.333 95 258s145.333 100 246 100c76 0 141.333 -19.5 196 -58.5s89.334 -90.833 104.001 -155.5l-66 -15c-10.667 52.667 -36.834 93.667 -78.501 123s-93.5 44 -155.5 44
c-81.333 0 -146.833 -25.833 -196.5 -77.5s-74.5 -124.5 -74.5 -218.5c0 -86.667 25.333 -157.667 76 -213s115.667 -83 195 -83c73.333 0 132 21.5 176 64.5s66.667 100.833 68 173.5h-294v62h364v-21c0 -104 -28.333 -186.833 -85 -248.5s-132.667 -92.5 -228 -92.5z
M287.001 -190l47 148h76l-76 -148h-47z" />
    <glyph glyph-name="Gdotaccent.ss03" horiz-adv-x="743" 
d="M335 904h78v-96h-78v96zM386 -8c-100.667 0 -182.833 33.333 -246.5 100s-95.5 152.667 -95.5 258s31.667 191.333 95 258s145.333 100 246 100c76 0 141.333 -19.5 196 -58.5s89.334 -90.833 104.001 -155.5l-66 -15c-10.667 52.667 -36.834 93.667 -78.501 123
s-93.5 44 -155.5 44c-81.333 0 -146.833 -25.833 -196.5 -77.5s-74.5 -124.5 -74.5 -218.5c0 -86.667 25.333 -157.667 76 -213s115.667 -83 195 -83c73.333 0 132 21.5 176 64.5s66.667 100.833 68 173.5h-294v62h364v-21c0 -104 -28.333 -186.833 -85 -248.5
s-132.667 -92.5 -228 -92.5z" />
    <glyph glyph-name="i.loclTRK" horiz-adv-x="209" 
d="M66 708h78v-96h-78v96zM73 0v504h63v-504h-63z" />
    <glyph glyph-name="r.calt" horiz-adv-x="345" 
d="M311 449c-9.33301 2 -20.668 3 -34.001 3c-43.333 0 -77.666 -21.833 -102.999 -65.5s-38 -107.5 -38 -191.5v-195h-63v504h63v-107c14 34 35 61.667 63 83s57.333 32 88 32l28 -2z" />
    <glyph glyph-name="racute.calt" horiz-adv-x="345" 
d="M162 560l77 148h85l-115 -148h-47zM311 449c-9.33301 2 -20.668 3 -34.001 3c-43.333 0 -77.666 -21.833 -102.999 -65.5s-38 -107.5 -38 -191.5v-195h-63v504h63v-107c14 34 35 61.667 63 83s57.333 32 88 32l28 -2z" />
    <glyph glyph-name="rcaron.calt" horiz-adv-x="345" 
d="M169 560l-118 148h55l87 -96l85 96h56l-118 -148h-47zM311 449c-9.33301 2 -20.668 3 -34.001 3c-43.333 0 -77.666 -21.833 -102.999 -65.5s-38 -107.5 -38 -191.5v-195h-63v504h63v-107c14 34 35 61.667 63 83s57.333 32 88 32l28 -2z" />
    <glyph glyph-name="uni0157.calt" horiz-adv-x="345" 
d="M311 449c-9.33301 2 -20.668 3 -34.001 3c-43.333 0 -77.666 -21.833 -102.999 -65.5s-38 -107.5 -38 -191.5v-195h-63v504h63v-107c14 34 35 61.667 63 83s57.333 32 88 32l28 -2zM18.998 -190l47 148h76l-76 -148h-47z" />
    <glyph glyph-name="germandbls.calt" horiz-adv-x="595" 
d="M304 708c54.667 0 101.333 -15.501 140 -46.501s62.667 -71.5 72 -121.5l-163 -156c60 -1.33301 108 -19 144 -53s54 -78.667 54 -134c0 -54.667 -19.333 -101.167 -58 -139.5s-85.334 -57.5 -140.001 -57.5h-139v62h138c37.333 0 69 13.333 95 40s39 58.667 39 96
c0 40.667 -12.667 73.167 -38 97.5s-59 36.5 -101 36.5h-70l-11 40l181 177c-8.66699 29.333 -26 52.833 -52 70.5s-56.333 26.5 -91 26.5c-48.667 0 -87.667 -14.667 -117 -44s-44 -67.666 -44 -114.999v-487h-67v487c0 66.667 20.833 120.167 62.5 160.5
s96.834 60.5 165.501 60.5z" />
    <glyph glyph-name="a.ss01" horiz-adv-x="599" 
d="M526 504l-0.00195312 -504h-63v81c-11.333 -24.667 -33.5 -45.667 -66.5 -63s-69.167 -26 -108.5 -26c-77.333 0 -137.5 24.5 -180.5 73.5s-64.5 111.167 -64.5 186.5s21.5 137.5 64.5 186.5s103.167 73.5 180.5 73.5c34.667 0 68.334 -8.33301 101.001 -25
s57.334 -38 74.001 -64v81h63zM289.998 50c54.667 0 98.334 18.333 131.001 55s49 85.667 49 147s-16.333 110.333 -49 147s-76.334 55 -131.001 55s-98.334 -18.333 -131.001 -55s-49 -85.667 -49 -147s16.333 -110.333 49 -147s76.334 -55 131.001 -55z" />
    <glyph glyph-name="aacute.ss01" horiz-adv-x="599" 
d="M270 560l77 148h85l-115 -148h-47zM526 504l-0.00195312 -504h-63v81c-11.333 -24.667 -33.5 -45.667 -66.5 -63s-69.167 -26 -108.5 -26c-77.333 0 -137.5 24.5 -180.5 73.5s-64.5 111.167 -64.5 186.5s21.5 137.5 64.5 186.5s103.167 73.5 180.5 73.5
c34.667 0 68.334 -8.33301 101.001 -25s57.334 -38 74.001 -64v81h63zM289.998 50c54.667 0 98.334 18.333 131.001 55s49 85.667 49 147s-16.333 110.333 -49 147s-76.334 55 -131.001 55s-98.334 -18.333 -131.001 -55s-49 -85.667 -49 -147s16.333 -110.333 49 -147
s76.334 -55 131.001 -55z" />
    <glyph glyph-name="abreve.ss01" horiz-adv-x="599" 
d="M301 557c-35.333 0 -64.666 11.667 -87.999 35s-35 52.666 -35 87.999h55c0 -20 6.5 -36.833 19.5 -50.5s29.167 -20.5 48.5 -20.5s35.666 6.83301 48.999 20.5s20 30.5 20 50.5h55c0 -35.333 -11.833 -64.666 -35.5 -87.999s-53.167 -35 -88.5 -35zM526 504
l-0.00195312 -504h-63v81c-11.333 -24.667 -33.5 -45.667 -66.5 -63s-69.167 -26 -108.5 -26c-77.333 0 -137.5 24.5 -180.5 73.5s-64.5 111.167 -64.5 186.5s21.5 137.5 64.5 186.5s103.167 73.5 180.5 73.5c34.667 0 68.334 -8.33301 101.001 -25s57.334 -38 74.001 -64
v81h63zM289.998 50c54.667 0 98.334 18.333 131.001 55s49 85.667 49 147s-16.333 110.333 -49 147s-76.334 55 -131.001 55s-98.334 -18.333 -131.001 -55s-49 -85.667 -49 -147s16.333 -110.333 49 -147s76.334 -55 131.001 -55z" />
    <glyph glyph-name="acircumflex.ss01" horiz-adv-x="599" 
d="M277 708h47l118 -148h-56l-85 96l-87 -96h-55zM526 504l-0.00195312 -504h-63v81c-11.333 -24.667 -33.5 -45.667 -66.5 -63s-69.167 -26 -108.5 -26c-77.333 0 -137.5 24.5 -180.5 73.5s-64.5 111.167 -64.5 186.5s21.5 137.5 64.5 186.5s103.167 73.5 180.5 73.5
c34.667 0 68.334 -8.33301 101.001 -25s57.334 -38 74.001 -64v81h63zM289.998 50c54.667 0 98.334 18.333 131.001 55s49 85.667 49 147s-16.333 110.333 -49 147s-76.334 55 -131.001 55s-98.334 -18.333 -131.001 -55s-49 -85.667 -49 -147s16.333 -110.333 49 -147
s76.334 -55 131.001 -55z" />
    <glyph glyph-name="adieresis.ss01" horiz-adv-x="599" 
d="M183 708h66v-87h-66v87zM353 708h66v-87h-66v87zM526 504l-0.00195312 -504h-63v81c-11.333 -24.667 -33.5 -45.667 -66.5 -63s-69.167 -26 -108.5 -26c-77.333 0 -137.5 24.5 -180.5 73.5s-64.5 111.167 -64.5 186.5s21.5 137.5 64.5 186.5s103.167 73.5 180.5 73.5
c34.667 0 68.334 -8.33301 101.001 -25s57.334 -38 74.001 -64v81h63zM289.998 50c54.667 0 98.334 18.333 131.001 55s49 85.667 49 147s-16.333 110.333 -49 147s-76.334 55 -131.001 55s-98.334 -18.333 -131.001 -55s-49 -85.667 -49 -147s16.333 -110.333 49 -147
s76.334 -55 131.001 -55z" />
    <glyph glyph-name="agrave.ss01" horiz-adv-x="599" 
d="M325 560h-47l-115 148h85zM526 504l-0.00195312 -504h-63v81c-11.333 -24.667 -33.5 -45.667 -66.5 -63s-69.167 -26 -108.5 -26c-77.333 0 -137.5 24.5 -180.5 73.5s-64.5 111.167 -64.5 186.5s21.5 137.5 64.5 186.5s103.167 73.5 180.5 73.5
c34.667 0 68.334 -8.33301 101.001 -25s57.334 -38 74.001 -64v81h63zM289.998 50c54.667 0 98.334 18.333 131.001 55s49 85.667 49 147s-16.333 110.333 -49 147s-76.334 55 -131.001 55s-98.334 -18.333 -131.001 -55s-49 -85.667 -49 -147s16.333 -110.333 49 -147
s76.334 -55 131.001 -55z" />
    <glyph glyph-name="amacron.ss01" horiz-adv-x="599" 
d="M170 594v56h261v-56h-261zM526 504l-0.00195312 -504h-63v81c-11.333 -24.667 -33.5 -45.667 -66.5 -63s-69.167 -26 -108.5 -26c-77.333 0 -137.5 24.5 -180.5 73.5s-64.5 111.167 -64.5 186.5s21.5 137.5 64.5 186.5s103.167 73.5 180.5 73.5
c34.667 0 68.334 -8.33301 101.001 -25s57.334 -38 74.001 -64v81h63zM289.998 50c54.667 0 98.334 18.333 131.001 55s49 85.667 49 147s-16.333 110.333 -49 147s-76.334 55 -131.001 55s-98.334 -18.333 -131.001 -55s-49 -85.667 -49 -147s16.333 -110.333 49 -147
s76.334 -55 131.001 -55z" />
    <glyph glyph-name="aogonek.ss01" horiz-adv-x="599" 
d="M556 -125l9.99902 -61c-16 -2.66699 -31.333 -4 -46 -4c-32.667 0 -59 9 -79 27s-30 41.333 -30 70c0 15.333 5.16699 32.833 15.5 52.5s22.5 35.5 36.5 47.5v74c-11.333 -24.667 -33.5 -45.667 -66.5 -63s-69.167 -26 -108.5 -26c-77.333 0 -137.5 24.5 -180.5 73.5
s-64.5 111.167 -64.5 186.5s21.5 137.5 64.5 186.5s103.167 73.5 180.5 73.5c34.667 0 68.334 -8.33301 101.001 -25s57.334 -38 74.001 -64v81h63v-504c-32 -32 -48 -60 -48 -84c0 -12.667 4.16699 -23 12.5 -31s19.166 -12 32.499 -12c15.333 0 26.333 0.666992 33 2z
M289.999 50c54.667 0 98.334 18.333 131.001 55s49 85.667 49 147s-16.333 110.333 -49 147s-76.334 55 -131.001 55s-98.334 -18.333 -131.001 -55s-49 -85.667 -49 -147s16.333 -110.333 49 -147s76.334 -55 131.001 -55z" />
    <glyph glyph-name="aring.ss01" horiz-adv-x="599" 
d="M301 545c-30 0 -55 9.33301 -75 28s-30 42 -30 70s10 51.333 30 70s45 28 75 28s55 -9.33301 75 -28s30 -42 30 -70s-10 -51.333 -30 -70s-45 -28 -75 -28zM301 588c16.667 0 30.334 5.16699 41.001 15.5s16 23.5 16 39.5s-5.33301 29.167 -16 39.5
s-24.334 15.5 -41.001 15.5c-16 0 -29.333 -5.16699 -40 -15.5s-16 -23.5 -16 -39.5s5.33301 -29.167 16 -39.5s24 -15.5 40 -15.5zM526 504l-0.00195312 -504h-63v81c-11.333 -24.667 -33.5 -45.667 -66.5 -63s-69.167 -26 -108.5 -26c-77.333 0 -137.5 24.5 -180.5 73.5
s-64.5 111.167 -64.5 186.5s21.5 137.5 64.5 186.5s103.167 73.5 180.5 73.5c34.667 0 68.334 -8.33301 101.001 -25s57.334 -38 74.001 -64v81h63zM289.998 50c54.667 0 98.334 18.333 131.001 55s49 85.667 49 147s-16.333 110.333 -49 147s-76.334 55 -131.001 55
s-98.334 -18.333 -131.001 -55s-49 -85.667 -49 -147s16.333 -110.333 49 -147s76.334 -55 131.001 -55z" />
    <glyph glyph-name="aringacute.ss01" horiz-adv-x="599" 
d="M301 545c-30 0 -55 9.33594 -75 28.0029s-30 42 -30 70c0 23.333 7.16699 43.666 21.5 60.999s32.833 28.666 55.5 33.999l74 142h85l-109 -141c24 -4.66699 43.833 -15.834 59.5 -33.501s23.5 -38.5 23.5 -62.5c0 -28 -10 -51.333 -30 -70s-45 -28 -75 -28zM301 698.003
c-16 0 -29.333 -5.16699 -40 -15.5s-16 -23.5 -16 -39.5s5.33301 -29.167 16 -39.5s24 -15.5 40 -15.5c16.667 0 30.334 5.16699 41.001 15.5s16 23.5 16 39.5s-5.33301 29.167 -16 39.5s-24.334 15.5 -41.001 15.5zM463 504.003h62.998v-504h-63v81
c-11.333 -24.667 -33.5 -45.667 -66.5 -63s-69.167 -26 -108.5 -26c-77.333 0 -137.5 24.5 -180.5 73.5s-64.5 111.167 -64.5 186.5s21.5 137.5 64.5 186.5s103.167 73.5 180.5 73.5c34.667 0 68.334 -8.33301 101.001 -25s57.334 -38 74.001 -64v81zM289.998 50.0029
c54.667 0 98.334 18.333 131.001 55s49 85.667 49 147s-16.333 110.333 -49 147s-76.334 55 -131.001 55s-98.334 -18.333 -131.001 -55s-49 -85.667 -49 -147s16.333 -110.333 49 -147s76.334 -55 131.001 -55z" />
    <glyph glyph-name="atilde.ss01" horiz-adv-x="599" 
d="M188 593l-47 8c0.666992 27.333 9.83398 49.5 27.501 66.5s40.5 25.5 68.5 25.5c24 0 47.333 -9 70 -27c27.333 -19.333 49.666 -29 66.999 -29c28.667 0 44.667 16.333 48 49l48 -9c-1.33301 -27.333 -10.833 -49.333 -28.5 -66s-40.167 -25 -67.5 -25
c-21.333 0 -45 8.66699 -71 26c-1.33301 1.33301 -5.33301 4.33301 -12 9s-11.167 7.66699 -13.5 9s-6.16602 3.33301 -11.499 6s-10.333 4.5 -15 5.5s-9.33398 1.5 -14.001 1.5c-14 0 -25.333 -4.33301 -34 -13s-13.667 -21 -15 -37zM526 504l-0.00195312 -504h-63v81
c-11.333 -24.667 -33.5 -45.667 -66.5 -63s-69.167 -26 -108.5 -26c-77.333 0 -137.5 24.5 -180.5 73.5s-64.5 111.167 -64.5 186.5s21.5 137.5 64.5 186.5s103.167 73.5 180.5 73.5c34.667 0 68.334 -8.33301 101.001 -25s57.334 -38 74.001 -64v81h63zM289.998 50
c54.667 0 98.334 18.333 131.001 55s49 85.667 49 147s-16.333 110.333 -49 147s-76.334 55 -131.001 55s-98.334 -18.333 -131.001 -55s-49 -85.667 -49 -147s16.333 -110.333 49 -147s76.334 -55 131.001 -55z" />
    <glyph glyph-name="ae.ss01" horiz-adv-x="989" 
d="M946 279c0 -12.667 -0.667969 -23.666 -2.00098 -32.999h-410c0.666992 -58 17.334 -105.167 50.001 -141.5s74.667 -54.5 126 -54.5c43.333 0 79.166 9.66699 107.499 29s46.166 46.666 53.499 81.999l60 -12c-11.333 -50 -36.333 -88.667 -75 -116s-87 -41 -145 -41
c-80.667 0 -142.334 31.333 -185.001 94v-86h-63v81c-11.333 -24.667 -33.5 -45.667 -66.5 -63s-69.167 -26 -108.5 -26c-77.333 0 -137.5 24.5 -180.5 73.5s-64.5 111.167 -64.5 186.5s21.5 137.5 64.5 186.5s103.167 73.5 180.5 73.5
c34.667 0 68.334 -8.33301 101.001 -25s57.334 -38 74.001 -64v81h63v-86c42.667 62.667 104.334 94 185.001 94c68.667 0 125 -21.833 169 -65.5s66 -99.5 66 -167.5zM289.999 50.001c54.667 0 98.334 18.333 131.001 55s49 85.667 49 147s-16.333 110.333 -49 147
s-76.334 55 -131.001 55s-98.334 -18.333 -131.001 -55s-49 -85.667 -49 -147s16.333 -110.333 49 -147s76.334 -55 131.001 -55zM538.999 304.001h341.999c-5.33301 44.667 -23 80.834 -53 108.501s-69 41.5 -117 41.5c-44.667 0 -82.167 -13.333 -112.5 -40
s-50.166 -63.334 -59.499 -110.001z" />
    <glyph glyph-name="aeacute.ss01" horiz-adv-x="989" 
d="M638 708l-115 -148h-47l77 148h85zM946 279c0 -12.667 -0.667969 -23.666 -2.00098 -32.999h-410c0.666992 -58 17.334 -105.167 50.001 -141.5s74.667 -54.5 126 -54.5c43.333 0 79.166 9.66699 107.499 29s46.166 46.666 53.499 81.999l60 -12
c-11.333 -50 -36.333 -88.667 -75 -116s-87 -41 -145 -41c-80.667 0 -142.334 31.333 -185.001 94v-86h-63v81c-11.333 -24.667 -33.5 -45.667 -66.5 -63s-69.167 -26 -108.5 -26c-77.333 0 -137.5 24.5 -180.5 73.5s-64.5 111.167 -64.5 186.5s21.5 137.5 64.5 186.5
s103.167 73.5 180.5 73.5c34.667 0 68.334 -8.33301 101.001 -25s57.334 -38 74.001 -64v81h63v-86c42.667 62.667 104.334 94 185.001 94c68.667 0 125 -21.833 169 -65.5s66 -99.5 66 -167.5zM289.999 50.001c54.667 0 98.334 18.333 131.001 55s49 85.667 49 147
s-16.333 110.333 -49 147s-76.334 55 -131.001 55s-98.334 -18.333 -131.001 -55s-49 -85.667 -49 -147s16.333 -110.333 49 -147s76.334 -55 131.001 -55zM538.999 304.001h341.999c-5.33301 44.667 -23 80.834 -53 108.501s-69 41.5 -117 41.5
c-44.667 0 -82.167 -13.333 -112.5 -40s-50.166 -63.334 -59.499 -110.001z" />
    <glyph glyph-name="g.ss02" horiz-adv-x="520" 
d="M327 94c49.333 0 88.832 -10.833 118.499 -32.5s44.5 -54.834 44.5 -99.501c0 -47.333 -20 -84.5 -60 -111.5s-95 -40.5 -165 -40.5s-125 12.833 -165 38.5s-60 60.834 -60 105.501c0 44 19 79.333 57 106c-29.333 16.667 -44 44 -44 82c0 40 22 70 66 90
c-26.667 30 -40 67 -40 111c0 50 17.667 90.667 53 122s79.333 47 132 47c31.333 0 61 -6.66699 89 -20l85 62l36 -50l-68 -50c29.333 -31.333 44 -68.333 44 -111c0 -50.667 -17.667 -91.5 -53 -122.5s-79.666 -46.5 -132.999 -46.5c-38 0 -72 8 -102 24
c-31.333 -11.333 -47 -30 -47 -56c0 -32 22.667 -48 68 -48h144zM263.999 458c-33.333 0 -61.833 -10.333 -85.5 -31s-35.5 -48.667 -35.5 -84s11.833 -63.333 35.5 -84s52.167 -31 85.5 -31c34 0 62.833 10.333 86.5 31s35.5 48.667 35.5 84s-11.833 63.333 -35.5 84
s-52.5 31 -86.5 31zM264.999 -134c50.667 0 90.5 7.83203 119.5 23.499s43.5 37.167 43.5 64.5c0 57.333 -36 86 -108 86h-114c-19.333 0 -37 1 -53 3c-34 -19.333 -51 -49.666 -51 -90.999c0 -26.667 14.333 -47.667 43 -63s68.667 -23 120 -23z" />
    <glyph glyph-name="gbreve.ss02" horiz-adv-x="520" 
d="M264 557c-35.333 0 -64.666 11.667 -87.999 35s-35 52.666 -35 87.999h55c0 -20 6.5 -36.833 19.5 -50.5s29.167 -20.5 48.5 -20.5s35.666 6.83301 48.999 20.5s20 30.5 20 50.5h55c0 -35.333 -11.833 -64.666 -35.5 -87.999s-53.167 -35 -88.5 -35zM327 94
c49.333 0 88.832 -10.833 118.499 -32.5s44.5 -54.834 44.5 -99.501c0 -47.333 -20 -84.5 -60 -111.5s-95 -40.5 -165 -40.5s-125 12.833 -165 38.5s-60 60.834 -60 105.501c0 44 19 79.333 57 106c-29.333 16.667 -44 44 -44 82c0 40 22 70 66 90
c-26.667 30 -40 67 -40 111c0 50 17.667 90.667 53 122s79.333 47 132 47c31.333 0 61 -6.66699 89 -20l85 62l36 -50l-68 -50c29.333 -31.333 44 -68.333 44 -111c0 -50.667 -17.667 -91.5 -53 -122.5s-79.666 -46.5 -132.999 -46.5c-38 0 -72 8 -102 24
c-31.333 -11.333 -47 -30 -47 -56c0 -32 22.667 -48 68 -48h144zM263.999 458c-33.333 0 -61.833 -10.333 -85.5 -31s-35.5 -48.667 -35.5 -84s11.833 -63.333 35.5 -84s52.167 -31 85.5 -31c34 0 62.833 10.333 86.5 31s35.5 48.667 35.5 84s-11.833 63.333 -35.5 84
s-52.5 31 -86.5 31zM264.999 -134c50.667 0 90.5 7.83203 119.5 23.499s43.5 37.167 43.5 64.5c0 57.333 -36 86 -108 86h-114c-19.333 0 -37 1 -53 3c-34 -19.333 -51 -49.666 -51 -90.999c0 -26.667 14.333 -47.667 43 -63s68.667 -23 120 -23z" />
    <glyph glyph-name="gcircumflex.ss02" horiz-adv-x="520" 
d="M264 656l-87 -96h-55l118 148h47l118 -148h-56zM327 94c49.333 0 88.832 -10.833 118.499 -32.5s44.5 -54.834 44.5 -99.501c0 -47.333 -20 -84.5 -60 -111.5s-95 -40.5 -165 -40.5s-125 12.833 -165 38.5s-60 60.834 -60 105.501c0 44 19 79.333 57 106
c-29.333 16.667 -44 44 -44 82c0 40 22 70 66 90c-26.667 30 -40 67 -40 111c0 50 17.667 90.667 53 122s79.333 47 132 47c31.333 0 61 -6.66699 89 -20l85 62l36 -50l-68 -50c29.333 -31.333 44 -68.333 44 -111c0 -50.667 -17.667 -91.5 -53 -122.5
s-79.666 -46.5 -132.999 -46.5c-38 0 -72 8 -102 24c-31.333 -11.333 -47 -30 -47 -56c0 -32 22.667 -48 68 -48h144zM263.999 458c-33.333 0 -61.833 -10.333 -85.5 -31s-35.5 -48.667 -35.5 -84s11.833 -63.333 35.5 -84s52.167 -31 85.5 -31c34 0 62.833 10.333 86.5 31
s35.5 48.667 35.5 84s-11.833 63.333 -35.5 84s-52.5 31 -86.5 31zM264.999 -134c50.667 0 90.5 7.83203 119.5 23.499s43.5 37.167 43.5 64.5c0 57.333 -36 86 -108 86h-114c-19.333 0 -37 1 -53 3c-34 -19.333 -51 -49.666 -51 -90.999c0 -26.667 14.333 -47.667 43 -63
s68.667 -23 120 -23z" />
    <glyph glyph-name="uni0123.ss02" horiz-adv-x="520" 
d="M344 708l-30 -148h-75l58 148h47zM327 94c49.333 0 88.832 -10.833 118.499 -32.5s44.5 -54.834 44.5 -99.501c0 -47.333 -20 -84.5 -60 -111.5s-95 -40.5 -165 -40.5s-125 12.833 -165 38.5s-60 60.834 -60 105.501c0 44 19 79.333 57 106c-29.333 16.667 -44 44 -44 82
c0 40 22 70 66 90c-26.667 30 -40 67 -40 111c0 50 17.667 90.667 53 122s79.333 47 132 47c31.333 0 61 -6.66699 89 -20l85 62l36 -50l-68 -50c29.333 -31.333 44 -68.333 44 -111c0 -50.667 -17.667 -91.5 -53 -122.5s-79.666 -46.5 -132.999 -46.5c-38 0 -72 8 -102 24
c-31.333 -11.333 -47 -30 -47 -56c0 -32 22.667 -48 68 -48h144zM263.999 458c-33.333 0 -61.833 -10.333 -85.5 -31s-35.5 -48.667 -35.5 -84s11.833 -63.333 35.5 -84s52.167 -31 85.5 -31c34 0 62.833 10.333 86.5 31s35.5 48.667 35.5 84s-11.833 63.333 -35.5 84
s-52.5 31 -86.5 31zM264.999 -134c50.667 0 90.5 7.83203 119.5 23.499s43.5 37.167 43.5 64.5c0 57.333 -36 86 -108 86h-114c-19.333 0 -37 1 -53 3c-34 -19.333 -51 -49.666 -51 -90.999c0 -26.667 14.333 -47.667 43 -63s68.667 -23 120 -23z" />
    <glyph glyph-name="gdotaccent.ss02" horiz-adv-x="520" 
d="M304 708v-96h-78v96h78zM327 94c49.333 0 88.832 -10.833 118.499 -32.5s44.5 -54.834 44.5 -99.501c0 -47.333 -20 -84.5 -60 -111.5s-95 -40.5 -165 -40.5s-125 12.833 -165 38.5s-60 60.834 -60 105.501c0 44 19 79.333 57 106c-29.333 16.667 -44 44 -44 82
c0 40 22 70 66 90c-26.667 30 -40 67 -40 111c0 50 17.667 90.667 53 122s79.333 47 132 47c31.333 0 61 -6.66699 89 -20l85 62l36 -50l-68 -50c29.333 -31.333 44 -68.333 44 -111c0 -50.667 -17.667 -91.5 -53 -122.5s-79.666 -46.5 -132.999 -46.5c-38 0 -72 8 -102 24
c-31.333 -11.333 -47 -30 -47 -56c0 -32 22.667 -48 68 -48h144zM263.999 458c-33.333 0 -61.833 -10.333 -85.5 -31s-35.5 -48.667 -35.5 -84s11.833 -63.333 35.5 -84s52.167 -31 85.5 -31c34 0 62.833 10.333 86.5 31s35.5 48.667 35.5 84s-11.833 63.333 -35.5 84
s-52.5 31 -86.5 31zM264.999 -134c50.667 0 90.5 7.83203 119.5 23.499s43.5 37.167 43.5 64.5c0 57.333 -36 86 -108 86h-114c-19.333 0 -37 1 -53 3c-34 -19.333 -51 -49.666 -51 -90.999c0 -26.667 14.333 -47.667 43 -63s68.667 -23 120 -23z" />
    <glyph glyph-name="f_f.dlig" horiz-adv-x="637" 
d="M468 566v-62h134v-58h-134v-446h-63v446h-216v-446h-63v446h-88v58h88v52c0 52 12.333 92.167 37 120.5s57 42.5 97 42.5c24 0 45.333 -2.33301 64 -7l-2 -60c-15.333 6 -33.333 9 -54 9c-23.333 0 -42.333 -8.66699 -57 -26s-22 -40.333 -22 -69v-62h216v52
c0 52 12.333 92.167 37 120.5s57 42.5 97 42.5c24 0 45.333 -2.33301 64 -7l-2 -60c-15.333 6 -33.333 9 -54 9c-23.333 0 -42.333 -8.66699 -57 -26s-22 -40.333 -22 -69z" />
    <glyph glyph-name="f_f_i.dlig" horiz-adv-x="759" 
d="M686 504v-504h-63v446h-205v-446h-63v446h-166v-446h-63v446h-88v58h88v52c0 52 12.333 92.167 37 120.5s57 42.5 97 42.5c24 0 45.333 -2.33301 64 -7l-2 -60c-15.333 6 -33.333 9 -54 9c-23.333 0 -42.333 -8.66699 -57 -26s-22 -40.333 -22 -69v-62h166v52
c0 52 12.333 92.167 37 120.5s57 42.5 97 42.5c24 0 45.333 -2.33301 64 -7l-2 -60c-15.333 6 -33.333 9 -54 9c-23.333 0 -42.333 -8.66699 -57 -26s-22 -40.333 -22 -69v-62h268zM616 708h78v-96h-78v96z" />
    <glyph glyph-name="f_f_l.dlig" horiz-adv-x="778" 
d="M642 708h63v-708h-63v446h-224v-446h-63v446h-166v-446h-63v446h-88v58h88v52c0 52 12.333 92.167 37 120.5s57 42.5 97 42.5c24 0 45.333 -2.33301 64 -7l-2 -60c-15.333 6 -33.333 9 -54 9c-23.333 0 -42.333 -8.66699 -57 -26s-22 -40.333 -22 -69v-62h166v52
c0 52 12.333 92.167 37 120.5s57 42.5 97 42.5c24 0 45.333 -2.33301 64 -7l-2 -60c-15.333 6 -33.333 9 -54 9c-23.333 0 -42.333 -8.66699 -57 -26s-22 -40.333 -22 -69v-62h224v204z" />
    <glyph glyph-name="f_i.dlig" 
d="M457 504v-504h-63v446h-205v-446h-63v446h-88v58h88v52c0 52 12.333 92.167 37 120.5s57 42.5 97 42.5c24 0 45.333 -2.33301 64 -7l-2 -60c-15.333 6 -33.333 9 -54 9c-23.333 0 -42.333 -8.66699 -57 -26s-22 -40.333 -22 -69v-62h268zM387 708h78v-96h-78v96z" />
    <glyph glyph-name="f_l.dlig" horiz-adv-x="549" 
d="M413 708h63v-708h-63v446h-224v-446h-63v446h-88v58h88v52c0 52 12.333 92.167 37 120.5s57 42.5 97 42.5c24 0 45.333 -2.33301 64 -7l-2 -60c-15.333 6 -33.333 9 -54 9c-23.333 0 -42.333 -8.66699 -57 -26s-22 -40.333 -22 -69v-62h224v204z" />
    <glyph glyph-name="three.ss04" horiz-adv-x="570" 
d="M287 -8c-74.667 0 -134.499 19.167 -179.499 57.5s-67.5 88.833 -67.5 151.5l69 6c0 -46 16.167 -83 48.5 -111s75.166 -42 128.499 -42c52 0 94 12.5 126 37.5s48 57.833 48 98.5c0 44.667 -15.833 78.667 -47.5 102s-75.167 35 -130.5 35c-32 0 -51 -0.333008 -57 -1
l-1 61c7.33301 -0.666992 21.333 -1 42 -1c47.333 0 86.5 13.667 117.5 41s46.833 59.666 47.5 96.999c0.666992 36.667 -12.833 66.167 -40.5 88.5s-63.5 33.5 -107.5 33.5c-45.333 0 -83 -13.5 -113 -40.5s-44.333 -60.5 -43 -100.5l-68 6
c-0.666992 58 19.833 105.333 61.5 142s95.834 55 162.501 55c65.333 0 118 -16.667 158 -50s60 -77.333 60 -132c0 -39.333 -13.5 -74.833 -40.5 -106.5s-61.833 -51.167 -104.5 -58.5c52 -1.33301 94 -17.833 126 -49.5s48 -72.167 48 -121.5
c0 -59.333 -22.333 -107.166 -67 -143.499s-103.334 -54.5 -176.001 -54.5z" />
    <glyph glyph-name="uni2462.ss04" horiz-adv-x="805" 
d="M402 -8c-102.667 0 -188 34 -256 102s-102 153.333 -102 256s34 188 102 256s153.333 102 256 102c103.333 0 189 -34 257 -102s102 -153.333 102 -256s-34 -188 -102 -256s-153.667 -102 -257 -102zM402 39c88.667 0 162.334 29.5 221.001 88.5s88 133.167 88 222.5
s-29.333 163.5 -88 222.5s-132.334 88.5 -221.001 88.5s-162.167 -29.5 -220.5 -88.5s-87.5 -133.167 -87.5 -222.5s29.167 -163.5 87.5 -222.5s131.833 -88.5 220.5 -88.5zM400 169c-40.667 0 -73.8359 10.6699 -99.5029 32.0029s-38.5 49.666 -38.5 84.999l55 3
c0 -20.667 7.66699 -37.834 23 -51.501s35 -20.5 59 -20.5c24.667 0 44.667 6 60 18s23 27.333 23 46c0 21.333 -7.66699 37.666 -23 48.999s-36 17 -62 17h-29l-1 46c4.66699 -0.666992 12.334 -1 23.001 -1c22 0 39.833 6.5 53.5 19.5s20.834 29.167 21.501 48.5
c0.666992 17.333 -5.33301 30.833 -18 40.5s-29.667 14.5 -51 14.5c-20 0 -37.167 -6.33301 -51.5 -19s-21.166 -28.334 -20.499 -47.001l-53 4c0 30.667 11.833 56.5 35.5 77.5s53.5 31.5 89.5 31.5s65.833 -9.33301 89.5 -28s35.5 -43 35.5 -73
c0 -21.333 -7.16699 -40.5 -21.5 -57.5s-32.833 -27.5 -55.5 -31.5c28 -1.33301 50.5 -10.666 67.5 -27.999s25.5 -39 25.5 -65c0 -32.667 -12.667 -59.167 -38 -79.5s-58.333 -30.5 -99 -30.5z" />
    <glyph glyph-name="zero.tf" horiz-adv-x="600" 
d="M297 -8c-84.667 0 -149 32.167 -193 96.5s-66 151.5 -66 261.5s22 197.167 66 261.5s108.333 96.5 193 96.5s149 -32.167 193 -96.5s66 -151.5 66 -261.5s-22 -197.167 -66 -261.5s-108.333 -96.5 -193 -96.5zM297 54c60 0 106.5 26.667 139.5 80s49.5 125.333 49.5 216
s-16.5 162.667 -49.5 216s-79.5 80 -139.5 80c-60.667 0 -107.334 -26.667 -140.001 -80s-49 -125.333 -49 -216s16.333 -162.667 49 -216s79.334 -80 140.001 -80z" />
    <glyph glyph-name="one.tf" horiz-adv-x="600" 
d="M357 62l179 0.000976562v-62h-455v62h211v543c-39.333 -39.333 -95.333 -66 -168 -80v60c74.667 15.333 134 53.666 178 114.999h55v-638z" />
    <glyph glyph-name="two.tf" horiz-adv-x="600" 
d="M61 0l-0.000976562 62l270 237c81.333 72 122 140.333 122 205c0 43.333 -13.333 77.833 -40 103.5s-62.667 38.5 -108 38.5c-54 0 -95.333 -16.667 -124 -50s-40 -78 -34 -134l-66 5c-4.66699 73.333 13.333 131.833 54 175.5s97.334 65.5 170.001 65.5
c66 0 118.833 -18.5 158.5 -55.5s59.5 -86.5 59.5 -148.5c0 -81.333 -49.667 -165.333 -149 -252l-218 -190h367v-62h-462z" />
    <glyph glyph-name="three.tf" horiz-adv-x="600" 
d="M297 -8c-67.333 0 -123.167 18.166 -167.5 54.499s-69.833 84.833 -76.5 145.5l65 9c4.66699 -44.667 23.334 -80.334 56.001 -107.001s73.667 -40 123 -40c53.333 0 96.166 14.833 128.499 44.5s48.5 68.834 48.5 117.501c0 50.667 -15 89.834 -45 117.501
s-72 41.5 -126 41.5c-29.333 0 -54.666 -6.66699 -75.999 -20l-32 41l237 242h-359v62h437v-62l-209 -212c71.333 8 129.666 -7.5 174.999 -46.5s68 -93.5 68 -163.5c0 -67.333 -22.5 -121.5 -67.5 -162.5s-104.833 -61.5 -179.5 -61.5z" />
    <glyph glyph-name="four.tf" horiz-adv-x="600" 
d="M397 0v185h-378v62l362 453h83v-453h106v-62h-106v-185h-67zM94 247h303v380z" />
    </font>
</defs>
</svg>
