<svg xmlns="http://www.w3.org/2000/svg" viewBox="0 0 84.8 45.03"><defs><style>.cls-1,.cls-3{fill:#005483;}.cls-2{fill:#00afb8;}.cls-3{fill-rule:evenodd;}</style></defs><g id="Layer_2" data-name="Layer 2"><g id="Layer_1-2" data-name="Layer 1"><polygon class="cls-1" points="40.55 39.3 44.23 39.3 51.86 0 48.19 0 40.55 39.3"/><polygon class="cls-1" points="35.95 39.3 39.63 39.3 47.26 0 43.59 0 35.95 39.3"/><polygon class="cls-1" points="31.35 39.3 35.03 39.3 42.66 0 38.99 0 31.35 39.3"/><polygon class="cls-2" points="52 39.3 48.32 39.3 38.99 0 42.66 0 52 39.3"/><polygon class="cls-2" points="56.6 39.3 52.92 39.3 43.59 0 47.26 0 56.6 39.3"/><polygon class="cls-2" points="61.19 39.3 57.52 39.3 48.19 0 51.86 0 61.19 39.3"/><path class="cls-1" d="M25.1,24.53a12.05,12.05,0,0,1-.1,1.7H3.38A10.56,10.56,0,0,0,6,33.53a8.63,8.63,0,0,0,6.65,2.8,10,10,0,0,0,5.67-1.49,6.54,6.54,0,0,0,2.82-4.23l3.16.62a9.66,9.66,0,0,1-3.95,6,13.14,13.14,0,0,1-7.65,2.11,12,12,0,0,1-9.18-3.78A13.57,13.57,0,0,1,0,25.92a13.55,13.55,0,0,1,3.53-9.61,12,12,0,0,1,9.18-3.79,12.26,12.26,0,0,1,8.91,3.37A11.53,11.53,0,0,1,25.1,24.53ZM3.64,23.24h18a8.65,8.65,0,0,0-2.79-5.59,8.84,8.84,0,0,0-6.17-2.14,8.79,8.79,0,0,0-5.93,2.06A9.79,9.79,0,0,0,3.64,23.24Z"/><path class="cls-1" d="M27.16,38.91V2.41h3.32v36.5Z"/><path class="cls-1" d="M62.6,38.91v-26h3.32v5.41a12.14,12.14,0,0,1,4-4.25,10,10,0,0,1,5.51-1.57A9.41,9.41,0,0,1,82.16,15a8.64,8.64,0,0,1,2.64,6.57V38.91H81.48V22a6.14,6.14,0,0,0-6.54-6.49,7.81,7.81,0,0,0-6.54,3.25c-1.66,2.16-2.48,5.08-2.48,8.76V38.91Z"/><path class="cls-1" d="M15.42,45V42.2h1a1,1,0,0,1,.64.19.65.65,0,0,1,.22.53.51.51,0,0,1-.11.33.66.66,0,0,1-.28.22.69.69,0,0,1,.52.72.75.75,0,0,1-.24.59,1,1,0,0,1-.68.22Zm.28-1.62h.72c.38,0,.58-.15.58-.46s-.19-.47-.58-.47H15.7Zm0,1.37h.73a.8.8,0,0,0,.51-.14.52.52,0,0,0,.18-.42.48.48,0,0,0-.18-.41.74.74,0,0,0-.51-.15H15.7Z"/><path class="cls-1" d="M20.43,44.77a1.12,1.12,0,0,1-.77.26,1.17,1.17,0,0,1-.78-.26.94.94,0,0,1-.29-.71V42.2h.28v1.88a.63.63,0,0,0,.22.51,1,1,0,0,0,1.14,0,.61.61,0,0,0,.22-.51V42.2h.27v1.86A.91.91,0,0,1,20.43,44.77Z"/><path class="cls-1" d="M22,45V42.2h.28V45Z"/><path class="cls-1" d="M23.63,45V42.2h.28v2.55h1.47V45Z"/><path class="cls-1" d="M26.45,45V42.2h.81a1.41,1.41,0,0,1,1,.38,1.5,1.5,0,0,1,0,2,1.41,1.41,0,0,1-1,.38Zm.27-.25h.54a1.11,1.11,0,0,0,.8-.29,1.32,1.32,0,0,0,0-1.72,1.16,1.16,0,0,0-.8-.29h-.54Z"/><path class="cls-1" d="M29.86,45V42.2h.28V45Z"/><path class="cls-1" d="M31.45,45V42.2h.34l1.56,2.38V42.2h.28V45H33.3l-1.57-2.37V45Z"/><path class="cls-1" d="M36.19,45a1.47,1.47,0,0,1-.67-.15,1.24,1.24,0,0,1-.5-.49,1.66,1.66,0,0,1,0-1.58,1.24,1.24,0,0,1,.5-.49,1.45,1.45,0,0,1,.66-.15,1.35,1.35,0,0,1,.78.23,1,1,0,0,1,.41.62l-.27.06a.78.78,0,0,0-.31-.49,1.14,1.14,0,0,0-1.38.14,1.41,1.41,0,0,0,0,1.74,1,1,0,0,0,.77.31.92.92,0,0,0,.7-.26,1,1,0,0,0,.26-.69H36.06v-.25H37.4V45h-.24v-.48a.83.83,0,0,1-.37.37A1.21,1.21,0,0,1,36.19,45Z"/><path class="cls-1" d="M41.06,45V42.45h-.94V42.2h2.15v.25h-.94V45Z"/><path class="cls-1" d="M45.24,42.2h.28V45h-.28V43.64H43.63V45h-.28V42.2h.28v1.19h1.61Z"/><path class="cls-1" d="M46.83,45V42.2h1.75v.25H47.11v.93h1.21v.25H47.11v1.12h1.52V45Z"/><path class="cls-1" d="M51.51,45V42.2h1.78v.25H51.78v1H53v.24H51.78V45Z"/><path class="cls-1" d="M56.28,44.77a1.12,1.12,0,0,1-.77.26,1.15,1.15,0,0,1-.78-.26.94.94,0,0,1-.29-.71V42.2h.28v1.88a.63.63,0,0,0,.22.51.95.95,0,0,0,1.14,0,.64.64,0,0,0,.22-.51V42.2h.27v1.86A.94.94,0,0,1,56.28,44.77Z"/><path class="cls-1" d="M58.6,45V42.45h-.94V42.2h2.15v.25h-.94V45Z"/><path class="cls-1" d="M62.73,44.77a1.27,1.27,0,0,1-1.54,0,.91.91,0,0,1-.3-.71V42.2h.28v1.88a.63.63,0,0,0,.22.51,1,1,0,0,0,1.14,0,.61.61,0,0,0,.22-.51V42.2H63v1.86A.91.91,0,0,1,62.73,44.77Z"/><path class="cls-1" d="M66.51,45H66.2l-.85-1.3h-.73V45h-.28V42.2h1a1,1,0,0,1,.64.2.69.69,0,0,1,.24.55.72.72,0,0,1-.15.45.76.76,0,0,1-.42.26Zm-1.89-2.55v1h.7a.73.73,0,0,0,.45-.13.49.49,0,0,0,0-.74.67.67,0,0,0-.45-.13Z"/><path class="cls-1" d="M67.58,45V42.2h1.75v.25H67.85v.93h1.21v.25H67.85v1.12h1.52V45Z"/><path class="cls-3" d="M81.48,12.83a2.09,2.09,0,1,1,2.1-2.09,2.07,2.07,0,0,1-2.1,2.09ZM79.8,10.74a1.68,1.68,0,1,0,3.36,0,1.68,1.68,0,1,0-3.36,0Zm1.25.16v1h-.36V9.54h.9c.55,0,.83.21.83.68a.62.62,0,0,1-.61.67L82.49,12h-.41l-.62-1Zm0-.3h.43c.3,0,.57,0,.57-.39s-.26-.36-.51-.36h-.49v.75Z"/></g></g></svg>